<svg width="412" height="413" viewBox="0 0 412 413" fill="none" xmlns="http://www.w3.org/2000/svg">
<path d="M377 0C396.33 9.01965e-07 412 15.67 412 35V413H35C15.67 413 4.5101e-07 397.33 0 378V0H377ZM28.6914 372.615C23.3385 372.615 18.999 376.955 18.999 382.308C18.999 387.661 23.3385 392 28.6914 392H128.846C134.199 392 138.538 387.661 138.538 382.308C138.538 376.955 134.199 372.615 128.846 372.615H28.6914ZM153.077 372.615C147.724 372.615 143.385 376.955 143.385 382.308C143.385 387.661 147.724 392 153.077 392C158.43 392 162.77 387.661 162.77 382.308C162.77 376.955 158.43 372.615 153.077 372.615ZM177.309 372.615C171.956 372.615 167.616 376.955 167.616 382.308C167.616 387.661 171.956 392 177.309 392C182.662 392 187.001 387.661 187.001 382.308C187.001 376.955 182.662 372.615 177.309 372.615ZM19 324C19 340.569 32.4315 354 49 354H392V46C392 29.4315 378.569 16 362 16H19V324Z" fill="#FC9A1E"/>
</svg>
