<svg width="228" height="117" viewBox="0 0 228 117" fill="none" xmlns="http://www.w3.org/2000/svg">
<path d="M221.255 94.8899C220.091 94.899 218.955 95.2464 217.985 95.8899L217.255 96.1899L217.035 96.2699C216.67 96.3451 216.298 96.382 215.925 96.3799C214.218 96.2965 212.552 95.8245 211.055 94.9999C207.975 93.3999 205.405 90.3799 203.235 87.6699C202.555 86.8199 201.885 85.9599 201.235 85.0999C199.083 82.2484 196.783 79.5114 194.345 76.8999C190.771 73.0783 186.6 69.8631 181.995 67.3799C180.785 66.7499 179.605 66.1999 178.435 65.7199C181.746 59.2534 182.461 51.7664 180.435 44.7899C180.375 44.5699 180.305 44.3499 180.235 44.1199H180.375L180.135 43.4499C180.113 43.3848 180.086 43.3214 180.055 43.2599C179.635 42.3999 179.255 41.5199 178.905 40.6199C176.202 34.5026 171.657 29.3812 165.905 25.9699C160.401 22.6945 154.11 20.9767 147.705 20.9999C145.871 20.998 144.039 21.1317 142.225 21.3999C139.806 21.7618 137.426 22.3476 135.115 23.1499C134.363 19.6106 132.897 16.2622 130.805 13.3099C126.041 6.7259 118.965 2.18584 110.995 0.599882C108.983 0.19982 106.936 -0.0011501 104.885 -0.000118116C98.88 0.0116951 92.9957 1.68699 87.885 4.83988C81.0197 9.02731 75.7909 15.4345 73.065 22.9999C70.9084 29.2009 70.4695 35.8698 71.795 42.2999C68.1213 42.8698 64.6792 44.4523 61.855 46.8699C59.6613 48.8208 57.9352 51.2407 56.8048 53.95C55.6743 56.6593 55.1686 59.5884 55.325 62.5199C48.135 64.1199 42.065 68.7499 37.325 72.8799C34.705 75.1799 32.325 77.6399 29.925 80.0199C25.785 84.2099 21.925 88.1699 17.255 91.0199C14.028 93.1932 10.2784 94.4638 6.39496 94.6999C4.8914 94.7053 3.4376 95.2391 2.28778 96.208C1.13797 97.1768 0.365322 98.519 0.104963 99.9999C-0.166266 101.505 0.0919354 103.057 0.835698 104.394C1.57946 105.73 2.76291 106.767 4.18496 107.33C5.55496 107.88 6.93496 108.4 8.29496 108.91C9.29496 109.46 10.485 110 11.855 110.61C14.435 111.74 17.005 112.76 19.495 113.61C24.8164 115.499 30.4091 116.512 36.055 116.61H36.465C41.8073 116.65 47.0983 115.566 51.995 113.43L52.155 113.36C53.905 112.85 55.605 112.28 57.265 111.73C59.265 111.05 61.265 110.42 63.185 109.88C65.1623 109.281 67.2099 108.945 69.275 108.88H69.495C71.5449 108.895 73.5921 109.035 75.625 109.3C78.215 109.61 80.985 109.97 83.625 110.51C83.776 110.55 83.9297 110.581 84.085 110.6C86.3536 111.76 88.7234 112.711 91.165 113.44C94.8918 114.583 98.7669 115.169 102.665 115.18C105.757 115.188 108.837 114.787 111.825 113.99C112.635 113.99 113.485 113.99 114.405 113.99C115.325 113.99 116.195 113.99 117.095 113.99C121.045 114.156 124.984 114.53 128.895 115.11C133.525 115.72 137.395 116.21 141.475 116.46C143.475 116.63 145.315 116.72 147.095 116.72C150.093 116.737 153.084 116.453 156.025 115.87C156.615 115.75 157.195 115.61 157.775 115.46C159.728 115.117 161.646 114.598 163.505 113.91C164.415 113.56 165.345 113.16 166.315 112.7C168.255 112.241 170.222 111.907 172.205 111.7C173.889 111.526 175.582 111.439 177.275 111.44C179.065 111.44 180.935 111.54 182.855 111.72C184.775 111.9 186.855 112.16 188.985 112.44C193.363 113.094 197.779 113.464 202.205 113.55C205.283 113.574 208.354 113.266 211.365 112.63C215.625 111.7 221.565 109.63 225.695 105C226.473 104.126 226.983 103.048 227.164 101.892C227.345 100.736 227.189 99.5533 226.716 98.4839C226.242 97.4144 225.471 96.504 224.493 95.8613C223.516 95.2187 222.375 94.871 221.205 94.8599L221.255 94.8899Z" fill="#EDE6DD"/>
<path d="M167.805 76.5599C171.725 75.9499 175.805 77.0599 179.285 78.7799C186.745 82.4299 192.005 89.0799 198.125 94.4799C200.909 97.0367 204.056 99.1665 207.465 100.8C203.955 98.8095 200.862 96.1612 198.355 92.9999C195.355 89.5099 192.635 85.8599 189.445 82.5499C186.229 79.0899 182.461 76.1872 178.295 73.9599C176.205 72.8892 173.992 72.0798 171.705 71.5499C170.033 71.1948 168.344 70.9245 166.645 70.7399C164.908 71.8898 162.977 72.7133 160.945 73.1699C163.471 73.7322 165.824 74.895 167.805 76.5599Z" fill="#83CDCE"/>
<path d="M214.485 103.31C211.927 103.808 209.315 103.972 206.715 103.8C198.225 103.33 190.145 100.17 181.665 99.6999C177.802 99.4407 173.927 99.9855 170.285 101.3C169.191 102.803 167.896 104.149 166.435 105.3C168.326 104.712 170.268 104.303 172.235 104.08C180.855 103.08 189.325 104.9 197.885 105.63C202.05 106.061 206.255 105.899 210.375 105.15C212.287 104.789 214.157 104.233 215.955 103.49C216.125 103.42 216.275 103.33 216.445 103.25C215.795 103.335 215.139 103.355 214.485 103.31Z" fill="#83CDCE"/>
<path d="M83.0548 50.9099C86.3831 52.8777 89.9307 54.4484 93.6248 55.5899C97.8382 56.8356 102.245 57.2932 106.625 56.9399C110.593 56.6063 114.456 55.4952 117.995 53.6699C120.976 52.0323 123.715 49.9895 126.135 47.5999C130.815 43.1399 134.895 37.9399 140.315 34.3399C143.024 32.5127 146.095 31.2931 149.32 30.7649C152.544 30.2368 155.845 30.4124 158.995 31.2799C157.486 30.6545 155.927 30.1561 154.335 29.7899C148.559 28.5143 142.538 28.9345 136.995 30.9999C134.202 32.0586 131.538 33.4308 129.055 35.0899L127.675 36.0099L127.415 36.4099C126.601 37.5035 125.654 38.4911 124.595 39.3499C122.654 42.2401 120.113 44.6777 117.145 46.4967C114.177 48.3156 110.851 49.473 107.395 49.8899C103.437 50.3431 99.4317 49.6398 95.8646 47.8651C92.2975 46.0905 89.3209 43.3204 87.2948 39.8899C85.4018 36.559 84.6013 32.7181 85.0061 28.9083C85.4109 25.0985 87.0006 21.5116 89.5513 18.6528C92.102 15.7941 95.4852 13.8074 99.2244 12.9727C102.964 12.138 106.871 12.4973 110.395 13.9999C114.015 15.5399 117.255 18.4399 118.095 22.4299C118.415 23.8987 118.334 25.4266 117.861 26.8535C117.388 28.2804 116.539 29.5537 115.405 30.5399L115.295 30.6999C113.495 33.0299 109.825 33.8099 107.755 31.3199C106.235 29.4799 107.445 26.1299 109.845 25.8299C110.005 25.8299 110.025 26.0599 109.845 26.0999C109.195 26.3102 108.649 26.757 108.313 27.3517C107.978 27.9463 107.879 28.6453 108.035 29.3099C108.228 29.9458 108.611 30.5073 109.134 30.9185C109.656 31.3298 110.291 31.5711 110.955 31.6099C111.705 31.6694 112.458 31.5242 113.133 31.1896C113.807 30.8549 114.378 30.3435 114.785 29.7099C115.571 28.4873 115.929 27.0382 115.802 25.5903C115.675 24.1423 115.071 22.7774 114.085 21.7099C113.174 20.6967 111.993 19.9632 110.682 19.5949C109.37 19.2267 107.98 19.2388 106.675 19.6299C105.3 20.0885 104.031 20.8188 102.943 21.7774C101.856 22.7359 100.972 23.9032 100.345 25.2099C99.5741 26.589 99.1147 28.1201 98.999 29.6956C98.8832 31.2712 99.1139 32.853 99.6748 34.3299C100.784 36.6258 102.668 38.4566 104.995 39.4999C109.765 41.8499 115.995 41.3999 120.625 39.0199C121.916 38.3739 123.105 37.5417 124.155 36.5499L124.525 36.1299C124.655 35.9899 124.815 35.8599 124.945 35.7299C125.509 35.0935 126.005 34.3997 126.425 33.6599C127.88 30.8966 128.292 27.7018 127.585 24.6599C126.908 21.804 125.64 19.1217 123.862 16.7861C122.084 14.4505 119.837 12.5134 117.265 11.0999C112.304 8.26022 106.514 7.22164 100.875 8.15989C95.3139 9.21658 90.2425 12.0398 86.4148 16.2099C82.3391 20.6092 79.8385 26.2366 79.3048 32.2099C79.0045 35.3894 79.2138 38.5964 79.9248 41.7099C80.3043 43.2465 80.7649 44.762 81.3048 46.2499C81.5848 47.0699 81.9148 47.8699 82.3048 48.6599C82.5298 49.2215 82.7104 49.8 82.8448 50.3899L82.8948 50.4399C82.9916 50.5782 83.0471 50.7412 83.0548 50.9099Z" fill="#4A5070"/>
<path d="M108.845 17.3399C114.265 17.7399 118.295 24.1199 116.205 29.0699C117.156 27.7377 117.704 26.1597 117.782 24.5246C117.86 22.8895 117.465 21.2666 116.645 19.8499C114.515 16.0199 110.145 13.8499 105.925 13.2299C102.3 12.6896 98.5974 13.2825 95.3227 14.9273C92.048 16.5722 89.3616 19.1888 87.631 22.419C85.9004 25.6492 85.2102 29.3353 85.6548 32.9728C86.0994 36.6103 87.6572 40.0216 90.1149 42.7399C92.7389 45.5927 96.1155 47.646 99.8557 48.6634C103.596 49.6807 107.547 49.6205 111.255 48.4899C115.837 47.114 119.885 44.3589 122.845 40.5999C119.035 42.9582 114.528 43.9296 110.085 43.3499C103.885 42.5099 97.5748 38.5999 96.8848 31.8999C96.6008 28.2317 97.7516 24.5964 100.095 21.7599C102.175 19.1599 105.415 17.0899 108.845 17.3399Z" fill="#F9EEE4"/>
<path d="M179.285 79.3799C175.84 77.6227 172.011 76.7563 168.145 76.8599C169.738 78.2759 171.059 79.9702 172.045 81.8599C172.908 83.5191 173.489 85.3102 173.765 87.1599C175.152 87.3268 176.519 87.6316 177.845 88.0699C179.493 88.5619 181.112 89.1462 182.695 89.8199C188.525 92.2599 193.915 95.6199 199.695 98.2299C201.601 99.1093 203.558 99.8739 205.555 100.52C199.355 97.1999 194.555 91.7899 189.485 86.9999C186.47 83.9816 183.034 81.415 179.285 79.3799Z" fill="#83CDCE"/>
<path d="M131.765 99.0499C132.169 95.9435 131.956 92.7879 131.137 89.7642C130.319 86.7404 128.911 83.9082 126.995 81.4299C128.102 84.3314 128.52 87.4503 128.216 90.5408C127.913 93.6314 126.896 96.6093 125.245 99.2399C123.356 102.182 120.72 104.571 117.605 106.16C117.257 106.338 116.9 106.498 116.535 106.64C117.075 106.64 117.615 106.64 118.155 106.64C121.835 106.682 125.508 106.949 129.155 107.44C129.705 106.18 130.335 104.97 130.765 103.65C131.24 102.151 131.575 100.611 131.765 99.0499Z" fill="#83CDCE"/>
<path d="M143.215 62.6999C143.145 62.3599 143.095 62.0199 143.045 61.6999C142.598 62.9737 142.053 64.2107 141.415 65.3999C140.084 67.886 138.236 70.0581 135.995 71.7699C133.457 73.6103 130.475 74.7424 127.355 75.0499C125.814 75.2182 124.26 75.2416 122.715 75.1199C123.85 76.2289 124.838 77.4791 125.655 78.8399C125.885 79.2299 126.095 79.6299 126.295 80.0299C126.495 80.4299 126.925 80.7399 127.225 81.1199C130.083 84.7585 131.845 89.136 132.305 93.7399C132.543 96.2226 132.408 98.727 131.905 101.17C131.516 103.375 130.773 105.502 129.705 107.47C134.245 108.03 138.765 108.68 143.335 108.85C147.469 109.019 151.608 108.721 155.675 107.96C156.735 107.76 157.785 107.49 158.835 107.23C160.947 106.435 162.934 105.34 164.735 103.98L165.175 103.6C166.105 102.853 166.962 102.019 167.735 101.11C169.558 98.9922 170.836 96.4618 171.46 93.7382C172.084 91.0145 172.034 88.1799 171.315 85.4799C170.591 83.0175 169.247 80.7821 167.412 78.9875C165.577 77.1928 163.313 75.8991 160.835 75.2299C158.411 74.675 155.881 74.8099 153.53 75.6194C151.18 76.4289 149.103 77.8805 147.535 79.8099C145.836 82.0889 144.996 84.895 145.164 87.7328C145.333 90.5706 146.498 93.2577 148.455 95.3199C150.33 97.2499 152.791 98.5052 155.455 98.8899C157.955 99.2399 160.985 98.7699 162.875 96.9899C163.81 96.0328 164.442 94.8215 164.693 93.5073C164.944 92.193 164.802 90.834 164.285 89.5999C163.285 86.9899 160.525 84.7599 157.625 85.0299C155.165 85.2599 152.625 87.7599 153.625 90.3699C153.862 90.9564 154.266 91.46 154.788 91.8173C155.31 92.1746 155.926 92.3698 156.558 92.3784C157.191 92.3869 157.812 92.2084 158.343 91.8653C158.874 91.5222 159.292 91.0298 159.545 90.4499C159.558 90.4008 159.59 90.359 159.634 90.3337C159.678 90.3084 159.731 90.3016 159.78 90.3149C159.829 90.3282 159.871 90.3604 159.896 90.4044C159.921 90.4485 159.928 90.5008 159.915 90.5499C159.809 91.1011 159.572 91.6186 159.224 92.059C158.876 92.4993 158.427 92.8495 157.915 93.0799C155.345 94.2799 153.045 92.4699 152.265 90.0799C151.325 87.1499 153.415 84.4199 156.265 83.6399C162.725 81.8499 167.635 89.6399 165.745 95.2599C165.12 97.0649 163.886 98.5959 162.255 99.5899C161.011 100.705 159.634 101.662 158.155 102.44C155.901 103.65 153.424 104.385 150.875 104.6C148.537 104.825 146.179 104.522 143.974 103.713C141.769 102.905 139.774 101.612 138.135 99.9299C136.626 98.3419 135.536 96.4039 134.961 94.2901C134.387 92.1764 134.347 89.953 134.845 87.8199C135.925 83.5999 139.105 80.1399 142.785 77.9499C145.088 76.6079 147.569 75.5979 150.155 74.9499C151.614 74.1067 153.196 73.4992 154.845 73.1499C149.455 71.9999 144.425 68.1699 143.215 62.6999Z" fill="#5A91A5"/>
<path d="M170.825 100.49L171.015 100.42C178.635 97.7999 186.725 99.5299 194.345 101.2C200.275 102.5 206.345 103.68 212.345 103.03C211.149 102.783 209.973 102.449 208.825 102.03H208.625C202.255 100.56 196.495 97.3999 190.765 94.3799C187.845 92.8399 184.915 91.3299 181.865 90.0899C180.412 89.5022 178.93 88.9882 177.425 88.5499C176.255 88.2099 175.035 87.9999 173.845 87.6999C174.327 92.0652 173.323 96.4654 170.995 100.19C170.944 100.293 170.887 100.393 170.825 100.49Z" fill="#07244C"/>
<path d="M109.225 90.3199C108.574 90.4715 107.897 90.4728 107.246 90.3238C106.594 90.1748 105.985 89.8794 105.465 89.4599C104.904 89.0427 104.44 88.5089 104.105 87.8952C103.77 87.2815 103.572 86.6026 103.524 85.905C103.477 85.2075 103.581 84.508 103.83 83.8545C104.078 83.2011 104.466 82.6093 104.965 82.1199C105.697 81.3441 106.627 80.7831 107.654 80.4976C108.682 80.212 109.768 80.2128 110.795 80.4999C109.399 79.7729 107.841 79.4109 106.268 79.4476C104.694 79.4843 103.156 79.9185 101.795 80.7099C97.5449 83.1399 96.3749 88.2399 97.4749 92.7099C97.6652 92.9035 97.8655 93.0871 98.0749 93.2599C100.206 95.0346 102.937 95.9257 105.705 95.7499C107.146 95.685 108.554 95.2984 109.826 94.6184C111.097 93.9383 112.201 92.9821 113.055 91.8199C114.885 89.1299 115.055 85.3899 112.745 82.9399C112.225 82.3643 111.583 81.9129 110.866 81.6192C110.148 81.3254 109.374 81.1968 108.6 81.2429C107.826 81.289 107.072 81.5086 106.394 81.8854C105.717 82.2623 105.132 82.7867 104.685 83.4199C102.685 86.3499 105.505 90.6399 109.015 89.7199C109.091 89.7027 109.172 89.7143 109.24 89.7523C109.309 89.7904 109.361 89.8524 109.387 89.9264C109.413 90.0005 109.411 90.0814 109.381 90.154C109.351 90.2265 109.295 90.2856 109.225 90.3199Z" fill="#F9EEE4"/>
<path d="M97.2247 74.8899C98.9186 73.1317 100.963 71.7486 103.225 70.8299C100.775 69.7199 98.7647 67.5299 97.0747 65.5199C94.8758 62.6343 92.2917 60.0637 89.3947 57.8799C86.5466 55.9199 83.3592 54.5059 79.9947 53.7099C76.4524 52.7651 72.7271 52.7445 69.1747 53.6499C67.5242 54.1197 66.0114 54.9808 64.7647 56.1599C63.9595 57.7316 63.4814 59.4503 63.3593 61.2121C63.2373 62.9739 63.4739 64.7421 64.0547 66.4099C65.8447 71.5099 71.4847 74.9799 76.7547 73.0199C78.0445 72.5952 79.1804 71.7994 80.02 70.7321C80.8596 69.6648 81.3656 68.3735 81.4747 67.0199C81.4747 64.1899 79.4747 61.5799 76.4747 61.8799C75.9309 61.9374 75.4078 62.1198 74.9461 62.4128C74.4844 62.7057 74.0966 63.1014 73.813 63.5689C73.5294 64.0365 73.3576 64.5632 73.3111 65.108C73.2645 65.6528 73.3445 66.201 73.5447 66.7099C73.7673 67.1873 74.1075 67.6004 74.5334 67.9104C74.9594 68.2203 75.4571 68.417 75.9798 68.482C76.5026 68.547 77.0333 68.4781 77.5221 68.2818C78.011 68.0855 78.442 67.7683 78.7747 67.3599C78.8847 67.2199 79.1547 67.3599 79.0847 67.5399C77.9647 70.2399 73.8447 70.5999 72.0847 68.3899C69.8547 65.6099 71.7747 61.2199 75.0847 60.4499C76.608 60.1423 78.1913 60.4013 79.5373 61.1783C80.8832 61.9553 81.8993 63.1968 82.3947 64.6699C82.7818 65.9051 82.8676 67.2151 82.6449 68.4903C82.4222 69.7655 81.8975 70.9689 81.1147 71.9999C83.854 71.3438 86.6995 71.2619 89.472 71.7593C92.2446 72.2567 94.8842 73.3226 97.2247 74.8899Z" fill="#045282"/>
<path d="M148.925 75.7099C146.633 76.4123 144.447 77.4215 142.425 78.7099C138.965 80.9799 136.045 84.4599 135.215 88.5899C134.84 90.7358 135.022 92.942 135.743 94.9975C136.464 97.0531 137.701 98.8891 139.335 100.33C141.112 101.855 143.211 102.957 145.474 103.555C147.738 104.152 150.107 104.229 152.405 103.78C154.555 103.379 156.617 102.6 158.495 101.48C158.935 101.22 159.345 100.94 159.755 100.65C159.605 100.65 159.455 100.75 159.295 100.78C156.178 101.414 152.937 100.873 150.195 99.2599C147.335 97.6323 145.133 95.0568 143.97 91.9784C142.807 88.9 142.756 85.5121 143.825 82.3999C144.793 79.6963 146.574 77.3591 148.925 75.7099Z" fill="#02A0C7"/>
<path d="M83.7252 100.84C86.8248 102.788 90.0597 104.513 93.4052 106L94.2552 106.26C97.1679 107.053 100.177 107.436 103.195 107.4C106.137 107.365 109.056 106.886 111.855 105.98L113.245 105.51C116.379 103.937 119.114 101.674 121.245 98.8899C125.345 93.4799 127.735 85.5099 123.135 79.6699C121.002 77.1076 118.277 75.1033 115.195 73.8299C113.006 72.851 110.651 72.2978 108.255 72.1999C111.04 72.4201 113.714 73.3874 115.995 74.9999C117.833 76.3632 119.361 78.0998 120.479 80.0956C121.598 82.0913 122.281 84.3012 122.485 86.5799C122.659 88.8426 122.34 91.1161 121.549 93.2433C120.759 95.3705 119.515 97.3005 117.905 98.8999C116.15 100.614 114.035 101.916 111.713 102.712C109.392 103.507 106.923 103.777 104.485 103.5C98.8352 103 93.7052 100.43 88.8652 97.6299C83.7952 94.6799 78.7952 91.5699 73.0652 89.9999C67.4497 88.415 61.5561 88.0737 55.7952 88.9999C49.9652 89.9999 44.6852 92.3999 39.4952 95.1399C31.2352 99.4899 20.7452 105.21 11.3052 101.63L10.6152 101.76C12.5152 102.34 14.3852 103.1 16.2152 103.76C18.9419 104.773 21.7086 105.67 24.5152 106.45C33.3552 108.93 43.5152 109.35 51.5152 104.24C53.482 102.838 55.3621 101.319 57.1452 99.6899C58.7433 98.3427 60.5503 97.2653 62.4952 96.4999L62.7252 96.3999L63.1652 96.2299H63.3352L63.6552 96.1099C70.7552 93.8999 77.7452 97.3099 83.7252 100.84Z" fill="#07244C"/>
<path d="M164.415 44.6299C160.125 39.9399 153.215 40.0899 147.565 41.7499C142.102 43.3609 137.22 46.5136 133.505 50.8299C129.505 55.4599 127.245 61.3199 123.025 65.8299C120.944 68.1101 118.266 69.7624 115.295 70.5999C117.694 71.408 119.914 72.671 121.835 74.3199C127.025 74.8699 132.405 73.9899 136.455 70.4799C139.541 67.5874 141.781 63.9092 142.935 59.8399C142.965 56.9725 143.88 54.1844 145.556 51.8572C147.231 49.5301 149.585 47.7777 152.295 46.8399C153.856 46.313 155.516 46.1437 157.152 46.3445C158.788 46.5453 160.357 47.111 161.745 47.9999C162.945 48.75 163.964 49.757 164.729 50.9484C165.493 52.1399 165.984 53.486 166.165 54.8899C166.235 54.6699 166.325 54.4599 166.385 54.2299C166.908 52.5952 167.002 50.8533 166.657 49.172C166.312 47.4907 165.54 45.9265 164.415 44.6299Z" fill="#02A0C7"/>
<path d="M27.995 95.5499C33.335 92.8399 38.405 89.6299 43.775 86.9799C48.915 84.4106 54.3026 82.3701 59.855 80.8899C70.795 78.0399 82.535 77.8899 93.295 81.5199C93.8116 79.5979 94.7321 77.8081 95.995 76.2699C96.235 75.9499 96.485 75.6499 96.745 75.3499C94.2568 73.8318 91.5059 72.7939 88.635 72.2899C85.9772 71.8696 83.2644 71.9476 80.635 72.5199C80.3654 72.8295 80.0747 73.1202 79.765 73.3899C74.275 78.2099 66.085 74.8999 62.765 68.9999C58.2242 68.9116 53.7581 70.1637 49.925 72.5999C42.085 77.5099 36.245 84.7599 29.565 90.9999C25.7312 94.7329 21.2828 97.7775 16.415 99.9999C20.4299 98.9561 24.3144 97.4633 27.995 95.5499Z" fill="#83CDCE"/>
<path d="M68.5552 53.1599C72.0155 52.1328 75.6855 52.0362 79.1952 52.8799C82.6977 53.582 86.0361 54.9391 89.0352 56.8799C92.04 58.9419 94.6995 61.4665 96.9152 64.3599C99.0152 66.9099 101.245 69.1899 104.215 70.4699C105.722 69.9567 107.295 69.6637 108.885 69.5999C110.642 69.5348 112.398 69.7337 114.095 70.1899C115.876 69.8531 117.574 69.1738 119.095 68.1899C121.967 66.1382 124.381 63.5128 126.185 60.4799C127.995 57.7099 129.585 54.8099 131.545 52.1499C133.249 49.8539 135.269 47.8104 137.545 46.0799C142.165 42.4362 147.8 40.3123 153.675 39.9999C159.045 39.8499 164.945 42.1899 166.955 47.5699C167.472 49.0686 167.669 50.6591 167.533 52.2387C167.397 53.8183 166.931 55.3517 166.165 56.7399C166.044 58.0788 165.602 59.3687 164.876 60.5002C164.15 61.6318 163.162 62.5716 161.995 63.2399C159.135 64.7199 155.255 64.2999 153.755 61.1599C152.755 59.0199 153.255 55.6299 155.755 54.8399C157.815 54.1999 160.505 55.7399 160.325 58.0499C160.325 58.1029 160.304 58.1538 160.267 58.1913C160.229 58.2288 160.178 58.2499 160.125 58.2499C160.072 58.2499 160.021 58.2288 159.984 58.1913C159.946 58.1538 159.925 58.1029 159.925 58.0499C159.884 57.4389 159.642 56.8587 159.237 56.3994C158.832 55.9401 158.286 55.6274 157.685 55.5099C154.775 54.7799 153.255 58.5099 155.065 60.5099C156.875 62.5099 160.245 62.0399 162.065 60.4499C163.015 59.5835 163.705 58.4699 164.058 57.2337C164.412 55.9974 164.414 54.6873 164.065 53.4499C163.65 52.1286 162.905 50.9348 161.901 49.9813C160.897 49.0277 159.666 48.3458 158.325 47.9999C152.225 46.3499 146.265 51.1899 144.915 56.9999C143.655 62.3699 146.785 67.4299 151.485 69.8699C153.83 71.0334 156.454 71.5162 159.06 71.2634C161.665 71.0106 164.148 70.0324 166.225 68.4399C168.442 66.8033 170.275 64.7027 171.596 62.2846C172.917 59.8666 173.695 57.1894 173.875 54.4399C174.209 48.7598 172.476 43.1509 168.995 38.6499C167.94 37.3046 166.732 36.0864 165.395 35.0199C162.546 32.9643 159.223 31.6638 155.735 31.2399C151.882 30.8133 147.985 31.4208 144.445 32.9999C141.54 34.3585 138.87 36.1712 136.535 38.3699C131.795 42.6599 127.855 47.7899 122.765 51.6999C111.215 60.5799 94.5652 59.5999 82.7652 51.5799C82.6774 51.663 82.5688 51.7208 82.4508 51.7472C82.3329 51.7736 82.21 51.7676 82.0952 51.7299C79.4452 50.9999 76.9952 49.9999 74.1752 50.2399C71.5954 50.4251 69.1425 51.4308 67.1752 53.1099C66.661 53.5603 66.1952 54.063 65.7852 54.6099C66.6379 54.0023 67.5699 53.5144 68.5552 53.1599Z" fill="#07244C"/>
<path d="M81.115 102.08C80.295 101.453 79.495 100.787 78.715 100.08C73.475 97.8199 67.715 96.4799 62.505 99.0799C62.235 99.2099 61.975 99.3499 61.705 99.4999C61.435 99.6499 61.305 99.7799 61.115 99.9399C58.955 101.66 56.975 103.53 54.835 105.19C58.1512 103.842 61.5437 102.69 64.995 101.74C69.6055 100.742 74.3733 100.715 78.995 101.66C79.725 101.78 80.425 101.93 81.115 102.08Z" fill="#83CDCE"/>
<path d="M74.2049 79.3699C62.3649 79.7299 50.9749 83.6699 40.6249 89.2299C32.1549 93.7799 23.6249 99.5199 13.9649 100.93C13.3349 101.13 12.7049 101.31 12.0649 101.47L12.8549 101.67C23.9149 104.22 33.9449 97.0699 43.3649 92.5099C48.0816 90.1476 53.1812 88.6441 58.4249 88.0699C63.6644 87.5614 68.9528 88.0776 73.9949 89.5899C79.2349 91.1599 83.8749 93.9699 88.5649 96.7099C93.2549 99.4499 98.4649 102.24 104.105 102.88C106.595 103.229 109.132 102.986 111.51 102.171C113.889 101.356 116.042 99.9923 117.795 98.1899C119.406 96.5088 120.606 94.4773 121.3 92.2547C121.994 90.0321 122.163 87.679 121.795 85.3799C121.404 83.0276 120.471 80.7985 119.071 78.8686C117.67 76.9388 115.84 75.361 113.725 74.2599C110.935 72.8954 107.804 72.3841 104.725 72.7899C100.285 74.3899 96.5449 77.9999 95.6149 82.7899C95.1797 85.4424 95.4311 88.1621 96.3449 90.6899C96.4983 91.1143 96.6786 91.5285 96.8849 91.9299C96.3141 89.7041 96.4647 87.3546 97.3149 85.2199C98.302 82.776 100.208 80.8165 102.623 79.762C105.039 78.7075 107.772 78.6421 110.235 79.5799C111.506 80.1028 112.627 80.9346 113.495 81.9999C114.692 83.0834 115.534 84.5039 115.908 86.0745C116.283 87.6452 116.174 89.2925 115.595 90.7999C115.027 92.3781 114.098 93.8019 112.883 94.9581C111.668 96.1142 110.199 96.9709 108.595 97.4599C105.48 98.4265 102.109 98.1246 99.2149 96.6199C96.3595 94.9407 94.2823 92.2023 93.4349 88.9999C92.7514 86.7859 92.6549 84.4324 93.1549 82.1699C87.0583 80.1037 80.6386 79.1551 74.2049 79.3699Z" fill="#02A0C7"/>
<path d="M84.7451 105.06L85.9651 105.3C88.1503 106.462 90.4447 107.407 92.8151 108.12C98.7081 109.982 105.013 110.107 110.975 108.48C113.065 108.35 115.165 108.36 117.305 108.42C121.446 108.595 125.575 108.986 129.675 109.59C133.765 110.13 137.845 110.66 141.935 110.9C146.269 111.367 150.648 111.202 154.935 110.41C155.485 110.3 156.025 110.17 156.575 110.03C158.278 109.741 159.951 109.299 161.575 108.71C162.575 108.34 163.515 107.9 164.455 107.43C166.831 106.857 169.243 106.449 171.675 106.21C175.582 105.815 179.518 105.815 183.425 106.21C192.315 107.05 201.335 109.21 210.235 107.21C214.315 106.32 218.775 104.48 221.615 101.3C221.985 100.89 221.505 100.16 220.995 100.49C220.508 100.805 219.989 101.067 219.445 101.27C219.416 101.26 219.384 101.26 219.355 101.27C219.125 101.37 218.895 101.44 218.665 101.53C215.335 102.43 211.395 101.45 208.495 99.9399C204.595 97.9399 201.615 94.5399 198.905 91.1499C196.195 87.7599 193.455 84.0099 190.325 80.7699C187.174 77.3699 183.493 74.5028 179.425 72.2799C176.179 70.4558 172.583 69.3381 168.875 68.9999C170.179 67.866 171.335 66.5725 172.315 65.1499C174.111 62.387 175.287 59.2676 175.762 56.0065C176.237 52.7455 175.999 49.4202 175.065 46.2599C173.199 39.7257 168.906 34.152 163.065 30.6799C157.035 27.1484 149.97 25.8062 143.065 26.8799C138.242 27.602 133.628 29.3477 129.535 31.9999C130.965 26.7999 129.365 20.8699 126.275 16.4999C122.336 11.0599 116.479 7.31846 109.887 6.03201C103.295 4.74555 96.4604 6.01007 90.7651 9.56988C84.987 13.1097 80.5884 18.5136 78.2951 24.8899C75.8033 32.061 76.067 39.9024 79.0351 46.8899C79.2451 47.3699 79.4751 47.8899 79.7051 48.3199C77.9273 47.7182 76.0467 47.4802 74.1751 47.6199C70.9755 47.7942 67.9205 49.0092 65.4751 51.0799C60.8351 55.0799 59.7351 62.0799 62.0351 67.5499C53.9051 66.8699 46.8951 71.8999 41.0351 77.0599C34.0351 83.2099 28.2351 90.8099 20.2251 95.7499C16.133 98.446 11.3902 99.9901 6.49509 100.22C6.27453 100.246 6.0688 100.344 5.91034 100.5C5.75187 100.655 5.64968 100.859 5.61989 101.079C5.59009 101.299 5.63438 101.523 5.74577 101.715C5.85716 101.907 6.02931 102.056 6.23509 102.14C7.67509 102.7 9.12509 103.26 10.5851 103.79C11.7351 104.42 12.9251 104.97 14.1051 105.49C16.4751 106.49 18.8851 107.49 21.3251 108.35C26.0779 110.02 31.0682 110.914 36.1051 111C40.7857 111.09 45.4319 110.183 49.7351 108.34L50.1251 108.14C54.0151 107.03 57.8151 105.57 61.7251 104.5C64.1654 103.773 66.6899 103.366 69.2351 103.29C71.5923 103.298 73.9468 103.452 76.2851 103.75C79.1051 104.12 81.9951 104.5 84.7451 105.06ZM63.1951 96.2699L62.7551 96.4399L62.5251 96.5399C60.5802 97.3053 58.7731 98.3827 57.1751 99.7299C55.3919 101.359 53.5118 102.878 51.5451 104.28C43.5451 109.39 33.3551 108.97 24.5451 106.49C21.7451 105.71 18.9784 104.813 16.2451 103.8C14.4151 103.12 12.5451 102.36 10.6451 101.8L11.3351 101.67C20.7751 105.25 31.2651 99.5299 39.5251 95.1799C44.6851 92.4199 49.9951 89.9999 55.7951 88.9999C61.556 88.0737 67.4496 88.415 73.0651 89.9999C78.7951 91.5999 83.7951 94.7099 88.8951 97.6599C93.7351 100.46 98.8951 103.03 104.515 103.53C106.953 103.807 109.422 103.537 111.743 102.742C114.064 101.946 116.179 100.644 117.935 98.9299C119.545 97.3305 120.788 95.4005 121.579 93.2733C122.37 91.1461 122.689 88.8726 122.515 86.6099C122.312 84.3235 121.625 82.1064 120.501 80.105C119.377 78.1036 117.841 76.3636 115.995 74.9999C113.694 73.3632 110.991 72.3848 108.175 72.1699C110.571 72.2678 112.926 72.821 115.115 73.7999C118.197 75.0733 120.922 77.0776 123.055 79.6399C127.655 85.4799 125.265 93.4499 121.165 98.8599C119.034 101.644 116.299 103.907 113.165 105.48L111.775 105.95C108.976 106.856 106.057 107.335 103.115 107.37C100.097 107.406 97.0878 107.023 94.1751 106.23L93.3251 105.97C89.9805 104.492 86.7456 102.778 83.6451 100.84C77.6451 97.3099 70.6451 93.8999 63.6451 96.1099L63.3251 96.2299L63.1951 96.2699ZM82.3451 64.6399C81.849 63.1586 80.8268 61.9109 79.4721 61.1331C78.1174 60.3553 76.5244 60.1015 74.9951 60.4199C71.6851 61.1899 69.7651 65.5799 71.9951 68.3599C73.7751 70.5699 77.8951 70.2099 78.9951 67.5099C79.0651 67.3399 78.7951 67.1899 78.6851 67.3299C78.3524 67.7383 77.9214 68.0555 77.4326 68.2518C76.9437 68.4481 76.413 68.517 75.8902 68.452C75.3675 68.387 74.8698 68.1903 74.4438 67.8804C74.0179 67.5704 73.6777 67.1573 73.4551 66.6799C73.2549 66.171 73.175 65.6228 73.2215 65.078C73.268 64.5332 73.4398 64.0065 73.7234 63.539C74.007 63.0714 74.3948 62.6758 74.8565 62.3828C75.3182 62.0898 75.8413 61.9074 76.3851 61.8499C79.3851 61.5499 81.4451 64.1599 81.3851 66.9899C81.2761 68.3435 80.7701 69.6348 79.9305 70.7021C79.0908 71.7694 77.955 72.5652 76.6651 72.9899C71.3951 74.9899 65.7551 71.4799 63.9651 66.3799C63.3843 64.7121 63.1477 62.9439 63.2698 61.1821C63.3918 59.4204 63.8699 57.7016 64.6751 56.1299C65.9219 54.9508 67.4346 54.0898 69.0851 53.6199C72.6687 52.7086 76.427 52.7396 79.9951 53.7099C83.3701 54.5024 86.5679 55.9165 89.4251 57.8799C92.3222 60.0637 94.9062 62.6343 97.1051 65.5199C98.7951 67.5199 100.805 69.7199 103.255 70.8299C100.993 71.7486 98.9491 73.1317 97.2551 74.8899C94.9108 73.3184 92.2661 72.2503 89.4881 71.7528C86.71 71.2554 83.859 71.3395 81.1151 71.9999C81.8944 70.9612 82.4128 69.7505 82.6269 68.4697C82.8409 67.189 82.7443 65.8755 82.3451 64.6399ZM166.165 54.8599C165.98 53.4613 165.487 52.1211 164.723 50.9351C163.959 49.7492 162.942 48.7468 161.745 47.9999C160.359 47.1077 158.79 46.5384 157.154 46.3342C155.519 46.13 153.858 46.2959 152.295 46.8199C149.585 47.7577 147.231 49.5101 145.556 51.8373C143.88 54.1644 142.965 56.9525 142.935 59.8199C141.781 63.8892 139.541 67.5674 136.455 70.4599C132.405 73.9699 127.025 74.8499 121.835 74.2999C119.914 72.651 117.694 71.388 115.295 70.5799C118.259 69.729 120.926 68.0664 122.995 65.7799C127.215 61.3199 129.495 55.4599 133.475 50.7799C137.191 46.4636 142.072 43.3109 147.535 41.6999C153.185 40.0399 160.095 39.8899 164.385 44.5799C165.51 45.8705 166.284 47.4282 166.634 49.1038C166.985 50.7794 166.899 52.5169 166.385 54.1499C166.325 54.4299 166.235 54.6399 166.165 54.8599ZM150.165 99.2399C152.907 100.853 156.148 101.394 159.265 100.76C159.425 100.76 159.575 100.67 159.725 100.63C159.315 100.92 158.905 101.2 158.465 101.46C156.587 102.58 154.525 103.359 152.375 103.76C150.077 104.209 147.708 104.132 145.444 103.535C143.181 102.937 141.082 101.835 139.305 100.31C137.671 98.869 136.434 97.033 135.713 94.9775C134.992 92.922 134.81 90.7158 135.185 88.5699C136.015 84.4399 138.935 80.9599 142.395 78.6899C144.417 77.4015 146.603 76.3923 148.895 75.6899C146.548 77.3339 144.766 79.6637 143.795 82.3599C142.723 85.4781 142.776 88.8731 143.945 91.9563C145.114 95.0394 147.325 97.6162 150.195 99.2399H150.165ZM150.085 74.9999C147.499 75.6479 145.018 76.6579 142.715 77.9999C139.035 80.1899 135.855 83.6499 134.775 87.8699C134.277 90.003 134.317 92.2263 134.892 94.3401C135.466 96.4539 136.556 98.3919 138.065 99.9799C139.704 101.662 141.699 102.955 143.904 103.763C146.109 104.572 148.467 104.875 150.805 104.65C153.354 104.435 155.832 103.7 158.085 102.49C159.564 101.712 160.941 100.755 162.185 99.6399C163.816 98.6459 165.05 97.1149 165.675 95.3099C167.565 89.6799 162.675 81.8999 156.195 83.6899C153.375 84.4699 151.285 87.1999 152.195 90.1299C152.975 92.5599 155.275 94.3699 157.845 93.1299C158.357 92.8994 158.806 92.5493 159.154 92.109C159.502 91.6686 159.739 91.1511 159.845 90.5999C159.858 90.5508 159.852 90.4985 159.826 90.4544C159.801 90.4104 159.759 90.3781 159.71 90.3649C159.661 90.3516 159.609 90.3584 159.565 90.3837C159.521 90.409 159.488 90.4508 159.475 90.4999C159.223 91.0798 158.804 91.5722 158.273 91.9153C157.742 92.2584 157.121 92.4369 156.488 92.4284C155.856 92.4198 155.24 92.2246 154.718 91.8673C154.196 91.51 153.792 91.0064 153.555 90.4199C152.555 87.8099 155.115 85.3099 157.555 85.0799C160.455 84.8099 163.235 87.0799 164.215 89.6499C164.735 90.8704 164.887 92.2162 164.652 93.5219C164.418 94.8277 163.807 96.0365 162.895 96.9999C161.005 98.7799 157.975 99.2499 155.475 98.8999C152.812 98.5152 150.35 97.2599 148.475 95.3299C146.518 93.2677 145.353 90.5806 145.185 87.7428C145.016 84.905 145.856 82.0989 147.555 79.8199C149.123 77.8905 151.2 76.4389 153.551 75.6294C155.901 74.8199 158.432 74.685 160.855 75.2399C163.333 75.9091 165.598 77.2028 167.432 78.9975C169.267 80.7921 170.611 83.0275 171.335 85.4899C172.054 88.1899 172.104 91.0245 171.48 93.7482C170.857 96.4718 169.578 99.0022 167.755 101.12C166.983 102.029 166.125 102.863 165.195 103.61L164.755 103.99C162.954 105.35 160.967 106.445 158.855 107.24C157.855 107.5 156.755 107.77 155.695 107.97C151.628 108.731 147.489 109.029 143.355 108.86C138.785 108.69 134.265 108.04 129.725 107.48C130.794 105.512 131.537 103.385 131.925 101.18C132.428 98.737 132.563 96.2326 132.325 93.7499C131.865 89.146 130.103 84.7685 127.245 81.1299C126.945 80.7499 126.635 80.3999 126.315 80.0399C125.995 79.6799 125.905 79.2399 125.675 78.8499C124.858 77.4891 123.87 76.2389 122.735 75.1299C124.281 75.2516 125.834 75.2282 127.375 75.0599C130.489 74.746 133.464 73.6106 135.995 71.7699C138.224 70.048 140.058 67.8693 141.375 65.3799C142.014 64.1907 142.559 62.9537 143.005 61.6799C143.005 62.0199 143.105 62.3599 143.175 62.6799C144.385 68.1499 149.415 72.0199 154.735 73.1299C153.096 73.5051 151.527 74.1362 150.085 74.9999ZM173.835 87.6599C175.025 87.9599 176.245 88.1699 177.415 88.5099C178.919 88.9318 180.401 89.4291 181.855 89.9999C184.855 91.2399 187.855 92.7499 190.755 94.2899C196.485 97.2899 202.245 100.47 208.615 101.94H208.815C209.962 102.359 211.139 102.693 212.335 102.94C206.335 103.59 200.275 102.41 194.335 101.11C186.715 99.4399 178.625 97.7099 171.005 100.33L170.815 100.4C170.887 100.304 170.954 100.204 171.015 100.1C173.332 96.3717 174.325 91.9718 173.835 87.6099V87.6599ZM199.665 98.2399C193.915 95.6299 188.525 92.2399 182.665 89.8299C181.094 89.1301 179.485 88.5192 177.845 87.9999C176.519 87.5616 175.152 87.2568 173.765 87.0899C173.489 85.2402 172.908 83.4491 172.045 81.7899C171.059 79.9002 169.738 78.2059 168.145 76.7899C172.011 76.6863 175.84 77.5527 179.285 79.3099C183.028 81.3689 186.454 83.9591 189.455 86.9999C194.525 91.7899 199.325 97.1999 205.525 100.52C203.527 99.8609 201.57 99.0829 199.665 98.1899V98.2399ZM118.105 106.64C117.565 106.64 117.025 106.64 116.485 106.64C116.85 106.498 117.207 106.338 117.555 106.16C120.67 104.571 123.306 102.182 125.195 99.2399C126.854 96.6133 127.879 93.6374 128.192 90.5468C128.504 87.4562 128.095 84.3352 126.995 81.4299C128.92 83.9044 130.337 86.735 131.164 89.7588C131.991 92.7827 132.212 95.9402 131.815 99.0499C131.622 100.594 131.287 102.117 130.815 103.6C130.385 104.92 129.755 106.13 129.205 107.39C125.525 106.895 121.818 106.628 118.105 106.59V106.64ZM109.105 89.7599C105.595 90.6799 102.815 86.3899 104.775 83.4599C105.223 82.8267 105.807 82.3023 106.484 81.9254C107.162 81.5486 107.916 81.329 108.69 81.2829C109.464 81.2368 110.238 81.3654 110.956 81.6592C111.673 81.9529 112.316 82.4043 112.835 82.9799C115.185 85.4299 114.975 89.1699 113.145 91.8599C112.291 93.0221 111.188 93.9783 109.916 94.6584C108.644 95.3384 107.236 95.7251 105.795 95.7899C103.027 95.9657 100.297 95.0746 98.1651 93.2999C97.9557 93.1271 97.7554 92.9435 97.5651 92.7499C96.4651 88.2899 97.6351 83.1899 101.885 80.7499C103.246 79.9585 104.784 79.5243 106.358 79.4876C107.932 79.4509 109.489 79.8129 110.885 80.5399C109.853 80.2362 108.757 80.2229 107.718 80.5017C106.679 80.7805 105.737 81.3404 104.995 82.1199C104.496 82.6093 104.109 83.2011 103.86 83.8545C103.611 84.508 103.507 85.2075 103.555 85.905C103.602 86.6026 103.8 87.2815 104.135 87.8952C104.47 88.5089 104.934 89.0427 105.495 89.4599C106.015 89.8794 106.624 90.1748 107.276 90.3238C107.927 90.4729 108.604 90.4715 109.255 90.3199C109.336 90.2934 109.403 90.2358 109.441 90.1598C109.48 90.0839 109.487 89.9958 109.46 89.9149C109.434 89.834 109.376 89.767 109.3 89.7285C109.224 89.6901 109.136 89.6834 109.055 89.7099L109.105 89.7599ZM93.4351 88.9999C94.2824 92.2023 96.3596 94.9407 99.2151 96.6199C102.109 98.1246 105.48 98.4265 108.595 97.4599C110.2 96.9709 111.668 96.1142 112.883 94.9581C114.098 93.8019 115.027 92.3781 115.595 90.7999C116.174 89.2925 116.283 87.6452 115.909 86.0745C115.534 84.5039 114.692 83.0834 113.495 81.9999C112.626 80.9259 111.502 80.087 110.225 79.5599C107.762 78.6221 105.029 78.6875 102.614 79.742C100.198 80.7965 98.2921 82.756 97.3051 85.1999C96.4549 87.3346 96.3043 89.6841 96.8751 91.9099C96.6688 91.5085 96.4884 91.0943 96.3351 90.6699C95.4212 88.1421 95.1699 85.4223 95.6051 82.7699C96.5351 78.0199 100.275 74.4099 104.715 72.7699C107.794 72.3641 110.925 72.8754 113.715 74.2399C115.83 75.341 117.66 76.9187 119.061 78.8486C120.461 80.7785 121.394 83.0076 121.785 85.3599C122.153 87.659 121.984 90.0121 121.29 92.2347C120.596 94.4573 119.396 96.4888 117.785 98.1699C116.032 99.9723 113.879 101.336 111.501 102.151C109.122 102.966 106.585 103.209 104.095 102.86C98.4551 102.22 93.3851 99.5199 88.5551 96.6899C83.7251 93.8599 79.1951 91.1599 73.9951 89.5899C68.9656 88.0828 63.6913 87.5666 58.4651 88.0699C53.2213 88.6441 48.1217 90.1476 43.4051 92.5099C33.9851 97.0699 23.9551 104.22 12.8951 101.67L12.1051 101.47C12.7451 101.31 13.3751 101.13 14.0051 100.93C23.6251 99.5199 32.1951 93.7799 40.6651 89.2299C51.0151 83.6699 62.4051 79.7299 74.2451 79.3699C80.6943 79.1426 87.1314 80.0845 93.2451 82.1499C92.7123 84.411 92.7778 86.7718 93.4351 88.9999ZM210.375 105.17C206.255 105.919 202.05 106.081 197.885 105.65C189.325 104.92 180.885 103.07 172.235 104.1C170.268 104.323 168.326 104.732 166.435 105.32C167.896 104.169 169.191 102.823 170.285 101.32C173.927 100.005 177.802 99.4607 181.665 99.7199C190.145 100.19 198.225 103.35 206.715 103.82C209.315 103.992 211.927 103.828 214.485 103.33C215.152 103.378 215.822 103.358 216.485 103.27C216.315 103.35 216.165 103.44 215.995 103.51C214.183 104.248 212.3 104.798 210.375 105.15V105.17ZM171.705 71.5199C173.992 72.0498 176.206 72.8592 178.295 73.9299C182.461 76.1572 186.229 79.0599 189.445 82.5199C192.635 85.8299 195.385 89.5199 198.355 92.9699C200.859 96.142 203.953 98.8007 207.465 100.8C204.056 99.1665 200.909 97.0367 198.125 94.4799C192.005 89.0799 186.745 82.4799 179.285 78.7799C175.775 77.0599 171.725 75.9499 167.805 76.5599C165.841 74.8913 163.506 73.7185 160.995 73.1399C163.027 72.6833 164.959 71.8598 166.695 70.7099C168.378 70.8961 170.05 71.1665 171.705 71.5199ZM96.8851 31.8999C97.5751 38.5999 103.885 42.5099 110.085 43.3499C114.528 43.9296 119.035 42.9582 122.845 40.5999C119.885 44.3589 115.838 47.114 111.255 48.4899C107.548 49.6206 103.596 49.6807 99.8559 48.6634C96.1157 47.6461 92.7391 45.5927 90.1151 42.7399C87.6574 40.0216 86.0997 36.6103 85.6551 32.9728C85.2104 29.3353 85.9006 25.6493 87.6312 22.419C89.3618 19.1888 92.0482 16.5723 95.3229 14.9274C98.5976 13.2825 102.301 12.6896 105.925 13.2299C110.145 13.8299 114.515 16.0199 116.645 19.8499C117.465 21.2666 117.86 22.8895 117.782 24.5246C117.704 26.1597 117.156 27.7377 116.205 29.0699C118.295 24.1199 114.265 17.7399 108.845 17.3399C105.415 17.0899 102.175 19.1599 100.095 21.7599C97.7519 24.5964 96.6011 28.2317 96.8851 31.8999ZM82.2751 48.6699C81.9151 47.8799 81.5851 47.0799 81.2751 46.2599C80.7352 44.772 80.2746 43.2565 79.8951 41.7199C79.1841 38.6064 78.9748 35.3994 79.2751 32.2199C79.8087 26.2466 82.3094 20.6192 86.3851 16.2199C90.2199 12.0683 95.2905 9.26296 100.845 8.21988C106.484 7.28164 112.274 8.32022 117.235 11.1599C119.812 12.5724 122.064 14.51 123.845 16.8475C125.626 19.1851 126.897 21.8704 127.575 24.7299C128.282 27.7718 127.87 30.9666 126.415 33.7299C126.01 34.4427 125.535 35.1127 124.995 35.7299C124.865 35.8599 124.705 35.9899 124.575 36.1299L124.205 36.5499C123.145 37.537 121.946 38.3626 120.645 38.9999C115.995 41.3999 109.785 41.8499 104.995 39.4999C102.673 38.4477 100.796 36.6098 99.6951 34.3099C99.1342 32.833 98.9035 31.2512 99.0193 29.6756C99.135 28.1001 99.5944 26.5689 100.365 25.1899C100.993 23.8832 101.876 22.7159 102.964 21.7574C104.051 20.7988 105.32 20.0685 106.695 19.6099C108 19.2188 109.39 19.2067 110.702 19.5749C112.014 19.9432 113.194 20.6767 114.105 21.6899C115.092 22.7574 115.696 24.1223 115.822 25.5703C115.949 27.0182 115.591 28.4673 114.805 29.6899C114.398 30.3235 113.827 30.8349 113.153 31.1696C112.478 31.5042 111.726 31.6494 110.975 31.5899C110.312 31.5511 109.676 31.3098 109.154 30.8985C108.632 30.4873 108.248 29.9258 108.055 29.2899C107.899 28.6253 107.998 27.9263 108.334 27.3317C108.669 26.737 109.216 26.2902 109.865 26.0799C110.005 26.0799 109.985 25.7899 109.865 25.8099C107.465 26.1099 106.255 29.4599 107.775 31.2999C109.845 33.7899 113.515 33.0099 115.315 30.6799L115.425 30.5199C116.56 29.5336 117.408 28.2604 117.881 26.8335C118.355 25.4066 118.435 23.8787 118.115 22.4099C117.275 18.4099 114.035 15.5199 110.415 13.9799C106.893 12.4865 102.991 12.1339 99.2584 12.9716C95.5255 13.8093 92.1488 15.7952 89.6025 18.6505C87.0561 21.5057 85.4681 25.0869 85.0615 28.8909C84.6548 32.695 85.4499 36.5309 87.3351 39.8599C89.3612 43.2904 92.3378 46.0605 95.9049 47.8351C99.472 49.6098 103.477 50.3131 107.435 49.8599C110.891 49.443 114.217 48.2856 117.185 46.4666C120.153 44.6477 122.694 42.2101 124.635 39.3199C125.694 38.4611 126.641 37.4735 127.455 36.3799L127.715 35.9799L129.095 35.0599C131.567 33.4138 134.217 32.0519 136.995 30.9999C142.541 28.9445 148.562 28.5347 154.335 29.8199C155.926 30.1764 157.485 30.6647 158.995 31.2799C155.843 30.4109 152.541 30.2345 149.315 30.7627C146.089 31.2909 143.015 32.5112 140.305 34.3399C134.885 37.9399 130.805 43.1399 126.125 47.5999C123.708 49.9888 120.972 52.0315 117.995 53.6699C114.435 55.504 110.547 56.6154 106.555 56.9399C102.176 57.2932 97.7685 56.8356 93.5551 55.5899C89.8609 54.4484 86.3134 52.8777 82.9851 50.9099C82.9668 50.7416 82.9009 50.582 82.7951 50.4499L82.7451 50.3999C82.6334 49.8119 82.4763 49.2335 82.2751 48.6699ZM67.1451 53.1099C69.1124 51.4308 71.5653 50.4251 74.1451 50.2399C76.9951 49.9999 79.4451 50.9999 82.1251 51.7099C82.2399 51.7476 82.3628 51.7536 82.4808 51.7272C82.5987 51.7008 82.7073 51.643 82.7951 51.5599C94.5651 59.5599 111.215 60.5599 122.795 51.6799C127.885 47.7699 131.795 42.6799 136.565 38.3499C138.892 36.161 141.552 34.3552 144.445 32.9999C147.984 31.4294 151.877 30.8288 155.725 31.2599C159.209 31.672 162.532 32.9585 165.385 34.9999C166.722 36.0664 167.93 37.2846 168.985 38.6299C172.469 43.1295 174.206 48.7386 173.875 54.4199C173.695 57.1695 172.917 59.8466 171.596 62.2647C170.275 64.6827 168.442 66.7833 166.225 68.4199C164.148 70.0124 161.665 70.9906 159.06 71.2434C156.454 71.4962 153.83 71.0134 151.485 69.8499C146.785 67.4099 143.655 62.3499 144.915 56.9799C146.265 51.2099 152.225 46.3699 158.325 47.9799C159.67 48.3228 160.905 49.0034 161.913 49.9571C162.921 50.9109 163.668 52.1062 164.085 53.4299C164.434 54.6674 164.432 55.9775 164.078 57.2137C163.725 58.4499 163.035 59.5635 162.085 60.4299C160.295 62.0199 156.845 62.4299 155.085 60.4899C153.325 58.5499 154.795 54.7599 157.705 55.4899C158.318 55.5984 158.877 55.9097 159.293 56.3739C159.708 56.8381 159.955 57.4283 159.995 58.0499C159.995 58.1029 160.016 58.1538 160.054 58.1913C160.091 58.2288 160.142 58.2499 160.195 58.2499C160.248 58.2499 160.299 58.2288 160.337 58.1913C160.374 58.1538 160.395 58.1029 160.395 58.0499C160.575 55.7399 157.885 54.1999 155.825 54.8399C153.285 55.6299 152.775 59.0199 153.825 61.1599C155.325 64.2999 159.205 64.7199 162.065 63.2399C163.237 62.573 164.229 61.6327 164.959 60.4991C165.689 59.3656 166.133 58.0724 166.255 56.7299C167.021 55.3417 167.487 53.8083 167.623 52.2287C167.759 50.6491 167.562 49.0586 167.045 47.5599C165.045 42.1799 159.135 39.8399 153.765 39.9899C147.863 40.2831 142.198 42.4044 137.555 46.0599C135.279 47.7904 133.259 49.8339 131.555 52.1299C129.555 54.7899 128.005 57.6899 126.195 60.4599C124.391 63.4928 121.976 66.1182 119.105 68.1699C117.584 69.1538 115.885 69.8331 114.105 70.1699C112.408 69.7137 110.651 69.5149 108.895 69.5799C107.305 69.6437 105.732 69.9367 104.225 70.4499C101.225 69.1699 99.0251 66.8899 96.9251 64.3399C94.6928 61.4496 92.0162 58.9317 88.9951 56.8799C85.9961 54.9392 82.6576 53.5821 79.1551 52.8799C75.6455 52.0362 71.9755 52.1328 68.5151 53.1599C67.5194 53.5119 66.5772 53.9998 65.7151 54.6099C66.1377 54.061 66.617 53.5582 67.1451 53.1099ZM29.5651 90.9999C36.2451 84.7599 42.0851 77.5099 49.9251 72.6399C53.7537 70.1897 58.2202 68.9235 62.7651 68.9999C66.0851 74.8599 74.2751 78.1699 79.8551 73.3499C80.1648 73.0802 80.4554 72.7895 80.7251 72.4799C83.3544 71.9076 86.0673 71.8296 88.7251 72.2499C91.596 72.7539 94.3469 73.7918 96.8351 75.3099C96.5751 75.6099 96.3251 75.9099 96.0851 76.2299C94.8114 77.7654 93.8806 79.5554 93.3551 81.4799C82.5951 77.7999 70.8551 77.9999 59.9151 80.8499C54.3433 82.3461 48.9387 84.4068 43.7851 86.9999C38.4151 89.6299 33.3451 92.8399 27.9951 95.5499C24.3144 97.4633 20.4299 98.9561 16.4151 99.9999C21.2828 97.7775 25.7313 94.7329 29.5651 90.9999ZM64.9951 101.74C61.5434 102.697 58.1509 103.855 54.8351 105.21C56.9951 103.55 58.9951 101.68 61.1151 99.9999C61.3051 99.8399 61.5051 99.6999 61.7051 99.5599C61.9051 99.4199 62.2351 99.2699 62.5051 99.1399C67.7351 96.5699 73.5051 97.9099 78.7151 100.14C79.4951 100.807 80.2951 101.473 81.1151 102.14C80.4251 101.99 79.7251 101.84 79.0151 101.72C74.3911 100.752 69.6163 100.759 64.9951 101.74Z" fill="#EDA04C"/>
</svg>
