<svg width="42" height="42" viewBox="0 0 42 42" fill="none" xmlns="http://www.w3.org/2000/svg">
<path d="M17.5 33.2499C17.0911 33.2507 16.6949 33.1083 16.38 32.8474C16.2028 32.7005 16.0563 32.5201 15.949 32.3165C15.8416 32.1129 15.7755 31.8901 15.7543 31.6609C15.7332 31.4316 15.7575 31.2005 15.8258 30.9807C15.8942 30.7609 16.0052 30.5567 16.1525 30.3799L23.9925 20.9999L16.4325 11.6024C16.2872 11.4234 16.1786 11.2174 16.1131 10.9963C16.0476 10.7752 16.0264 10.5434 16.0508 10.3141C16.0752 10.0848 16.1447 9.86256 16.2552 9.6602C16.3658 9.45783 16.5153 9.27931 16.695 9.1349C16.8761 8.97558 17.0881 8.85541 17.3178 8.78193C17.5476 8.70845 17.79 8.68325 18.0299 8.70789C18.2698 8.73254 18.502 8.80651 18.712 8.92517C18.922 9.04382 19.1051 9.20459 19.25 9.3974L27.7025 19.8974C27.9599 20.2105 28.1006 20.6033 28.1006 21.0086C28.1006 21.414 27.9599 21.8068 27.7025 22.1199L18.9525 32.6199C18.777 32.8317 18.554 32.9991 18.3016 33.1086C18.0492 33.218 17.7746 33.2664 17.5 33.2499Z" fill="#FCAB27"/>
</svg>
