<svg width="42" height="42" viewBox="0 0 42 42" fill="none" xmlns="http://www.w3.org/2000/svg">
<rect width="42" height="42" transform="matrix(-1 0 0 1 42 0)" fill="white"/>
<path d="M24.5 33.2499C24.9089 33.2507 25.3051 33.1083 25.62 32.8474C25.7972 32.7005 25.9437 32.5201 26.051 32.3165C26.1584 32.1129 26.2245 31.8901 26.2457 31.6609C26.2668 31.4316 26.2425 31.2005 26.1742 30.9807C26.1058 30.7609 25.9948 30.5567 25.8475 30.3799L18.0075 20.9999L25.5675 11.6024C25.7128 11.4234 25.8214 11.2174 25.8869 10.9963C25.9524 10.7752 25.9736 10.5434 25.9492 10.3141C25.9248 10.0848 25.8553 9.86256 25.7448 9.6602C25.6342 9.45783 25.4847 9.27931 25.305 9.1349C25.1239 8.97558 24.9119 8.85541 24.6822 8.78193C24.4524 8.70845 24.21 8.68325 23.9701 8.70789C23.7302 8.73254 23.498 8.80651 23.288 8.92517C23.078 9.04382 22.8949 9.20459 22.75 9.3974L14.2975 19.8974C14.0401 20.2105 13.8994 20.6033 13.8994 21.0086C13.8994 21.414 14.0401 21.8068 14.2975 22.1199L23.0475 32.6199C23.223 32.8317 23.446 32.9991 23.6984 33.1086C23.9508 33.218 24.2254 33.2664 24.5 33.2499Z" fill="#FCAB27"/>
</svg>
