<svg width="675" height="72" viewBox="0 0 675 72" fill="none" xmlns="http://www.w3.org/2000/svg">
<path d="M363.418 73.0276C363.507 72.6362 362.796 71.9063 363.871 71.9275C363.834 72.3453 363.887 72.7949 363.418 73.0276Z" fill="#235DAB"/>
<path d="M314.828 71.3776L315.498 70.8487C315.377 71.1396 315.25 71.4464 314.828 71.3776Z" fill="#235DAB"/>
<path d="M674.789 55.9849C668.818 56.9053 662.793 57.5717 656.869 58.8094C650.503 60.1476 645.316 63.8661 640.931 68.5471C634.854 75.0266 629.062 81.7704 623.011 88.2922C617.214 94.5283 610.742 99.8706 602.957 103.441C590.514 109.137 578.086 108.006 565.679 103.245C557.141 99.9711 549.309 95.3111 541.271 91.0109C533.234 86.7107 525.069 82.6485 515.809 81.6223C515.203 81.5536 514.586 81.4901 513.986 81.3685C508.947 80.3529 504.984 81.4795 500.809 85.071C493.404 91.4182 484.081 92.1852 474.657 91.1167C465.233 90.0483 456.21 86.9805 446.913 85.3355C442.691 84.5176 438.401 84.1014 434.1 84.0925C429.083 84.1559 424.371 85.2614 420.255 88.3239C419.548 88.841 418.815 89.3195 418.057 89.7573C414.009 92.127 410.778 90.958 409.145 86.4885C407.769 82.7331 408.022 78.8878 408.617 75.016C409.988 65.7067 413.888 57.9102 421.999 52.7267C426.142 50.0926 430.348 47.5626 434.617 45.1365C443.182 40.2439 449.706 33.5317 453.918 24.5081C456.696 18.5309 460.05 12.8406 463.932 7.51873C471.642 -3.01234 482.236 -7.93143 494.891 -9.07392C501.531 -9.67691 508.188 -10.1635 514.813 -10.8882C525.423 -12.0465 534.525 -16.7382 542.747 -23.3075C547.074 -26.7562 551.375 -30.2471 555.712 -33.6905C569.858 -44.9145 584.979 -46.094 600.902 -37.922C602.773 -36.9593 603.764 -37.1815 605.382 -38.5197C618.21 -49.1618 632.356 -49.5321 647.019 -43.1796C655.33 -39.5881 662.113 -33.6588 668.955 -27.8405C670.815 -26.2537 672.523 -24.4712 674.752 -23.3763V-17.558C673.25 -18.6159 671.69 -19.6103 670.251 -20.7316C663.995 -25.693 658.171 -31.1886 651.409 -35.5418C641.985 -41.5716 631.84 -44.285 620.84 -41.5663C607.906 -38.3663 598.324 -26.936 596.775 -13.5328C595.884 -5.858 597.302 1.04986 603.748 6.11176C607.422 9.01534 611.812 10.8668 616.45 11.4699C626.516 12.8134 632.751 7.14318 631.539 -2.09729C630.875 -7.19092 626.938 -10.2799 622.542 -9.16913C622.015 -9.0316 621.235 -9.4865 620.961 -8.59789H621.003C620.476 -8.93641 620.013 -8.59788 619.517 -8.57143C616.834 -8.35986 616.033 -9.41773 616.813 -12.147C618.395 -13.2049 620.223 -13.5963 622.084 -13.9242C629.61 -13.8713 633.99 -11.306 635.397 -5.03815C636.177 -1.56306 637.463 -0.536934 640.894 -0.547516C644.932 -0.547516 648.305 1.84856 651.657 3.91669C657.191 7.3336 663.046 9.60273 669.671 9.54455C671.39 9.54455 673.192 9.54455 674.779 10.486V15.2465C668.053 21.1229 660.654 25.5131 651.52 26.4598C644.982 27.1978 638.656 29.2389 632.915 32.4632C625.726 36.3879 619.807 41.8518 614.131 47.6225C605.071 56.8418 594.24 61.8191 581.237 61.544C569.729 61.2679 558.439 58.334 548.244 52.97C539.4 48.4106 530.177 44.9408 520.31 43.4492C514.597 42.5976 508.863 41.6879 502.754 42.9203C506.243 45.9458 508.383 49.5478 510.307 53.298C510.976 55.9426 511.825 58.4921 512.025 61.232C511.937 63.1573 511.851 65.0826 511.767 67.0079C510.987 69.6896 510.518 72.4771 509.211 74.9842C508.562 76.2219 509.131 76.5287 510.265 76.534C521.934 76.5922 532.306 80.8977 542.367 86.3087C549.862 90.3445 557.193 94.6976 565.062 97.9875C575.255 102.219 585.675 104.308 596.559 100.891C604.797 98.3049 611.485 93.2536 617.556 87.2555C623.881 81.0088 629.32 73.9581 635.397 67.4893C641.326 61.1791 647.92 55.821 656.653 54.0861C662.646 52.8907 668.733 52.1502 674.779 51.2034L674.789 55.9849ZM604.781 12.4854L600.037 9.31182L595.984 5.03275C594.962 2.72659 593.966 0.711349 590.714 1.00755C585.256 1.41418 580.053 3.4828 575.798 6.93691C572.731 9.42819 569.769 12.0517 566.707 14.5536C560.429 19.6842 554.026 24.6033 545.899 26.5075C539.922 27.9038 533.845 27.4807 527.815 27.359C519.282 27.1845 513.517 32.0507 507.903 37.3083C507.952 37.5231 508.084 37.7098 508.27 37.8277C508.455 37.9456 508.68 37.9852 508.894 37.9377C523.125 38.1017 536.375 41.873 548.992 48.3048C555.649 51.7006 562.559 54.4299 569.964 55.8104C583.14 58.2699 595.668 57.4607 606.504 48.4053C609.197 46.1521 611.775 43.7507 614.247 41.2488C625.146 30.1412 637.964 23.1276 653.633 21.5196C659.215 20.9431 663.953 18.0392 668.986 14.1674C660.406 13.8289 653.623 10.5231 647.087 6.50846C645.746 5.6739 644.318 4.98927 642.829 4.46678C637.505 2.63667 636.562 3.12329 634.733 8.33858C633.479 9.74907 632.228 11.1596 630.98 12.57C627.718 14.617 624.087 15.5638 620.355 16.2091C614.758 16.5688 609.746 14.6488 604.781 12.4854ZM592.132 -14.3157L593.713 -20.5994L596.422 -27.5284C597.241 -28.9768 598.149 -30.3724 599.141 -31.707C600.195 -32.9659 599.668 -33.4049 598.519 -33.9867C586.223 -40.0853 574.185 -40.5666 562.369 -32.6591C556.951 -29.0306 552.033 -24.778 546.984 -20.6893C538.383 -13.7338 529.012 -8.41275 517.949 -6.61966C510.164 -5.35551 502.269 -5.17567 494.437 -4.35583C482.789 -3.13399 473.418 1.81683 466.662 11.6286C463.295 16.5725 460.314 21.7697 457.744 27.1739C453.684 35.8482 447.105 43.0872 438.87 47.9398C435.017 50.2248 431.181 52.5363 427.307 54.7843C421.072 58.3969 416.392 63.2472 414.368 70.3984C413.182 74.5928 412.465 78.819 413.003 83.1563C413.371 86.1236 414.452 86.8588 416.36 85.3513C424.708 78.8401 434.201 78.9195 443.967 80.1942C453.016 81.379 461.718 84.2194 470.673 85.8274C479.01 87.3242 487.296 87.6046 495.064 83.5C503.334 79.1046 507.603 71.7736 507.434 62.6231C507.26 53.2504 502.322 46.2843 493.562 42.5606C485.535 39.149 477.914 42.3755 475.353 50.0714C473.366 56.0378 475.084 61.9354 480.307 62.2369C481.936 62.4062 483.569 62.5384 485.019 63.4218C485.852 66.0982 485.319 66.8545 482.384 67.1243C473.83 66.1563 470.567 62.9986 470.119 55.2656C469.518 44.798 477.498 36.5625 487.897 36.7846C492.313 36.8798 496.213 38.4667 500.019 40.7146C500.272 38.5301 501.426 37.1126 502.759 35.8061C509.01 29.6758 515.567 24.0532 524.648 22.6674L540.813 22.5775C546.452 22.4188 551.275 20.0174 555.855 17.0025C561.004 13.6121 565.6 9.5181 570.254 5.50878C576.241 0.351681 582.755 -3.54656 591.009 -3.33499C591.857 -3.30854 592.458 -3.26094 592.195 -4.60443C591.61 -7.7939 592.052 -11.068 592.11 -14.3157H592.132Z" fill="#FFF3E0"/>
<path d="M510.306 53.3424C508.382 49.5922 506.242 45.9902 502.753 42.9647C508.861 41.7164 514.596 42.6262 520.309 43.4936C530.186 44.9641 539.409 48.4339 548.243 53.0144C558.438 58.3784 569.728 61.3123 581.236 61.5885C594.239 61.8635 605.069 56.8862 614.129 47.6669C619.806 41.8963 625.725 36.4324 632.914 32.5077C638.655 29.2833 644.98 27.2422 651.518 26.5043C660.652 25.5575 668.052 21.1673 674.777 15.2909V27.9853C670.271 29.8154 665.506 30.503 660.737 31.1589C651.128 32.4495 642.179 35.3534 634.294 41.2721C626.615 47.0375 620.122 54.0829 613.075 60.5359C607.605 65.5396 601.818 70.1254 594.676 72.4527C582.401 76.4568 570.521 74.907 558.921 69.5859C551.11 66.0103 543.404 62.2126 535.304 59.2823C527.203 56.352 518.617 55.4105 510.306 53.3424Z" fill="#235CAB"/>
<path d="M674.79 51.2242C668.744 52.171 662.667 52.9115 656.664 54.1069C647.931 55.8418 641.338 61.1999 635.408 67.5101C629.331 73.9789 623.898 81.0296 617.568 87.2763C611.496 93.2744 604.808 98.3258 596.57 100.912C585.686 104.329 575.266 102.266 565.073 98.0084C557.204 94.7184 549.873 90.3653 542.378 86.3295C532.322 80.9186 521.945 76.613 510.276 76.5337C509.132 76.5337 508.563 76.2216 509.222 74.9839C510.529 72.4768 510.998 69.6946 511.778 67.0076C512.12 68.3934 513.417 68.24 514.345 68.4516C524.395 70.7789 533.846 74.6454 543.195 78.9827C554.727 84.3407 566.344 89.5613 579.035 91.7299C586.63 93.0417 594.056 93.3168 600.865 88.805C602.842 87.5038 604.855 86.2396 606.753 84.8221C616.482 77.5386 624.846 68.7266 633.685 60.4541C641.348 53.287 649.881 47.8866 660.396 46.1094C665.229 45.2896 670.072 44.5226 674.821 43.269L674.79 51.2242Z" fill="#5CBCEB"/>
<path d="M674.789 43.2882C670.046 44.5576 665.197 45.3087 660.364 46.1286C649.823 47.9058 641.316 53.3062 633.653 60.4732C624.814 68.7458 616.45 77.5578 606.721 84.8412C604.823 86.2588 602.81 87.5229 600.833 88.8241C594.024 93.3094 586.603 93.0556 579.003 91.7491C566.354 89.5593 554.716 84.344 543.163 79.0018C533.829 74.6645 524.363 70.798 514.313 68.4707C513.385 68.2591 512.088 68.4125 511.746 67.0267C511.83 65.1014 511.916 63.1778 512.004 61.2561C523.074 63.063 533.842 66.3987 544.001 71.1683C551.907 74.9184 559.66 79.1023 568.246 81.2974C582.423 84.9576 595.484 82.7466 607.411 74.1409C616.687 67.4499 624.582 59.1721 633.052 51.5501C638.771 46.4036 644.689 41.5533 652.395 39.8078C659.81 38.1258 667.389 37.216 674.773 35.3542L674.789 43.2882Z" fill="#3F83C4"/>
<path d="M622.58 -9.1567C626.975 -10.2675 630.912 -7.1785 631.576 -2.08487C632.789 7.1556 626.554 12.8258 616.487 11.4823C611.849 10.8792 607.46 9.02777 603.785 6.1242C597.334 1.0623 595.921 -5.84558 596.812 -13.5204C598.362 -26.9342 607.944 -38.3803 620.877 -41.5539C631.877 -44.2726 642.023 -41.5539 651.446 -35.5293C658.208 -31.1974 664.032 -25.7017 670.288 -20.7192C671.727 -19.5767 673.287 -18.6035 674.789 -17.5456V-12.2562C673.862 -12.1399 673.092 -12.6106 672.281 -12.9333C666.71 -15.1813 661.692 -18.413 656.696 -21.6871C649.185 -26.6009 641.638 -31.245 632.451 -32.6149C621.605 -34.2282 611.896 -28.8225 608.333 -18.4554C606.705 -13.6949 607.374 -9.22018 610.805 -5.41714C613.277 -2.67727 615.185 -2.77248 617.631 -5.32194C618.711 -6.46444 619.897 -7.50644 621.035 -8.59604H620.993C621.594 -8.56959 622.179 -8.59075 622.58 -9.1567Z" fill="#5CBCEB"/>
<path d="M674.788 35.3543C667.409 37.2161 659.825 38.1259 652.409 39.8079C644.704 41.5534 638.785 46.4037 633.067 51.5502C624.597 59.1722 616.702 67.45 607.425 74.141C595.498 82.7467 582.438 84.9577 568.26 81.2975C559.68 79.0865 551.922 74.9185 544.016 71.1684C533.857 66.3988 523.089 63.0631 512.019 61.2562C511.818 58.5374 510.964 55.9668 510.3 53.3222C518.612 55.3903 527.166 56.2683 535.309 59.2145C543.452 62.1607 551.121 65.9425 558.926 69.5181C570.521 74.8392 582.406 76.3942 594.681 72.3849C601.823 70.0576 607.61 65.4718 613.081 60.4681C620.127 54.0151 626.621 46.9697 634.3 41.2043C642.206 35.2855 651.134 32.3817 660.742 31.0911C665.485 30.4458 670.276 29.7582 674.783 27.9175L674.788 35.3543Z" fill="#3574BB"/>
<path d="M674.788 10.4962C673.207 9.54939 671.399 9.53881 669.681 9.55468C663.056 9.61286 657.2 7.34374 651.666 3.92683C648.314 1.8587 644.941 -0.547947 640.904 -0.537369C637.473 -0.537369 636.161 -1.55293 635.407 -5.02803C634 -11.2959 629.609 -13.8612 622.094 -13.9141C622.447 -15.5961 623.748 -16.3419 625.156 -16.8708C627.791 -17.8494 630.426 -17.7171 633.146 -17.1036C638.901 -15.7918 643.734 -12.56 648.641 -9.57156C656.837 -4.58901 665.196 -0.10894 674.788 1.50431V10.4962Z" fill="#235DAB"/>
<path d="M674.79 1.50286C665.197 -0.0839367 656.838 -4.59045 648.643 -9.57301C643.736 -12.5615 638.903 -15.7933 633.147 -17.105C630.443 -17.7186 627.777 -17.8508 625.157 -16.8723C623.75 -16.3433 622.448 -15.5976 622.095 -13.9155C620.256 -13.5876 618.442 -13.1856 616.824 -12.1383C616.698 -20.194 623.776 -25.7742 631.924 -24.2192C639.393 -22.7963 645.823 -19.0356 652.321 -15.4283C659.526 -11.4348 666.604 -7.19279 674.768 -5.37855L674.79 1.50286Z" fill="#3574BB"/>
<path d="M480.308 62.2524C475.085 61.9297 473.367 56.0321 475.354 50.0869C477.915 42.3909 485.536 39.1644 493.563 42.576C502.323 46.2785 507.267 53.2658 507.435 62.6385C507.604 71.7837 503.34 79.1201 495.029 83.5155C487.26 87.62 478.975 87.3397 470.637 85.8428C461.677 84.256 452.98 81.3945 443.931 80.2097C434.165 78.9349 424.672 78.8556 416.324 85.3668C414.416 86.8584 413.336 86.139 412.967 83.1717C412.44 78.8344 413.146 74.6082 414.332 70.4138C416.356 63.2626 421.036 58.4123 427.271 54.7997C431.145 52.5517 434.982 50.2403 438.834 47.9553C447.069 43.1026 453.648 35.8636 457.708 27.1893C460.278 21.7852 463.259 16.588 466.626 11.644C473.383 1.83227 482.754 -3.11855 494.401 -4.34039C502.233 -5.16024 510.129 -5.34007 517.913 -6.60422C528.981 -8.39731 538.347 -13.7184 546.948 -20.6739C551.998 -24.7625 556.915 -29.0151 562.333 -32.6436C574.149 -40.5512 586.187 -40.0487 598.484 -33.9713C599.659 -33.3894 600.154 -32.9504 599.105 -31.6915C598.113 -30.3569 597.205 -28.9614 596.386 -27.513C595.279 -27.7933 594.172 -28.0683 593.071 -28.354C583.167 -30.9246 573.77 -29.7768 564.931 -24.5245C560.518 -21.8006 556.371 -18.6642 552.546 -15.1571C544.113 -7.69912 534.905 -1.82795 523.663 0.308945C516.174 1.73706 508.595 2.57277 501.053 3.63593C492.578 4.82602 484.187 6.31234 477.256 11.9085C471.348 16.6689 467.142 22.905 463.348 29.3633C457.434 39.413 450.066 47.9077 439.915 53.8476C437.21 55.4833 434.626 57.3129 432.183 59.3221C428.573 62.1995 425.537 65.6164 423.75 69.9589C422.696 72.5295 423.302 73.323 426.032 73.3758C429.195 73.4393 432.357 73.2225 435.519 73.6403C448.168 75.3488 460.602 78.6282 473.404 79.522C478.706 79.8976 483.945 79.8235 489.01 78.1521C495.229 76.1051 498.649 69.4406 496.662 63.654C495.192 59.3803 492.193 58.2113 488.361 60.4381C486.781 61.4186 484.948 61.9098 483.091 61.8504C482.169 61.8133 481.157 61.5753 480.308 62.2524Z" fill="#5CBCEB"/>
<path d="M480.306 62.254C481.154 61.5717 482.166 61.8097 483.099 61.8468C484.956 61.9062 486.789 61.415 488.37 60.4345C492.201 58.2077 495.221 59.3767 496.671 63.6504C498.658 69.437 495.237 76.1015 489.018 78.1485C483.953 79.8199 478.714 79.894 473.412 79.5184C460.61 78.6245 448.192 75.3452 435.527 73.6367C432.413 73.2188 429.203 73.4357 426.041 73.3722C423.31 73.3193 422.71 72.5259 423.758 69.9553C425.54 65.6128 428.576 62.1959 432.191 59.3185C434.63 57.3024 437.21 55.4657 439.913 53.8228C450.064 47.8829 457.432 39.3724 463.345 29.3385C467.14 22.8855 471.346 16.6441 477.254 11.8837C484.174 6.28757 492.575 4.80128 501.05 3.61118C508.593 2.55331 516.172 1.7123 523.661 0.28418C534.903 -1.83155 544.126 -7.72387 552.543 -15.1818C556.369 -18.689 560.516 -21.8254 564.929 -24.5492C573.768 -29.8016 583.165 -30.9494 593.068 -28.3787C594.17 -28.0931 595.277 -27.8181 596.384 -27.5377C595.481 -25.2245 594.578 -22.9148 593.675 -20.6087C591.861 -22.9254 589.084 -22.058 586.939 -22.1109C578.88 -22.3119 571.654 -19.3921 565.245 -14.5894C560.402 -10.9715 555.685 -7.18436 550.888 -3.48182C543.446 2.23595 535.604 7.25023 526.117 8.75769C516.799 10.2422 507.451 11.5117 498.073 12.566C489.303 13.5393 481.897 17.062 476.026 23.5837C471.013 29.2295 466.51 35.3115 462.57 41.7579C458.707 47.9728 454.317 53.7065 447.223 56.7902C443.855 58.3033 440.737 60.3242 437.978 62.783C437.04 63.6028 435.997 64.5232 436.181 65.8402C436.397 67.3477 437.862 67.5011 439.059 67.665C448.356 68.9239 457.347 71.632 466.529 73.4357C471.42 74.3984 476.348 74.959 481.344 74.4936C485.413 74.0969 489.044 70.0347 488.723 66.2687C488.501 63.8303 487.231 62.8623 485.033 63.4441C483.568 62.5608 481.934 62.4286 480.306 62.254Z" fill="#3F83C4"/>
<path d="M524.689 22.6907C515.608 24.0765 509.052 29.6991 502.801 35.8294C501.467 37.1359 500.313 38.5535 500.06 40.7379C496.234 38.49 492.333 36.9032 487.938 36.808C477.534 36.5858 469.56 44.8213 470.16 55.2889C470.608 63.0219 473.85 66.1796 482.425 67.1476C482.578 69.1946 480.923 69.2633 479.637 69.6494C476.158 70.7073 472.659 70.0937 469.249 69.4114C464.189 68.3906 459.198 66.9995 454.159 65.8517C451.935 65.3228 449.663 65.0371 447.255 64.614C447.576 64.1855 447.65 64.0004 447.782 63.9211C448.378 63.552 448.994 63.2165 449.626 62.9161C455.551 60.2291 460.289 56.204 463.567 50.5232C466.113 46.1066 468.611 41.6636 471.215 37.2999C476.374 28.6148 483.3 22.2147 493.261 19.2526C502.121 16.608 511.212 16.4705 520.267 15.8569C528.226 15.328 535.878 13.8258 543.062 10.2449C551.384 6.09806 558.305 -0.0481386 565.393 -5.89814C573.231 -12.367 581.569 -16.7624 592.125 -14.2976C592.067 -11.05 591.598 -7.77586 592.252 -4.55994C592.515 -3.21645 591.915 -3.26406 591.066 -3.29051C582.812 -3.50208 576.309 0.412029 570.311 5.55326C565.657 9.56258 561.061 13.6565 555.912 17.047C551.332 20.0619 546.509 22.4633 540.87 22.622C540.583 22.4345 540.265 22.3002 539.931 22.2253C534.967 22.1935 530.004 22.1829 525.042 22.1935C524.742 22.1724 524.568 22.3628 524.689 22.6907Z" fill="#235CAB"/>
<path d="M634.697 8.34582C636.526 3.13053 637.469 2.64391 642.793 4.47402C644.282 4.9965 645.71 5.68115 647.051 6.51571C653.587 10.5303 660.37 13.8361 668.95 14.1747C663.917 18.0465 659.179 20.9503 653.597 21.5268C637.939 23.1137 625.137 30.1643 614.211 41.2561C611.749 43.7579 609.162 46.1593 606.468 48.4126C595.632 57.4626 583.12 58.2719 569.928 55.8176C562.549 54.4371 555.613 51.7078 548.957 48.3121C536.339 41.8802 523.068 38.1089 508.858 37.9449C508.644 37.9924 508.419 37.9528 508.234 37.8349C508.048 37.7171 507.917 37.5304 507.868 37.3155C513.481 32.0579 519.247 27.1917 527.78 27.3663C533.809 27.4879 539.902 27.8952 545.863 26.5147C553.99 24.6105 560.394 19.6914 566.671 14.5608C569.733 12.0589 572.695 9.43542 575.762 6.94414C580.017 3.49004 585.221 1.42143 590.678 1.0148C593.94 0.718599 594.936 2.73383 595.948 5.03998C589.255 6.0238 583.505 9.0969 578.139 13.0586C572.558 17.179 567.177 21.5797 561.084 24.9596C554.348 28.6939 547.064 30.9313 539.659 32.8513C538.858 33.0576 537.704 33.0946 537.525 34.1155C537.346 35.1363 538.463 35.5013 539.148 35.9614C544.663 39.5657 550.483 42.6772 556.541 45.2601C571.388 51.7977 585.956 51.6972 599.996 42.7794C604.892 39.6693 609.436 36.0567 614.174 32.7297C624.562 25.4357 635.999 20.4161 648.1 16.8088C648.901 16.5654 650.008 16.6289 650.282 15.6345C650.456 14.9892 649.697 14.6137 649.175 14.3175C644.616 11.7098 640.068 9.01756 634.697 8.34582Z" fill="#5DBCEA"/>
<path d="M592.109 -14.3147C581.568 -16.7796 573.215 -12.3841 565.377 -5.91526C558.289 -0.0652542 551.368 6.08097 543.046 10.2278C535.862 13.8087 528.21 15.3056 520.251 15.8398C511.196 16.4533 502.105 16.6015 493.245 19.2355C483.284 22.1976 476.379 28.5976 471.199 37.2827C468.595 41.6676 466.097 46.1106 463.551 50.5061C460.273 56.1868 455.535 60.212 449.611 62.899C448.978 63.1994 448.362 63.5349 447.766 63.904C447.629 63.9833 447.555 64.1684 447.239 64.5969C449.647 65.02 451.919 65.3268 454.143 65.8346C459.182 66.9824 464.157 68.3735 469.233 69.3943C472.643 70.0766 476.142 70.7061 479.621 69.6323C480.907 69.2356 482.562 69.1774 482.409 67.1305C485.324 66.8554 485.856 66.0726 485.044 63.4279C487.258 62.8461 488.528 63.8141 488.734 66.2524C489.076 70.0185 485.445 74.0807 481.355 74.4774C476.358 74.964 471.43 74.4033 466.539 73.4195C457.358 71.6158 448.367 68.9077 439.07 67.6488C437.873 67.4849 436.408 67.3315 436.192 65.824C436.007 64.507 437.051 63.5866 437.989 62.7668C440.74 60.3024 443.851 58.2743 447.212 56.7528C454.317 53.7061 458.707 47.9725 462.592 41.7469C466.531 35.3006 471.034 29.2186 476.047 23.5728C481.919 17.051 489.324 13.5231 498.094 12.5551C507.465 11.5184 516.813 10.249 526.138 8.74678C535.588 7.23932 543.447 2.22504 550.91 -3.49273C555.706 -7.19527 560.397 -10.9613 565.267 -14.6003C571.686 -19.4031 578.902 -22.3228 586.96 -22.1218C589.105 -22.0689 591.883 -22.9363 593.696 -20.6196L592.109 -14.3147Z" fill="#3574BB"/>
<path d="M634.696 8.34995C640.067 9.02169 644.615 11.714 649.201 14.3163C649.728 14.6125 650.481 14.9881 650.308 15.6334C650.034 16.6278 648.927 16.5643 648.126 16.8076C636.003 20.4149 624.587 25.4345 614.199 32.7285C609.456 36.0555 604.918 39.6681 600.022 42.7782C585.981 51.6961 571.413 51.7966 556.566 45.2589C550.509 42.6761 544.689 39.5646 539.174 35.9603C538.488 35.5001 537.355 35.1722 537.55 34.1143C537.745 33.0564 538.884 33.0564 539.685 32.8501C547.063 30.9301 554.374 28.6927 561.109 24.9585C567.202 21.5786 572.583 17.1778 578.165 13.0575C583.53 9.09574 589.28 6.02263 595.974 5.03882L600.027 9.31791C598.019 10.9893 595.378 10.6402 593.096 11.5077C587.061 13.8033 582.313 18.0083 577.353 21.8748C570.027 27.5873 562.069 31.7288 552.819 33.2098C551.691 33.3897 550.184 33.2574 549.883 34.4422C549.583 35.627 551.001 36.3147 551.939 36.8806C566.759 45.7773 581.454 46.2375 596.111 36.3517C602.56 32.1053 609.226 28.2 616.081 24.6517C622.674 21.1501 629.378 17.8866 636.826 16.5378C637.458 16.4268 638.454 16.4003 638.512 15.554C638.57 14.7077 637.632 14.5332 637 14.3322C635.002 13.6975 632.973 13.1421 630.96 12.555C632.2 11.1551 633.445 9.75339 634.696 8.34995Z" fill="#3F83C4"/>
<path d="M630.943 12.5626C632.956 13.1497 634.985 13.7051 636.983 14.3399C637.615 14.5409 638.564 14.726 638.495 15.5617C638.427 16.3974 637.441 16.4344 636.809 16.5455C629.361 17.8943 622.657 21.1578 616.064 24.6593C609.209 28.2077 602.543 32.113 596.094 36.3594C581.463 46.2345 566.742 45.7744 551.922 36.8883C550.984 36.3223 549.587 35.6189 549.866 34.4499C550.146 33.281 551.674 33.392 552.802 33.2175C562.031 31.7365 570.01 27.5949 577.336 21.8824C582.296 18.0159 587.045 13.8109 593.079 11.5153C595.361 10.6479 598.002 10.9864 600.01 9.32556L604.753 12.4992C604.274 13.1498 603.552 13.1286 602.856 13.2238C597.348 13.941 592.17 16.2658 587.967 19.9095C585.368 22.1205 582.728 24.2838 580.061 26.4418C574.896 30.6733 569.346 34.0585 562.552 34.8678C561.627 34.916 560.746 35.2799 560.054 35.8992C560.708 36.1901 561.077 36.3911 561.467 36.5233C572.614 40.2893 583.192 39.1362 593.169 32.8208C601.855 27.3357 610.62 22.02 620.544 18.9945C621.382 18.7406 622.779 18.7247 622.652 17.4764C622.52 16.3445 621.224 16.3921 620.291 16.2123C624.028 15.5564 627.68 14.6096 630.943 12.5626Z" fill="#3574BB"/>
<path d="M620.338 16.2046C621.271 16.3845 622.568 16.3368 622.699 17.4688C622.842 18.7171 621.445 18.7329 620.591 18.9868C610.667 22.0123 601.902 27.3281 593.216 32.8132C583.239 39.1233 572.661 40.2764 561.514 36.5157C561.124 36.3835 560.755 36.1824 560.102 35.8915C560.793 35.2722 561.674 34.9084 562.6 34.8601C569.393 34.0509 574.943 30.6286 580.108 26.4342C582.744 24.2761 585.379 22.1128 588.014 19.9019C592.218 16.2581 597.395 13.9334 602.903 13.2162C603.599 13.1209 604.321 13.1421 604.801 12.4915C609.745 14.6496 614.757 16.5696 620.338 16.2046Z" fill="#235CAB"/>
<path d="M524.691 22.6935C524.569 22.3655 524.743 22.1646 525.028 22.1646C529.993 22.1646 534.956 22.1751 539.917 22.1963C540.251 22.2712 540.569 22.4055 540.855 22.593L524.691 22.6935Z" fill="#1E4691"/>
<path d="M0.164185 -99.5208C0.780835 -99.2617 1.13923 -99.7377 1.53979 -100.05C15.2431 -110.142 29.6949 -110.539 44.5893 -103.033C46.6132 -102.012 47.7517 -102.081 49.4698 -103.631C60.3851 -113.453 77.4984 -114.971 92.161 -107.661C100.177 -103.662 106.961 -97.9446 113.696 -92.1687C119.336 -87.3236 125.186 -82.8859 132.828 -81.7751C135.69 -81.3625 138.542 -80.7966 141.456 -81.0928L154.422 -80.9288C159.529 -80.2306 164.646 -79.67 169.537 -77.8557C177.382 -74.9886 184.437 -70.2955 190.124 -64.1616C190.608 -63.6596 191.062 -63.1297 191.484 -62.5748C194.488 -58.4968 193.518 -56.0161 188.532 -55.4713C184.353 -55.0111 180.168 -54.8101 176.152 -53.3555C169.3 -50.8537 164.272 -46.0615 159.882 -40.439C156.008 -35.3982 152.266 -30.2834 148.102 -25.5495C139.38 -15.6584 128.264 -10.5172 115.467 -8.58129C111.483 -7.97831 107.488 -7.47052 103.514 -6.81464C96.0401 -5.58222 89.9052 -1.77391 84.8139 3.65824C78.7423 10.1377 72.9921 16.9133 66.9311 23.398C59.7104 31.1258 51.5306 37.5523 41.2057 40.5937C29.3365 44.0793 18.0154 41.8102 6.90517 37.1292C4.63885 36.2088 2.40415 35.2779 0.164185 34.2994V29.01C3.11567 30.3482 6.04608 31.7287 9.02392 33.0193C26.1478 40.4244 42.1227 39.2079 56.6799 26.7409C63.5316 20.875 69.2026 13.9196 75.1531 7.21268C81.2985 0.278351 87.544 -6.5396 96.6304 -9.75023C102.718 -11.8924 109.148 -12.2203 115.441 -13.2623C127.168 -15.1982 137.324 -19.9639 145.161 -29.2361C148.682 -33.4041 152.039 -37.6991 155.296 -42.0681C162.106 -51.2081 170.454 -57.8885 182.108 -59.5864C183.757 -59.8244 185.549 -59.3748 187.378 -60.385C181.639 -66.4889 175.145 -70.9637 167.445 -73.6084C159.576 -76.3588 151.417 -76.3853 143.264 -76.2213C131.247 -75.978 120.743 -79.5007 111.688 -87.6674C104.715 -93.9618 97.5475 -100.113 88.8406 -104.027C75.1372 -110.195 58.572 -108.978 47.7306 -95.173C41.8961 -87.7679 39.4875 -79.1569 40.9632 -69.89C42.6129 -59.4964 55.552 -51.4672 66.1299 -53.7099C73.6088 -55.2967 76.497 -59.3589 75.5589 -66.9703C74.9475 -71.9528 71.0526 -75.0947 66.5621 -74.2219C65.8611 -73.9892 64.981 -74.3066 64.4539 -73.5925V-73.619C64.1482 -73.5608 63.6897 -73.6613 63.8847 -73.09L63.9216 -73.1218C60.501 -73.7988 60.1479 -74.2643 60.8173 -77.1469L64.5066 -78.8131C74.4046 -79.1728 77.9412 -76.5757 80.1021 -67.1766C80.3867 -65.9389 80.8241 -65.6162 81.9836 -65.7008C86.2001 -66.0182 89.8894 -64.4631 93.3996 -62.3791C97.4684 -59.9672 101.516 -57.5394 106.154 -56.2805C109.417 -55.3919 112.769 -55.7833 116.052 -55.265C117.591 -55.0217 119.078 -54.736 119.62 -53.0699C120.163 -51.4038 119.157 -50.129 118.039 -49.1505C112.057 -43.9511 105.469 -39.7037 97.4473 -38.831C84.0655 -37.387 72.9131 -31.5899 63.2997 -22.397C59.9318 -19.1758 56.6272 -15.8753 53.0591 -12.8762C41.5588 -3.27608 28.198 -2.1759 14.0836 -4.5085C9.34015 -5.29132 4.87075 -7.07911 0.174726 -8.00474V-13.2941C6.3204 -10.7214 12.8027 -9.04878 19.4226 -8.3274C30.1481 -7.14259 40.2095 -8.67649 49.0324 -15.4627C53.5018 -18.9008 57.2966 -23.0741 61.4655 -26.8401C71.2002 -35.631 82.2261 -41.6502 95.5289 -43.0255C101.922 -43.676 107.498 -46.4635 112.922 -50.8642C104.768 -51.0599 98.1378 -54.0855 91.8026 -58.0207C90.2375 -58.9912 88.5817 -59.8061 86.8589 -60.4538C81.7359 -62.3791 80.4763 -61.755 78.6738 -56.6666C77.437 -55.2561 76.2072 -53.8457 74.9844 -52.4352C72.0151 -50.6491 68.735 -49.4447 65.3183 -48.886C59.4048 -48.2883 54.0078 -50.1132 48.7214 -52.4616L43.978 -55.6352L39.8195 -59.9936C37.8009 -64.3732 37.7904 -64.2251 33.0838 -63.7491C26.7592 -63.1038 21.7417 -59.8931 17.0615 -55.8944C11.6539 -51.2768 6.4361 -46.4053 0.195808 -42.9144V-48.2037C3.85594 -50.6036 7.31597 -53.2977 10.5418 -56.2594C17.6939 -62.6066 24.983 -68.5994 35.3132 -68.3772C36.1091 -68.3772 36.4306 -68.7263 36.2777 -69.5197C35.6189 -72.9208 36.1618 -76.3324 36.1354 -79.744L37.6534 -85.6628L40.394 -92.5389C41.3374 -94.0146 42.2176 -95.538 43.2506 -96.9449C43.862 -97.7859 43.9147 -98.2355 42.9186 -98.738C35.1288 -102.657 26.9858 -104.588 18.3053 -102.853C11.3271 -101.462 5.65606 -97.495 0.174726 -93.1631L0.164185 -99.5208Z" fill="#FFF3E0"/>
<path d="M66.5543 -74.2463C71.0448 -75.1191 74.9397 -71.9772 75.5511 -66.9947C76.4892 -59.3833 73.601 -55.3211 66.1221 -53.7343C55.5442 -51.4916 42.6051 -59.5208 40.9554 -69.9144C39.4797 -79.1813 41.8883 -87.7765 47.7228 -95.1974C58.5747 -109.003 75.1294 -110.219 88.8328 -104.052C97.5396 -100.138 104.708 -94.002 111.68 -87.6918C120.746 -79.5039 131.234 -76.0024 143.267 -76.2457C151.42 -76.4097 159.579 -76.3832 167.448 -73.6328C175.148 -70.9458 181.641 -66.4922 187.381 -60.4094C185.547 -59.3992 183.755 -59.8488 182.11 -59.6107C170.457 -57.9129 162.109 -51.2324 155.299 -42.0925C152.037 -37.7182 148.679 -33.4074 145.159 -29.2552C137.322 -19.983 127.165 -15.2173 115.438 -13.2814C109.145 -12.2236 102.715 -11.9115 96.6278 -9.76933C87.5415 -6.59573 81.2959 0.280411 75.1505 7.19357C69.2001 13.9005 63.5238 20.8559 56.7037 26.7218C42.1465 39.1888 26.1716 40.4159 9.04772 33.0002C6.06988 31.7097 3.13948 30.3291 0.187988 28.9909V19.9991C7.49292 22.4533 14.6608 25.4048 22.3241 26.6213C28.9439 27.6792 35.5531 28.5149 41.9199 25.3571C45.0484 23.755 48.0246 21.8695 50.8113 19.724C60.3298 12.594 68.5097 3.9512 77.206 -4.10445C83.7046 -10.129 90.5878 -15.5559 99.4476 -17.6451C103.537 -18.6078 107.643 -19.6445 111.802 -20.1576C124.751 -21.7444 135.103 -27.7002 143.362 -37.8081C149.417 -45.2132 155.647 -52.5177 162.557 -59.177C167.195 -63.6465 166.773 -65.5242 160.754 -68.1213C154.867 -70.6602 148.585 -71.3372 142.307 -72.0354C135.682 -72.7706 129.094 -73.6539 122.68 -75.5687C113.81 -78.2133 106.057 -83.0213 98.4356 -88.0885C92.3377 -92.1296 86.0394 -95.7052 78.7345 -97.2073C65.184 -99.9948 54.3004 -93.5048 51.6915 -80.858C50.9272 -77.1555 51.9602 -73.8126 54.2845 -70.9987C56.6879 -68.0948 59.6605 -66.8571 62.1165 -70.9246C62.6728 -71.7078 63.284 -72.4502 63.9454 -73.1462L63.9085 -73.1144C64.23 -73.162 64.4355 -73.3048 64.4777 -73.6434V-73.6169C65.1945 -73.6328 66.0062 -73.49 66.5543 -74.2463Z" fill="#5CBCEB"/>
<path d="M63.9268 -73.1279C63.2654 -72.4319 62.6542 -71.6895 62.098 -70.9064C59.6419 -66.8389 56.6693 -68.0766 54.266 -70.9804C51.9417 -73.7944 50.9087 -77.1372 51.6729 -80.8397C54.2818 -93.4707 65.1654 -99.9766 78.7159 -97.1891C86.0208 -95.6869 92.3191 -92.1113 98.4171 -88.0703C106.044 -83.0031 113.796 -78.2004 122.661 -75.5504C129.076 -73.6357 135.664 -72.7524 142.289 -72.0171C148.561 -71.3189 154.843 -70.6419 160.736 -68.103C166.755 -65.5007 167.176 -63.6283 162.538 -59.1588C155.629 -52.4995 149.399 -45.2055 143.343 -37.7898C135.084 -27.6819 124.733 -21.7367 111.783 -20.1393C107.625 -19.6104 103.519 -18.5895 99.429 -17.6269C90.5693 -15.5376 83.686 -10.1107 77.1874 -4.0862C68.4911 3.96947 60.3218 12.6123 50.7927 19.7423C48.006 21.8877 45.0299 23.7733 41.9014 25.3754C35.5346 28.549 28.9254 27.6922 22.3056 26.6396C14.637 25.423 7.4691 22.4716 0.169434 20.0173V12.0833C1.87708 12.7656 3.58473 13.4638 5.29764 14.1303C14.7424 17.7799 24.4085 19.0441 34.4067 16.9548C45.4273 14.6539 53.8075 7.86772 61.8924 0.62133C68.217 -5.05413 74.3941 -10.9253 80.7187 -16.6219C85.557 -20.975 91.0278 -24.1381 97.5316 -25.3546C103.898 -26.5394 110.26 -27.7824 116.585 -29.1894C123.963 -30.8291 130.367 -34.119 135.031 -40.4292C140.344 -47.6174 145.478 -54.9749 152.487 -60.735C154.364 -62.2742 153.71 -63.972 151.091 -64.9664C145.609 -67.0822 139.785 -67.1827 134.051 -67.7539C128.127 -68.341 122.235 -69.1239 116.505 -70.7847C108.073 -73.2284 100.694 -77.8354 93.1466 -82.1303C87.4702 -85.3674 81.6832 -88.1708 75.1741 -89.308C66.9679 -90.7361 60.3113 -83.9763 60.8278 -77.1425C60.1532 -74.2704 60.5063 -73.8049 63.9268 -73.1279Z" fill="#3F83C4"/>
<path d="M0.164185 -8.01868C4.86021 -7.09305 9.32434 -5.30524 14.0731 -4.52242C28.1875 -2.18983 41.5483 -3.29002 53.0749 -12.8902C56.643 -15.8733 59.9265 -19.1739 63.3155 -22.411C72.9289 -31.6038 84.0813 -37.4009 97.4631 -38.8449C105.485 -39.7177 112.073 -43.965 118.055 -49.1644C119.183 -50.143 120.163 -51.4071 119.636 -53.0838C119.109 -54.7605 117.607 -55.0356 116.068 -55.2789C112.785 -55.8078 109.432 -55.4058 106.17 -56.2945C101.532 -57.5533 97.4842 -59.997 93.4154 -62.3931C89.8894 -64.4771 86.2053 -66.0321 81.9995 -65.7148C80.8399 -65.6301 80.4183 -65.9528 80.1179 -67.1905C77.957 -76.6002 74.4205 -79.1973 64.5172 -78.827C67.4687 -81.1014 70.5203 -83.122 74.5311 -82.5772C77.316 -82.1902 80.024 -81.3712 82.5581 -80.1494C87.5546 -77.7639 92.2032 -74.7437 96.9888 -71.9826C104.895 -67.4338 113.132 -64.0486 122.287 -62.9114C128.116 -62.1974 133.977 -62.1022 139.796 -61.441C140.755 -61.3352 141.872 -61.3881 142.268 -60.3196C142.663 -59.2512 141.656 -58.7328 141.045 -58.1775C138.137 -55.3703 135.532 -52.2643 133.271 -48.9105C127.784 -41.1405 120.511 -36.2584 110.993 -34.8938C106.581 -34.2591 102.164 -33.5662 97.8163 -32.6247C86.374 -30.1598 77.0821 -23.8338 68.8284 -15.794C63.6739 -10.7638 58.5246 -5.74426 53.0169 -1.06849C41.1108 9.0553 27.6183 12.0014 12.5235 8.0609C8.25442 6.94485 4.34897 4.91374 0.164185 3.61786V-8.01868Z" fill="#235DAB"/>
<path d="M0.164087 3.62012C4.34888 4.916 8.25433 6.94711 12.5234 8.06316C27.6182 12.0037 41.1107 9.05755 53.0221 -1.06095C58.5139 -5.72086 63.6632 -10.7563 68.8336 -15.7865C77.0714 -23.8263 86.3633 -30.1523 97.8214 -32.6171C102.18 -33.5586 106.597 -34.2515 110.998 -34.8863C120.516 -36.2509 127.79 -41.133 133.276 -48.903C135.537 -52.2567 138.143 -55.3627 141.05 -58.1699C141.662 -58.7359 142.631 -59.2913 142.273 -60.3121C141.915 -61.3329 140.76 -61.3276 139.801 -61.4334C134.004 -62.0946 128.122 -62.1898 122.292 -62.9039C113.122 -64.0305 104.863 -67.4262 96.994 -71.9751C92.2083 -74.7361 87.5597 -77.7563 82.5633 -80.1418C80.0292 -81.3636 77.3212 -82.1827 74.5363 -82.5696C70.5413 -83.0985 67.4896 -81.0939 64.5223 -78.8195L60.833 -77.1533C60.3059 -83.9977 66.9731 -90.7575 75.1793 -89.3188C81.6937 -88.1922 87.4912 -85.3888 93.1412 -82.1465C100.673 -77.8515 108.083 -73.2445 116.5 -70.8008C122.229 -69.14 128.122 -68.3572 134.046 -67.7701C139.78 -67.1988 145.604 -67.1089 151.085 -64.9826C153.721 -63.967 154.358 -62.2691 152.482 -60.7511C145.472 -54.991 140.36 -47.6336 135.026 -40.4454C130.362 -34.1352 123.958 -30.8452 116.579 -29.2055C110.255 -27.7985 103.893 -26.5608 97.5263 -25.3707C91.0225 -24.1542 85.5517 -20.9912 80.7133 -16.638C74.3887 -10.9414 68.2222 -5.07025 61.8871 0.605202C53.8021 7.85159 45.422 14.6378 34.4013 16.9387C24.4032 19.0438 14.7581 17.7797 5.27121 14.1195C3.5583 13.453 1.85065 12.7548 0.143005 12.0725L0.164087 3.62012Z" fill="#3574BB"/>
<path d="M0.16399 64.4448C8.69168 65.2171 16.6133 62.6465 24.519 59.9912C34.6121 56.6007 44.7842 55.289 55.2145 58.5208C63.1203 60.9803 69.6979 65.5133 75.2425 71.6013C76.402 72.8813 77.1398 73.0083 78.6736 72.1884C86.7744 67.8776 95.3495 67.1265 104.167 69.4168C108.874 70.6439 112.695 73.4526 115.941 77.0176C117.826 78.9916 119.586 81.0815 121.212 83.2749C124.801 88.3685 129.645 91.2406 135.674 92.5153C143.158 94.1021 150.516 96.0804 156.335 101.56C159.571 104.607 162.285 107.997 163.624 112.34C164.293 114.508 164.715 116.703 163.028 118.56C161.342 120.417 159.286 119.745 157.362 119.174C152.563 117.699 147.498 117.309 142.531 118.031C136.133 118.994 130.867 122.146 126.577 126.97C124.538 129.271 122.45 131.54 120.469 133.894C115.261 140.003 108.689 141.473 101.194 139.77C97.1783 138.868 93.1833 137.887 89.2093 136.829C85.52 135.846 82.0941 136.644 78.8159 138.347C76.5601 139.516 74.3728 140.807 72.1329 142.008C62.8568 146.985 54.5135 145.816 46.9345 138.448C46.0702 137.607 45.3534 137.094 44.0094 137.39C35.0495 139.337 27.4705 136.396 20.8666 130.35C17.7464 127.494 15.069 124.214 12.3178 121.025C10.2992 118.698 8.23842 116.402 5.67168 114.678C4.01147 113.551 2.33544 112.387 0.16399 112.562V107.273C7.38986 108.981 12.5286 113.62 16.9927 119.258C18.4105 121.046 19.8863 122.802 21.4358 124.484C26.6641 130.175 32.8306 133.682 40.884 133.233C48.1836 132.825 55.1144 126.642 55.8364 118.951C56.432 112.784 52.1471 106.056 45.0793 103.713C43.8019 103.248 42.445 103.043 41.0878 103.109C39.7305 103.175 38.3999 103.512 37.1735 104.099C33.7846 105.728 32.2509 110.277 33.8268 113.89C35.2972 117.259 37.5161 117.989 41.3162 116.354C42.5916 115.937 43.5614 116.46 44.4205 117.349C44.4732 118.47 44.7842 119.734 43.4929 120.369C41.469 121.369 39.3977 122.194 37.026 121.75C32.0242 120.824 29.8264 117.349 28.7565 112.795C27.3757 103.723 35.313 96.5141 45.6433 99.1482C54.5293 101.423 63.6737 111.372 59.1041 125.119L56.5638 129.504L53.2328 133.127C49.6436 135.1 49.5803 135.37 52.8639 137.612C57.6969 140.918 62.8778 141.204 68.1115 138.765C71.5267 137.178 74.7576 135.169 78.1676 133.571C81.4669 132.027 84.9244 131.244 88.6348 132.127C93.8263 133.36 99.0494 134.481 104.278 135.56C108.615 136.459 112.458 135.486 115.541 132.122C117.201 130.308 118.914 128.536 120.506 126.658C128.348 117.418 137.898 112.001 150.389 113.112C153.404 113.382 156.277 114.27 159.592 115.043C157.531 108.574 153.578 104.337 148.107 101.396C144.353 99.4629 140.325 98.1196 136.164 97.4133C127.505 95.7789 120.827 91.5104 115.868 84.1106C109.543 74.7167 100.551 71.5854 89.515 73.3256C76.8289 75.3303 69.9719 84.3751 71.8114 97.0589C73.0288 105.437 80.0544 111.155 88.2554 110.446C90.6347 110.218 92.8765 109.223 94.6455 107.61C96.4145 105.996 97.6155 103.852 98.0691 101.497C98.7806 97.8946 97.1151 95.3293 92.3716 92.7269C92.2138 92.6557 92.0519 92.5939 91.8867 92.5418C90.5164 91.6691 90.3636 90.4261 91.191 89.2042C92.0185 87.9824 93.1886 88.1781 94.4219 88.7123C96.0649 89.4851 97.6319 90.4112 99.1021 91.4786C100.726 93.2878 101.887 95.4661 102.486 97.8258C102.409 98.1729 102.379 98.5287 102.396 98.8837C103.603 106.162 97.3628 113.609 89.9261 114.81C85.2548 115.526 80.4825 114.539 76.4739 112.027C72.4653 109.516 69.4856 105.647 68.0746 101.121C66.8149 97.08 66.9678 92.9861 67.1417 88.8657C67.6965 87.5418 68.0517 86.1424 68.1958 84.7136L70.3303 79.8844C70.6587 79.3728 71.0403 78.8976 71.4688 78.4669C73.5032 76.7848 72.6968 75.4096 71.1156 74.0185C69.6715 72.7438 68.3592 71.3104 66.8571 70.1097C55.4517 60.9539 42.7076 59.2507 29.0095 63.5351C19.5753 66.4918 10.2465 69.8823 0.121826 69.2475L0.16399 64.4448Z" fill="#FFF3E0"/>
<path d="M0.164185 69.2093C10.2888 69.8229 19.6177 66.4536 29.0519 63.4968C42.7552 59.2125 55.494 60.9157 66.8994 70.0715C68.4015 71.2722 69.7139 72.7161 71.158 73.9803C72.7392 75.3714 73.5455 76.7466 71.5111 78.4286C71.0827 78.8593 70.7011 79.3345 70.3727 79.8462C69.0287 78.7195 67.7374 77.4871 66.3355 76.4769C55.1462 68.5429 42.8237 67.0301 29.6896 69.9974C19.955 72.1925 10.3468 75.2445 0.174726 74.4987L0.164185 69.2093Z" fill="#5DBCEA"/>
<path d="M0.164145 74.4983C10.3468 75.2441 19.9549 72.1921 29.679 69.997C42.8131 67.0297 55.1356 68.5372 66.3249 76.4765C67.7532 77.4867 69.0181 78.7192 70.3621 79.8458L68.2276 84.675C67.2841 82.7338 65.2076 82.3424 63.6 81.3691C51.5991 74.1121 38.8813 72.2238 25.2992 76.1697C17.0878 78.5499 8.96063 81.5701 0.158875 80.8455L0.164145 74.4983Z" fill="#3F83C4"/>
<path d="M91.9182 92.5207C92.0833 92.5728 92.2452 92.6346 92.403 92.7058C97.1465 95.3082 98.812 97.8735 98.1005 101.476C97.6469 103.831 96.4459 105.975 94.6769 107.588C92.9079 109.202 90.6661 110.197 88.2868 110.425C80.0858 111.134 73.0603 105.416 71.8428 97.0378C70.0034 84.3434 76.8603 75.3092 89.5464 73.3045C100.567 71.5643 109.574 74.6956 115.899 84.0895C120.859 91.4945 127.536 95.7578 136.196 97.3922C140.345 98.1071 144.36 99.4557 148.102 101.391C153.573 104.332 157.526 108.569 159.586 115.037C156.271 114.265 153.399 113.377 150.384 113.107C137.866 111.996 128.343 117.412 120.5 126.653C118.919 128.53 117.196 130.302 115.535 132.117C112.452 135.481 108.61 136.454 104.272 135.555C99.0439 134.497 93.8208 133.354 88.6294 132.122C84.94 131.239 81.4615 132.021 78.1621 133.566C74.7521 135.153 71.5213 137.168 68.106 138.76C62.8618 141.198 57.6914 140.913 52.8584 137.607C49.5748 135.364 49.6381 135.095 53.2273 133.127C61.4388 135.703 69.2391 134.053 76.6811 130.456C82.7264 127.536 88.8033 126.981 95.3387 128.234C101.315 129.387 107.371 130.239 112.494 125.42C114.729 123.305 117.143 121.395 119.557 119.496C124.938 115.265 130.251 110.869 137.118 109.193C139.116 108.706 141.166 108.452 143.706 108.003C140.502 105.263 137.097 104.014 133.576 103.094C127.721 101.565 122.34 99.1271 117.654 95.2447C115.219 93.2277 112.798 91.1983 110.391 89.1567C104.963 84.5867 98.9701 81.6881 91.6283 82.3863C87.3012 82.7989 83.2956 85.671 82.4997 89.1937C81.9411 91.6691 83.0848 93.9541 85.0085 93.7954C87.3433 93.5733 89.5991 92.9597 91.9182 92.5207Z" fill="#5CBCEB"/>
<path d="M175.144 188.217C169.684 180.373 164.318 172.465 158.716 164.722C156.038 161.019 152.112 158.692 148.138 156.597C141.442 153.184 135.913 147.843 132.258 141.258C131.32 139.571 130.45 137.852 130.218 135.884C129.812 132.467 131.668 130.627 135.062 131.335C139.341 132.224 143.437 133.827 147.785 134.509C155.395 135.699 162.584 134.075 169.705 131.637C171.107 131.15 170.511 130.267 170.316 129.521C169.573 126.776 169.125 124.01 169.505 121.169C170.211 115.88 173.078 112.072 177.669 109.57C179.967 108.316 182.412 107.279 184.789 106.211C187.166 105.143 188.531 103.297 188.868 100.573C190.239 89.465 198.429 83.0437 209.529 84.1756C211.974 84.4242 214.425 84.6252 216.876 84.7945C221.034 85.0854 224.666 83.8742 227.633 80.8751C228.687 79.8172 229.741 78.7276 230.764 77.6592C239.223 68.9424 253.991 68.6673 262.914 77.0192C264.21 78.2463 265.47 79.5845 264.838 81.5892C264.205 83.5938 262.371 83.9641 260.584 83.9694C253.037 83.9694 249.769 87.1429 248.462 95.955C247.935 99.4301 247.635 102.942 246.723 106.343C245.769 109.898 244.124 113.061 240.751 115.536C244.58 117.083 248.062 119.384 250.992 122.301C251.06 119.27 251.103 116.668 252.072 114.214C253.754 109.94 256.584 109.094 259.894 112.246C266.925 118.948 274.767 119.339 283.211 115.621C289.435 112.881 295.364 109.395 302.369 108.12C300.677 104.323 299.481 100.477 297.625 96.9018C295.77 93.3262 292.624 91.0835 289.114 89.338C285.356 87.4656 281.413 85.974 277.798 83.7895C269.286 78.6536 267.41 70.0848 269.945 61.2887C271.478 55.9993 274.52 54.9415 278.715 58.3478C284.939 63.4203 291.522 63.7588 298.685 60.9925C303.428 59.1518 307.829 56.5812 312.499 54.5924C320.932 50.9956 329.275 51.4188 337.27 55.8407C342.688 58.8503 346.193 63.4044 347.137 69.7093C347.175 70.0485 347.239 70.3845 347.326 70.7143C347.374 70.8624 347.527 70.984 347.701 71.2062C350.088 65.573 353.277 60.6275 358.31 57.0361C368.741 49.631 383.862 51.6938 390.582 61.4156C397.186 70.9364 392.642 84.0804 381.748 86.8362C378.747 87.5856 375.598 87.483 372.651 86.54C371.371 86.1433 370.986 86.54 370.659 87.6507C369.605 91.2739 371.713 96.7061 374.986 98.5309C375.259 98.6677 375.556 98.7485 375.86 98.7685C376.164 98.7884 376.469 98.7472 376.757 98.6473C387.156 96.32 396.938 98.4992 406.383 102.842C415.047 106.825 422.985 111.897 429.805 119.514C429.357 117.245 429.03 115.541 429.309 113.796C430.553 106.01 437.141 101.863 445.121 103.847C448.888 104.78 452.32 106.756 455.024 109.549C455.393 109.924 455.73 111.093 456.542 109.914C461.913 102.112 469.307 102.382 477.218 104.677C481.582 105.941 485.846 107.613 490.453 107.882C493.615 108.062 496.361 107.882 497.389 103.963C497.916 102.022 500.103 101.906 501.921 103.651C505.911 107.48 507.06 112.357 506.396 117.673C505.869 121.904 503.429 124.935 499.628 126.797C498.154 127.567 496.605 128.186 495.006 128.643C492.497 129.278 491.533 130.759 491.844 133.261C491.876 133.789 491.876 134.319 491.844 134.847C491.818 140.777 489.272 143.972 483.517 145.283C477.535 146.653 477.529 146.653 477.603 152.731C477.603 154.169 477.123 156.063 477.845 156.909C478.483 157.66 480.481 157.258 481.877 157.359C490.621 157.957 498.775 160.22 505.806 165.742C508.222 167.657 510.362 169.9 512.162 172.407C516.557 178.474 521.232 184.239 527.741 188.196H520.363C516.912 185.218 513.871 181.794 511.319 178.014C506.696 171.37 500.936 166.224 493.088 163.68C488.982 162.347 484.75 161.818 480.507 161.374C479.089 161.225 477.134 160.58 476.322 161.807C475.579 162.934 477.245 164.235 477.735 165.51C478.003 166.053 478.325 166.569 478.694 167.049C479.185 168.556 479.895 169.982 480.802 171.28C481.121 172.43 481.658 173.508 482.383 174.454C485.435 180.801 490.626 184.922 496.645 188.169H488.213C480.454 181.611 476.844 172.301 472.116 163.743C469.28 158.546 465.258 154.096 460.379 150.758C457.186 148.576 453.855 146.604 450.407 144.855C442.739 140.957 436.372 135.63 431.491 128.458C424.065 117.567 413.851 110.231 401.734 105.402C392.136 101.578 382.439 100.366 372.519 104.095C366.722 106.269 361.567 109.639 356.355 112.902C349.503 117.208 342.124 119.826 333.908 118.72C327.804 117.906 321.965 115.954 316.167 113.96C308.788 111.432 301.584 111.421 294.484 114.907C291.965 116.144 289.419 117.334 286.868 118.514C283.443 120.101 279.985 121.688 276.159 121.963C269.344 122.439 263.067 121.106 257.975 116.097C257.295 115.425 256.252 114.156 255.804 116.213C254.434 122.518 254.855 130.732 261.296 135.953C265.781 139.587 271.046 141.544 276.391 143.221C286.136 146.283 293.509 152.255 299.054 160.728C300.883 163.526 302.822 166.25 304.756 168.98C308.537 174.418 313.441 178.975 319.134 182.34C324.099 185.239 324.832 185.117 328.621 180.717C328.827 180.435 329.003 180.134 329.148 179.817L332.342 177.099L335.621 175.062C336.585 174.655 337.539 174.237 338.504 173.84C341.497 172.608 344.517 171.725 347.853 172.037C353.108 172.502 358.027 174.826 361.731 178.596L363.813 181.769C364.392 183.885 365.273 185.905 365.394 188.116H361.177C360.487 180.553 352.154 174.412 344.523 176.205C337.503 177.794 331.377 182.067 327.446 188.116H320.594C320.484 187.45 319.83 187.45 319.414 187.233C312.251 183.666 306.106 178.336 301.552 171.741C299.265 168.408 296.888 165.14 294.6 161.813C289.976 154.888 283.109 149.781 275.163 147.357C268.105 145.13 261.101 142.543 255.746 136.445C254.339 142.792 251.224 147.399 245.105 149.763C247.524 150.499 249.548 151.049 251.53 151.731C258.871 154.259 264.706 158.639 268.032 165.859C269.128 168.234 270.519 170.836 268.432 173.264C266.529 175.475 263.884 174.56 261.522 174.068C252.816 172.254 244.567 173.19 236.751 177.892C241.347 180.167 245.078 183.023 246.291 188.206H242.074C240.919 185.925 239.138 184.022 236.941 182.721C231.027 179.363 226.879 182.827 227.844 188.206H223.627V184.059C215.722 187.265 207.716 188.45 199.452 185.757C194.251 183.912 189.737 180.516 186.512 176.025L185.722 174.914L185.796 174.999C185.595 174.623 185.395 174.248 185.19 173.872L185.263 173.92C183.84 170.217 183.303 166.467 184.494 162.601C187.129 154.058 195.509 148.557 204.575 149.34C208.464 149.674 212.059 150.631 214.357 154.101C217.835 159.39 214.288 166.673 207.305 168.768L205.724 168.932H203.051L198.888 168.324C197.386 165.885 197.623 165.266 200.39 164.394C201.512 164.558 202.635 164.738 203.768 164.88C205.484 165.112 207.224 164.69 208.645 163.699C210.066 162.707 211.066 161.217 211.447 159.522C212.027 156.618 210.203 154.614 206.103 153.651C199.357 152.064 192.184 155.656 189.074 162.114C187.282 165.817 187.493 169.45 189.469 172.973C193.296 179.749 203.484 184.308 211.194 183.218C219.295 182.071 226.51 178.675 233.415 174.676C242.717 169.292 252.478 167.996 262.851 169.99C263.541 170.122 264.353 170.519 264.848 169.99C265.344 169.461 264.695 168.683 264.426 168.08C261.127 160.723 255.082 156.841 247.561 154.963C241.738 153.585 236.299 150.907 231.649 147.129C227.169 143.427 222.689 139.782 217.819 136.551C206.045 128.754 193.654 126.697 180.325 132.166C176.678 133.663 172.904 134.847 169.183 136.175C158.642 139.936 148.075 140.116 137.497 136.318C136.638 136.011 135.779 135.429 134.782 136.101C135.336 138.059 136.188 139.92 137.307 141.618C140.414 146.381 144.749 150.211 149.851 152.699C157.309 156.486 162.806 162.183 167.212 169.191C171.381 175.819 175.782 182.303 180.942 188.233L175.144 188.217ZM462.429 114.166L462.387 114.214C462.962 114.452 463.267 114.161 463.473 113.685C465.507 112.865 467.552 112.13 469.797 112.521C471.31 113.251 472.844 113.939 474.014 115.224C477.355 120.741 475.194 126.612 469.102 128.749C465.613 129.976 462.419 129.421 459.356 127.474C458.829 127.125 458.197 126.147 457.58 127.575C455.372 132.637 451.451 135.773 445.832 137.519L462.303 147.039L466.018 149.769L469.181 152.905L472.68 157.1C473.94 154.302 473.302 151.662 473.366 149.097C473.481 144.337 474.678 142.803 479.226 141.808C487.185 140.068 487.211 140.068 487.606 132.06C487.78 128.506 489.33 126.062 492.819 124.999C494.073 124.613 495.307 124.152 496.54 123.703C503.002 121.344 503.439 114.246 500.999 109.326C500.625 108.575 500.25 108.126 499.491 109.009C496.139 112.897 491.733 112.548 487.369 111.834C481.661 110.903 476.354 108.253 470.599 107.57C466.567 107.089 462.851 108.168 460.437 111.733C458.176 115.076 458.16 118.704 460.158 122.19C460.653 123.05 461.345 123.779 462.177 124.317C463.008 124.856 463.955 125.189 464.94 125.288C465.924 125.387 466.919 125.25 467.84 124.888C468.762 124.526 469.584 123.949 470.24 123.206C471.568 121.619 472.348 119.9 470.767 117.996C469.413 116.361 467.515 116.287 465.391 117.726C464.263 118.488 463.109 119.794 461.702 118.382C460.295 116.97 461.575 115.832 462.376 114.711C462.424 114.653 462.514 114.595 462.508 114.542C462.496 114.412 462.469 114.285 462.429 114.161V114.166ZM243.65 127.971L243.613 127.929C243.787 130.489 242.454 131.526 240.04 131.531C239.17 131.531 238.306 131.663 237.436 131.737C234.147 132.943 232.466 136.202 233.294 139.751C234.727 145.876 242.612 148.044 247.424 143.638C253.401 138.18 252.926 129.109 246.37 123.745C236.003 115.25 220.903 117.171 211.453 128.379L215.5 130.209L218.873 132.155C219.806 133.043 220.887 133.759 222.067 134.271L229.093 139.841C229.051 134.297 230.384 129.902 235.697 127.855C237.984 127.368 240.288 127.03 242.633 127.395C242.939 127.643 243.033 128.241 243.65 127.966V127.971ZM446.776 115.806C447.582 123.348 441.774 126.623 432.688 123.391L437.078 128.955C437.695 129.696 438.306 130.441 438.923 131.187L440.256 132.732C440.783 133.414 441.231 134.054 442.333 134.006C449.922 133.673 455.91 126.31 454.935 118.435C454.144 112.087 446.048 106.555 439.339 107.814C434.279 108.766 431.829 114.912 434.922 118.884C436.504 120.942 439.587 121.455 441.458 119.984C443.229 118.599 443.213 117.208 441.4 114.848C441.252 113.69 441.6 112.817 442.77 112.394C444.193 111.865 444.973 112.923 445.89 113.664L446.776 115.806ZM363.417 73.0257C363.886 72.793 363.834 72.3434 363.871 71.9255C364.155 71.4971 364.435 71.0634 364.714 70.6349C366.617 67.7364 369.584 66.6256 372.825 67.6094C376.161 68.6197 377.532 70.6402 377.511 74.4856C376.072 75.9613 374.754 75.6757 373.51 74.2158C373.384 72.5126 372.72 71.3437 370.785 71.3966C368.851 71.4495 367.855 72.5074 367.555 74.2634C367.128 76.7441 367.555 78.9762 369.721 80.6106C374.427 84.1862 382.449 83.7842 386.202 79.7167C388.303 77.3721 389.463 74.3279 389.455 71.1743C389.447 68.0206 388.273 64.9822 386.16 62.648C378.554 54.3491 364.24 54.6506 357.114 63.8328C347.532 76.1887 345.819 89.9675 351.596 104.561C353.604 109.623 353.741 109.57 358.226 106.909C358.521 106.735 358.795 106.518 359.074 106.322L361.736 104.64C362.741 104.362 363.66 103.835 364.408 103.106L370.733 100.461C366.701 95.7381 364.846 90.7291 367.117 84.8315C367.423 84.0381 366.97 83.7049 366.532 83.3029C363.449 80.4731 362.843 76.9557 363.507 72.9887L363.417 73.0257ZM199.399 125.136L205.291 126.348C206.129 126.522 206.872 126.76 207.663 125.956C212.127 121.481 217.103 117.721 223.475 115.51C218.246 111.807 216.902 107.174 218.958 101.514C220.144 99.8215 221.266 98.0813 222.89 96.7537L225.825 95.3785C229.845 94.7755 232.832 96.2653 234.785 99.8479C235.309 101.435 235.419 103.13 235.107 104.772C234.875 105.83 234.411 106.846 233.125 106.888C232.863 106.926 232.596 106.908 232.342 106.836C232.087 106.763 231.851 106.637 231.648 106.466C231.446 106.295 231.281 106.083 231.166 105.844C231.051 105.605 230.987 105.345 230.98 105.079C230.98 104.46 231.038 103.847 231.022 103.233C230.932 99.721 228.561 98.4092 225.509 100.165C224.594 100.697 223.818 101.438 223.244 102.329C222.669 103.219 222.313 104.234 222.205 105.289C222.096 106.344 222.239 107.41 222.62 108.4C223.001 109.389 223.61 110.274 224.397 110.982C229.92 116.039 239.486 113.812 242.138 106.851C243.429 103.45 243.808 99.8532 244.161 96.2724C245.142 86.3654 248.847 82.0229 258.36 79.8754C258.603 79.8172 258.84 79.7273 259.103 79.6427C252.315 73.0786 239.197 74.11 232.561 81.843C229.082 85.8999 224.95 88.5023 219.596 89.0736C216.597 89.3962 213.635 88.899 210.72 88.4653C201.022 87.0319 194.46 91.5966 193.053 101.25C192.447 105.391 190.455 108.21 186.676 109.903C184.098 111.012 181.582 112.26 179.139 113.643C174.701 116.24 172.872 120.46 173.737 125.528C174.485 129.897 174.485 129.902 178.575 128.447C179.392 128.156 180.156 127.791 180.984 127.464L186.412 125.908L193.791 124.792H194.972C196.416 125.406 197.918 125.136 199.399 125.136ZM314.823 71.3754C315.245 71.4442 315.35 71.1374 315.493 70.8465C320.579 65.9486 325.027 66.0226 329.881 71.0845C331.915 73.2003 331.536 74.4485 328.553 75.3636L325.839 72.8882C324.257 71.513 322.56 70.7725 320.568 71.9097C318.576 73.0469 317.685 74.8664 317.801 77.199C317.88 78.7033 318.487 80.1311 319.514 81.2295C322.824 85.0325 327.161 85.5826 331.784 85.1066C338.952 84.3714 344.433 76.596 342.789 69.5348C341.118 62.2937 334.419 57.2794 325.823 56.5124C319.393 55.9412 313.806 58.2314 308.325 61.1935C304.416 63.3782 300.25 65.0611 295.923 66.2025C288.76 67.9903 282.394 66.6415 276.659 62.0345C275.748 61.3046 274.715 60.1092 273.992 62.2937C272.301 67.4137 272.612 74.6495 278.088 78.8387C280.992 81.0549 284.244 82.5412 287.532 84.0117C290.579 85.371 293.594 86.7621 296.25 88.8673C300.603 92.3159 302.748 97.1451 304.351 102.191C305.689 106.375 307.719 109.173 312.541 108.797H312.805L320.642 110.998C324.041 112.41 327.588 113.435 331.214 114.055C336.965 115.483 343.026 114.953 348.444 112.548C350.136 111.828 350.383 111.188 349.44 109.522C345.603 102.845 343.837 95.171 344.37 87.4815C344.501 85.5138 344.707 83.5515 344.928 80.9862C340.085 87.7089 333.96 90.3007 326.36 89.301C316.62 88.021 311.756 80.3514 314.965 71.4072L314.823 71.3754Z" fill="#FFF3E0"/>
<path d="M312.783 108.798H312.52C307.719 109.168 305.668 106.37 304.356 102.175C302.775 97.1292 300.609 92.3001 296.255 88.8514C293.62 86.7357 290.584 85.3552 287.538 83.9958C284.249 82.5307 280.997 81.0391 278.093 78.8229C272.617 74.6337 272.295 67.3979 273.998 62.2778C274.72 60.0933 275.753 61.2887 276.665 62.0186C282.399 66.6256 288.787 67.9744 295.928 66.1866C300.252 65.0499 304.417 63.3723 308.325 61.1935C313.801 58.242 319.393 55.9518 325.839 56.5336C334.435 57.3005 341.123 62.3148 342.804 69.5559C344.428 76.6172 338.967 84.3925 331.799 85.1277C327.177 85.6038 322.84 85.0537 319.53 81.2507C318.502 80.1523 317.896 78.7245 317.817 77.2202C317.701 74.8664 318.597 73.0786 320.584 71.9308C322.571 70.7831 324.273 71.5341 325.854 72.9147C324.574 72.9147 323.282 73.0257 322.85 74.5015C322.365 76.1517 322.887 77.6222 324.094 78.8387C327.04 81.8113 332.775 81.4834 335.415 78.2093C339.631 72.9834 337.76 65.8428 331.199 62.9813C324.426 60.0246 317.564 60.5799 311.171 63.9863C303.991 67.8885 296.089 70.2686 287.954 70.9788C286.584 71.0951 284.296 70.6931 283.959 72.1265C283.558 73.8191 285.751 74.4486 287.074 75.1891C294.453 79.3359 301.062 84.2761 304.857 92.189C307.52 97.697 310.162 103.233 312.783 108.798Z" fill="#5DBCEA"/>
<path d="M314.943 71.3852C311.734 80.3348 316.598 88.0043 326.338 89.2843C333.938 90.284 340.042 87.6975 344.906 80.9695C344.685 83.5348 344.479 85.4971 344.348 87.4648C343.82 95.1559 345.591 102.83 349.434 109.505C350.377 111.172 350.129 111.812 348.438 112.531C343.02 114.936 336.959 115.467 331.208 114.038C331.146 113.738 331.02 113.454 330.838 113.208C330.656 112.961 330.423 112.757 330.154 112.61C324.256 108.876 320.81 103.211 318.206 96.9697C314.896 89.0357 311.692 81.0382 304.929 75.2147C304.181 74.5694 304.102 73.5644 305.288 73.5591C308.672 73.5327 311.618 71.6232 314.943 71.3852Z" fill="#235DAB"/>
<path d="M312.783 108.799C310.137 103.249 307.488 97.7007 304.835 92.154C301.04 84.22 294.431 79.3009 287.052 75.154C285.73 74.4135 283.537 73.7841 283.938 72.0915C284.275 70.6581 286.573 71.0336 287.933 70.9437C296.067 70.2335 303.969 67.8535 311.149 63.9512C317.558 60.5449 324.42 59.9895 331.177 62.9462C337.734 65.8078 339.61 72.9484 335.394 78.1742C332.758 81.4536 327.019 81.7763 324.073 78.8037C322.866 77.5871 322.344 76.1167 322.829 74.4664C323.261 73.0119 324.552 72.8796 325.833 72.8796L328.547 75.3497C330.171 76.5927 331.82 76.5822 333.148 75.0535C334.366 73.6466 333.891 70.7321 332.437 69.2353C327.23 63.8454 321.553 62.9304 314.749 66.3102C311.392 67.9764 308.345 70.2296 304.487 70.9384C302.231 71.351 299.907 70.9384 297.731 71.7794C297.203 71.9857 296.344 71.6366 296.176 72.4353C296.028 73.1282 296.703 73.4932 297.193 73.8317C301.144 76.9274 304.437 80.7872 306.875 85.1826C308.983 88.8375 310.591 92.7622 312.578 96.4859C315.176 101.363 317.927 106.155 320.61 110.984L312.783 108.799Z" fill="#3F83C4"/>
<path d="M359.075 106.336C358.795 106.532 358.548 106.749 358.226 106.923C353.741 109.568 353.604 109.637 351.596 104.575C345.798 89.9866 347.532 76.2079 357.114 63.8467C364.24 54.6644 378.555 54.363 386.16 62.6619C388.273 64.9961 389.447 68.0345 389.455 71.1881C389.463 74.3418 388.304 77.386 386.202 79.7306C382.449 83.7769 374.428 84.2001 369.721 80.6245C367.555 78.9742 367.128 76.7421 367.555 74.2773C367.855 72.5212 368.904 71.4634 370.786 71.4105C372.667 71.3576 373.384 72.5265 373.511 74.2297C372.277 76.6364 373.057 78.2655 375.751 78.6516C378.444 79.0377 380.921 78.4188 382.629 76.2238C384.458 73.87 385.027 71.1249 383.894 68.2475C382.007 63.4606 378.201 61.1862 373.316 60.7736C366.464 60.2024 361.352 63.5717 357.968 69.1572C351.248 80.2648 351.512 91.8696 356.513 103.538C356.998 104.675 357.53 106.05 359.075 106.336Z" fill="#5DBCEA"/>
<path d="M320.62 110.983C317.937 106.154 315.186 101.362 312.587 96.4853C310.6 92.7828 308.977 88.8369 306.885 85.182C304.446 80.7865 301.154 76.9268 297.203 73.8311C296.718 73.4661 296.038 73.1276 296.185 72.4347C296.354 71.636 297.208 71.9851 297.74 71.7788C299.917 70.9272 302.241 71.3504 304.497 70.9378C308.355 70.229 311.401 67.9758 314.759 66.3096C321.563 62.9297 327.239 63.8448 332.447 69.2347C333.901 70.7368 334.376 73.6512 333.158 75.0529C331.83 76.5815 330.18 76.5921 328.557 75.3491C331.54 74.4341 331.92 73.1964 329.885 71.07C325.031 66.0081 320.583 65.9341 315.497 70.832L314.827 71.3609H314.943C311.618 71.5937 308.671 73.5031 305.267 73.5296C304.081 73.5296 304.16 74.5399 304.908 75.1852C311.67 81.0034 314.875 88.9903 318.185 96.9402C320.788 103.182 324.235 108.847 330.133 112.581C330.401 112.728 330.635 112.932 330.817 113.178C330.999 113.425 331.125 113.708 331.187 114.009C327.563 113.399 324.019 112.384 320.62 110.983Z" fill="#3574BB"/>
<path d="M359.074 106.339C357.529 106.053 356.997 104.678 356.512 103.541C351.51 91.8617 351.242 80.2675 357.967 69.1599C361.35 63.5743 366.447 60.205 373.315 60.7763C378.2 61.1889 382.006 63.4633 383.892 68.2501C385.026 71.1275 384.456 73.8727 382.627 76.2264C380.92 78.4215 378.411 79.0351 375.749 78.6542C373.088 78.2734 372.276 76.639 373.51 74.2324C374.753 75.6922 376.071 75.9778 377.51 74.5021C379.376 73.4442 379.924 71.7569 379.518 69.784C379.294 68.5633 378.736 67.4292 377.907 66.5083C377.077 65.5873 376.009 64.9158 374.822 64.5687C370.806 63.2623 367.301 64.4206 364.117 67.0547C359.938 70.5139 358.357 75.3167 357.266 80.3309C355.353 89.0478 356.739 97.2092 361.746 104.662L359.074 106.339Z" fill="#3F83C4"/>
<path d="M361.735 104.657C356.713 97.1993 355.342 89.0378 357.255 80.3263C358.357 75.312 359.938 70.5093 364.107 67.05C367.269 64.4054 370.795 63.2576 374.811 64.5641C375.999 64.9112 377.067 65.5827 377.896 66.5036C378.725 67.4246 379.283 68.5586 379.507 69.7793C379.913 71.7523 379.365 73.4396 377.499 74.4974C377.499 70.6468 376.15 68.6263 372.814 67.6213C369.573 66.6375 366.605 67.7482 364.703 70.6468C364.423 71.0752 364.144 71.509 363.859 71.9374C362.805 71.9374 363.496 72.6462 363.406 73.0376L363.485 73.0006C362.015 73.3549 361.841 74.7566 361.414 75.8198C359 81.8285 359.111 87.9482 360.734 94.1368C361.561 97.3104 363.369 100.056 364.397 103.129C363.651 103.854 362.736 104.379 361.735 104.657Z" fill="#3574BB"/>
<path d="M413.209 -19.8454C409.92 -13.4982 405.145 -8.96526 399.268 -5.56421C398.172 -4.9242 397.982 -4.50634 398.699 -3.39558C400.618 -0.454712 402.515 2.51261 404.223 5.59629C408.966 14.0592 416.529 17.4391 425.779 17.8887C426.39 17.9152 427.007 17.8887 427.624 17.8887C431.387 17.931 432.731 19.6659 431.613 23.3261C430.032 28.4304 427.26 32.7517 422.785 35.7561C416.202 40.178 408.956 41.0454 401.371 39.2682C397.624 38.3955 393.94 37.2477 390.245 36.1581C388.06 35.4771 385.763 35.2354 383.485 35.4469C381.206 35.6583 378.992 36.3188 376.969 37.3905C374.244 38.7922 371.556 40.2785 368.926 41.8547C360.72 46.7685 352.266 47.2657 343.517 43.4838C341.187 42.4736 338.773 41.622 336.512 40.5006C328.454 36.5125 320.337 36.5812 312.083 39.8395C308.505 41.2517 304.863 42.4841 301.237 43.78C291.344 47.2551 283.201 44.2402 276.255 36.9039C275.527 36.1422 275.058 35.4969 273.683 35.7667C257.792 38.8927 244.911 33.598 234.681 21.3479C230.153 15.9369 226.722 9.759 223.365 3.59163C216.777 -8.52095 205.972 -14.0007 193.102 -16.3333C190.545 -16.7935 188.047 -16.1958 185.644 -15.2331C184.362 -14.6754 183.051 -14.1864 181.717 -13.768C179.082 -13.0328 177.206 -14.1753 176.747 -16.9098C175.693 -23.257 178.107 -28.6522 181.828 -33.5395C185.254 -38.0407 189.945 -40.8652 195.278 -42.3145C202.194 -44.1312 208.412 -47.9786 213.135 -53.3639C220.998 -62.2394 230.18 -63.5776 240.673 -58.6533C245.791 -56.2678 251.056 -54.3531 256.88 -55.1094C261.624 -55.723 266.051 -57.3257 270.467 -59.0288C274.157 -60.4517 277.783 -61.9538 281.504 -63.2286C290.111 -66.1853 298.096 -64.7413 305.39 -59.4149C306.681 -58.4682 307.567 -58.3148 309.079 -59.087C324.764 -67.0951 344.392 -61.8004 354.074 -46.8951C356.709 -42.854 358.849 -38.5115 361.189 -34.2853C364.506 -28.1043 369.888 -23.2947 376.389 -20.7023C377.218 -20.3286 378.116 -20.1355 379.024 -20.1355C379.933 -20.1355 380.831 -20.3286 381.66 -20.7023C386.329 -22.6223 389.328 -26.4518 389.244 -30.4876C389.209 -31.8117 388.751 -33.0895 387.937 -34.1319C387.341 -34.9412 386.883 -35.2215 385.828 -34.4757C381.422 -31.3021 377.132 -31.3762 372.436 -34.4757C367.914 -37.443 365.732 -42.2034 366.755 -47.1384C368.278 -54.5064 372.626 -59.5789 379.499 -62.4404C380.706 -62.9429 381.248 -63.3714 381.291 -64.7995C381.586 -74.4049 391.305 -81.7783 400.791 -79.7101C406.004 -78.5782 411.022 -76.6106 416.355 -76.0076C419.612 -75.6321 422.854 -75.5263 425.942 -76.8539C428.309 -77.8694 429.742 -79.5303 429.632 -82.3336C429.495 -86.1843 431.497 -87.4855 434.939 -85.4385C441.986 -81.2546 446.982 -75.193 447.957 -66.9258C448.674 -60.8272 451.457 -57.5796 457.244 -56.2361C464.38 -54.5752 469.951 -50.5659 473.983 -44.3509C476.966 -39.6334 481.313 -35.9425 486.443 -33.7722C488.393 -32.9418 490.316 -32.323 492.52 -32.4076C495.814 -32.5345 497.063 -30.4453 495.323 -27.6102C491.455 -21.263 485.837 -17.6292 478.352 -17.1214C476.599 -16.973 474.836 -16.973 473.082 -17.1214C463.953 -18.0629 456.432 -14.7306 449.928 -8.56327C447.267 -6.04026 444.268 -4.09377 440.547 -3.59657C428.319 -1.97275 418.437 -5.53777 414.115 -16.9574C413.81 -17.7667 413.562 -18.6765 413.209 -19.8454ZM392.243 -11.594L393.244 -10.5362C394.398 -8.36755 395.879 -7.96029 397.845 -9.5894C398.652 -10.2559 399.621 -10.716 400.481 -11.3455C409.356 -17.9995 413.314 -26.7956 411.227 -37.7921C409.224 -48.4131 402.794 -55.358 392.459 -58.4206C382.508 -61.3773 373.854 -56.9025 371.234 -47.6039C369.5 -41.4471 374.017 -35.9673 380.368 -36.4698C383.968 -36.7713 385.913 -40.4474 384.021 -43.5099C383.562 -44.2558 383.318 -45.1142 383.314 -45.9906C383.395 -46.1373 383.425 -46.3065 383.399 -46.4719C385.085 -47.9159 386.456 -47.3235 387.615 -45.7473C388.775 -44.1711 389.407 -42.452 388.991 -40.5479C388.738 -39.4001 389.149 -38.813 389.913 -38.0778C393.766 -34.3752 394.562 -29.6518 392.243 -24.8544C390.614 -21.4745 387.926 -19.1472 384.558 -17.2536L389.676 -13.842L392.243 -11.594ZM293.157 -29.1494L293.131 -31.2968C293.268 -35.9673 293.215 -35.9462 288.619 -36.089C284.83 -36.2106 281.24 -35.523 278.052 -33.4866C269.824 -28.2502 261.281 -27.589 252.163 -30.9848C246.972 -32.9207 241.522 -34.005 235.898 -33.3808C232.736 -33.0264 229.811 -32.1378 227.181 -29.4509C235.202 -28.0598 240.236 -23.1037 244.531 -17.1055C247.051 -13.5723 250.002 -10.478 253.818 -8.25121C256.68 -6.57449 259.384 -5.6753 262.056 -8.48393L264.29 -9.5418L267.98 -10.515C279.122 -11.2873 287.328 -7.09283 291.671 3.61807L292.725 9.96527C292.725 10.1504 292.725 10.3355 292.688 10.4942C292.435 14.6675 292.44 14.6305 296.509 15.4715C298.576 15.8478 300.69 15.8728 302.765 15.5455C307.893 14.8897 312.442 12.4936 317.196 10.7534C322.514 8.80692 327.737 8.51071 333.092 10.4202C336.396 11.5997 339.696 12.7845 343.048 13.8C348.993 15.609 354.996 16.6298 361.031 14.1544C363.255 13.2523 365.252 11.8647 366.876 10.0922C356.092 9.03436 349.098 3.5017 344.487 -5.38967C343.796 -6.61411 343.043 -7.80222 342.231 -8.94938C340.891 -11.0294 339.008 -12.6999 336.786 -13.7785C334.873 -14.7095 333.424 -14.6248 332.612 -12.398L329.935 -10.2135L325.66 -8.13483C321.686 -7.32557 317.686 -6.92886 313.68 -7.71697C304.315 -9.56824 298.127 -15.249 294.522 -23.9711C294.072 -25.7025 293.617 -27.4286 293.157 -29.1494ZM435.461 -21.9188L433.189 -20.7922C429.964 -20.1522 427.091 -21.0144 424.446 -22.8498C423.702 -23.7331 422.337 -24.0928 422.258 -25.5262C422.822 -27.8006 424.129 -28.0915 425.948 -26.9067C426.538 -26.5258 427.081 -26.0657 427.687 -25.7166C429.658 -24.5794 431.708 -24.2514 433.537 -25.8647C435.366 -27.4779 435.329 -29.5672 434.407 -31.683C434.016 -32.6227 433.417 -33.4607 432.656 -34.1334C431.894 -34.8061 430.99 -35.2958 430.011 -35.5653C424.894 -37.0834 419.37 -33.9785 417.578 -28.5887C415.349 -21.8924 419.159 -12.7207 425.616 -9.36724C432.378 -5.82868 441.954 -7.02407 447.699 -12.0436C452.785 -16.492 458.208 -20.4325 465.187 -21.0355C469.282 -21.3952 473.424 -21.1466 477.546 -21.2577C482.232 -21.3899 486.184 -23.2676 489.505 -26.547C490.295 -27.3298 490.559 -27.8641 489.115 -28.2713C480.487 -30.6568 474.147 -36.0943 469.292 -43.4623C466.707 -47.4085 462.769 -50.2655 458.224 -51.4915C456.643 -51.9517 455.062 -52.5124 453.454 -52.9725C448.052 -54.5593 445.022 -58.1402 444.384 -63.7046C443.758 -69.9997 440.678 -75.7911 435.814 -79.8159C434.655 -80.7997 433.927 -81.1171 433.474 -79.1865C432.631 -75.632 429.906 -73.8972 426.749 -72.7123C422.959 -71.3107 419.027 -71.3159 415.075 -71.7973C410.178 -72.3897 405.588 -74.1934 400.844 -75.3729C394.794 -76.8592 388.343 -73.6856 386.118 -68.0895C384.748 -64.6461 385.138 -63.8844 388.627 -63.2867C389.312 -63.1704 390.019 -63.1651 390.735 -63.1069L395.479 -61.9538C396.385 -61.3656 397.402 -60.9713 398.467 -60.7955C398.994 -60.4675 399.474 -60.1131 400.001 -59.8169C408.608 -55.0142 413.63 -47.6779 415.401 -38.0037C415.602 -36.8877 415.185 -35.6235 416.039 -34.4546C419.075 -37.9138 422.712 -39.8021 427.134 -40.0507C429.515 -40.2165 431.888 -39.6148 433.905 -38.3333C435.922 -37.0518 437.479 -35.1573 438.349 -32.9259C440.104 -28.5411 439.256 -25.3358 435.445 -21.9241L435.461 -21.9188ZM271.811 3.67626L272.339 4.20519C272.966 6.59068 272.502 8.89683 271.811 11.1871C271.021 13.8847 269.097 15.4609 266.504 16.175C265.167 16.5425 263.77 16.6406 262.395 16.4636C261.02 16.2865 259.693 15.8379 258.492 15.1435C257.29 14.4491 256.237 13.5228 255.395 12.4179C254.552 11.3131 253.935 10.0516 253.581 8.70641C252.564 5.10437 253.243 1.72977 254.967 -1.47556C255.452 -2.38004 255.8 -2.87724 254.482 -3.3903C248.236 -5.82339 244.041 -10.642 240.31 -15.9578C236.789 -20.9773 232.256 -24.4207 226.079 -25.5103C224.451 -25.7959 222.706 -26.2878 222.337 -28.3084C222 -30.1755 223.17 -31.482 224.403 -32.5927C227.692 -35.5759 231.629 -37.0992 235.998 -37.57C242.918 -38.3105 249.354 -36.1419 255.768 -34.1319C262.182 -32.122 268.143 -32.5716 273.925 -36.0255C279.585 -39.4054 285.62 -41.209 292.266 -39.7968C293.363 -39.5641 293.847 -39.9079 294.195 -40.934C294.896 -43.0074 295.713 -45.0385 296.483 -47.0855L298.18 -49.7302L300.225 -52.3748C300.62 -52.7186 301.031 -53.0519 301.405 -53.4327C303.698 -55.6807 303.672 -55.6436 300.826 -57.368C294.944 -60.933 288.74 -61.3932 282.379 -59.1663C276.834 -57.2304 271.406 -54.9349 265.861 -52.9937C260.316 -51.0525 254.482 -50.1057 248.547 -51.3804C243.804 -52.4013 239.535 -54.8079 234.944 -56.2889C229.031 -58.1878 223.707 -57.4949 219.069 -53.1153C217.277 -51.4228 215.449 -49.7725 213.709 -48.0323C209.765 -43.9845 204.872 -40.9931 199.479 -39.3313C197.705 -38.8299 195.964 -38.2169 194.266 -37.4959C187.014 -34.2641 181.939 -29.1758 180.816 -20.935C180.415 -17.9518 180.816 -17.6398 183.409 -18.8193C187.478 -20.66 191.668 -21.2524 195.974 -20.1681C206.167 -17.5975 215.738 -13.8209 222.49 -5.14636C225.8 -0.914894 228.288 3.84551 231.049 8.47897C234.117 13.6361 237.406 18.6451 241.701 22.866C248.026 29.0651 255.815 32.0641 264.454 32.6089C273.941 33.2119 285.009 28.5203 287.776 16.2755C290.743 2.99393 283.175 -6.8654 270.167 -6.4687C262.704 -6.24126 256.833 -0.327774 257.36 6.41613C257.644 10.034 260.369 12.3243 264.185 12.1709C267.226 12.044 268.438 10.4519 268.502 6.50076C268.502 6.06175 268.454 5.62273 268.433 5.18371C269.029 3.53873 270.278 3.27956 271.817 3.67626H271.811ZM315.23 -24.6323C312.426 -30.5563 317.913 -38.083 324.849 -37.0516C331.785 -36.0202 339.374 -30.1755 336.554 -19.9882C336.18 -18.6395 336.512 -18.1634 337.746 -17.7297C340.991 -16.5475 343.743 -14.2973 345.551 -11.3455C347.185 -8.8489 348.656 -6.24654 350.295 -3.7394C353.784 1.67688 358.801 4.72353 365.105 5.71264C366.159 5.87661 367.166 6.08819 368.199 6.24158C369.711 6.46902 371.24 6.77052 371.788 8.43137C372.336 10.0922 371.472 11.5203 370.317 12.6893C366.223 17.0051 360.589 19.5127 354.653 19.6606C347.201 19.9039 340.344 17.5449 333.571 14.8579C328.582 12.7925 322.981 12.7925 317.992 14.8579C316.2 15.5632 314.406 16.2684 312.611 16.9736C307.667 18.8937 302.597 20.2425 297.252 19.6765C295.297 19.4755 292.772 18.3171 291.539 19.1476C290.09 20.1155 289.763 22.7761 288.946 24.7014C288.234 25.7592 287.518 26.7748 286.806 27.8168L283.501 30.9904C282.718 31.5494 281.901 32.0599 281.056 32.519C279.143 33.4129 279.475 34.2327 280.798 35.5286C286.11 40.6011 292.256 42.1562 299.244 39.9928C303.261 38.7445 307.187 37.2053 311.119 35.6926C319.879 32.3339 328.549 32.1382 337.161 36.2215C339.459 37.3058 341.846 38.2156 344.149 39.2946C352.192 43.0659 359.961 42.4682 367.503 37.9088C370.054 36.3643 372.684 34.9362 375.345 33.5927C380.145 31.089 385.717 30.5213 390.92 32.0059C395.732 33.3124 400.407 35.2748 405.408 35.7455C414.574 36.6077 422.469 33.6298 426.833 24.384C427.571 22.7972 427.645 22.1942 425.51 22.1096C414.363 21.6388 405.688 16.889 400.054 6.96094C398.014 3.36948 395.811 -0.142654 393.518 -3.57543C389.676 -9.32494 384.369 -13.1438 377.875 -15.4976C368.915 -18.7399 361.563 -23.9605 357.189 -32.8043C355.549 -36.1101 353.768 -39.3578 351.886 -42.5367C343.775 -56.2202 328.248 -61.9168 313.781 -56.5852C304.294 -53.0836 296.978 -43.3618 297.073 -33.3121C297.184 -21.4904 304.837 -12.4192 317.201 -11.245C324.274 -10.5785 330.045 -14.043 332.327 -19.856C334.9 -26.3989 330.283 -33.1798 323.51 -32.8202C320.912 -32.6826 318.872 -30.9107 318.608 -28.4829C318.434 -26.8961 319.662 -25.743 320.126 -24.3414L319.599 -23.2835C317.702 -21.7602 316.511 -22.9132 315.383 -24.4048L315.23 -24.6323Z" fill="#FFF3E0"/>
<path d="M320.092 -24.3921C319.634 -25.7938 318.401 -26.9257 318.575 -28.5337C318.838 -30.9615 320.878 -32.7334 323.476 -32.8709C330.249 -33.2306 334.866 -26.4497 332.294 -19.9068C330.012 -14.0885 324.24 -10.6293 317.167 -11.2957C304.803 -12.47 297.139 -21.5412 297.039 -33.3628C296.944 -43.3703 304.244 -53.1079 313.747 -56.6359C328.214 -61.9676 343.741 -56.271 351.853 -42.5874C353.734 -39.4138 355.516 -36.1609 357.155 -32.8551C361.556 -23.9637 368.892 -18.7643 377.842 -15.5008C384.335 -13.147 389.642 -9.32809 393.484 -3.57858C395.777 -0.145802 397.98 3.36631 400.02 6.95776C405.654 16.8858 414.329 21.6357 425.476 22.1064C427.611 22.1911 427.537 22.8099 426.799 24.3808C422.435 33.6107 414.54 36.6045 405.375 35.7423C400.357 35.2716 395.698 33.3092 390.886 32.0028C385.683 30.5181 380.111 31.0858 375.312 33.5896C372.65 34.9331 370.041 36.3612 367.469 37.9057C359.906 42.4809 352.158 43.0628 344.115 39.2915C341.812 38.2336 339.425 37.3027 337.127 36.2184C328.515 32.1509 319.845 32.3466 311.085 35.6895C307.153 37.2022 303.227 38.7414 299.211 39.9897C292.248 42.153 286.103 40.5979 280.764 35.5255C279.415 34.2296 279.109 33.4098 281.022 32.5159C281.868 32.0568 282.684 31.5463 283.468 30.9872C287.305 35.0918 291.843 36.8584 297.466 35.4673C300.456 34.7737 303.4 33.8904 306.278 32.8226C317.505 28.4642 328.747 27.6814 340.147 32.1773C342.998 33.304 346.008 34.0074 348.933 34.9384C355.041 36.8901 360.818 35.9962 366.536 33.2616C372.439 30.4371 378.042 26.7875 384.841 26.2162C389.236 25.846 393.316 27.2371 397.49 28.1892C401.807 29.1783 406.155 29.776 410.455 28.2421C412.748 27.4275 412.98 26.1263 410.983 24.9838C403.525 20.6413 398.407 14.0984 393.938 6.96306C388.667 -1.42054 382 -8.02164 373.04 -12.5493C363.026 -17.6165 355.442 -25.3971 350.003 -35.4098C345.259 -44.1848 338.339 -50.6431 327.956 -52.1294C318.996 -53.42 310.927 -52.0554 305.419 -43.8199C298.041 -32.7863 302.189 -18.8119 315.681 -16.7596C317.076 -16.5304 318.505 -16.6321 319.854 -17.0564C321.203 -17.4807 322.435 -18.2159 323.45 -19.2033C325.263 -20.8218 325.031 -21.8162 322.722 -22.7154C321.695 -23.0962 320.973 -23.8526 320.092 -24.3921Z" fill="#5DBCEA"/>
<path d="M288.94 24.6985C289.757 22.7732 290.084 20.1127 291.534 19.1447C292.767 18.3196 295.291 19.478 297.247 19.6737C302.617 20.2396 307.661 18.8909 312.605 16.9708C314.397 16.2656 316.191 15.5603 317.986 14.8551C322.976 12.7897 328.577 12.7897 333.566 14.8551C340.328 17.4998 347.185 19.9011 354.648 19.6578C360.584 19.5099 366.218 17.0023 370.312 12.6865C371.466 11.5175 372.346 10.1423 371.782 8.42853C371.218 6.71479 369.706 6.4662 368.193 6.23876C367.139 6.08537 366.132 5.87379 365.099 5.70982C358.775 4.71543 353.778 1.67406 350.289 -3.74222C348.676 -6.24936 347.206 -8.85172 345.546 -11.3483C343.737 -14.3001 340.986 -16.5504 337.74 -17.7325C336.507 -18.1662 336.159 -18.6423 336.549 -19.9911C339.369 -30.1783 331.806 -36.0283 324.843 -37.0545C317.881 -38.0806 312.421 -30.5591 315.225 -24.6351C313.949 -24.2701 313.243 -25.1164 312.589 -25.9469C308.647 -30.9506 310.365 -39.1702 315.968 -42.2116C322.819 -45.9141 333.234 -43.6291 337.824 -37.2872C340.01 -34.2428 342.029 -31.0822 343.875 -27.8193C349.235 -18.4201 357.004 -11.708 366.538 -6.89467C371.836 -4.27464 376.32 -0.250713 379.504 4.74187C382.06 8.73003 384.527 12.824 388.543 15.6115C388.948 15.8971 389.486 16.2673 389.233 16.8809C388.98 17.4945 388.332 17.3675 387.847 17.2988C385.95 17.029 384.105 16.6852 382.128 17.0872C377.032 18.145 372.694 20.8162 368.23 23.2228C363.982 25.5131 359.465 27.1105 354.664 26.7138C348.792 26.2324 343.216 24.2331 337.687 22.2284C333.998 20.8796 330.224 19.9117 326.177 19.9011C321.054 19.9011 316.637 22.0539 312.067 23.7676C306.855 25.7194 301.616 27.4701 295.956 26.8407C293.536 26.5815 290.859 26.8143 288.94 24.6985Z" fill="#235DAB"/>
<path d="M296.519 -47.0939C295.749 -45.0469 294.938 -43.0158 294.232 -40.9424C293.889 -39.9163 293.399 -39.5725 292.302 -39.8052C285.656 -41.2174 279.622 -39.4138 273.961 -36.0339C268.164 -32.5799 262.197 -32.1303 255.804 -34.1403C249.411 -36.1502 242.955 -38.3189 236.034 -37.5784C231.644 -37.1076 227.707 -35.5843 224.439 -32.6011C223.206 -31.485 222.036 -30.1839 222.373 -28.3167C222.742 -26.2962 224.482 -25.8043 226.115 -25.5187C232.292 -24.4608 236.825 -20.9857 240.346 -15.9661C244.077 -10.6504 248.252 -5.83177 254.518 -3.39867C255.836 -2.86974 255.488 -2.38841 255.003 -1.48394C253.28 1.7214 252.6 5.096 253.617 8.69804C253.971 10.0433 254.588 11.3047 255.431 12.4095C256.274 13.5144 257.326 14.4407 258.528 15.1351C259.729 15.8295 261.056 16.2782 262.431 16.4552C263.806 16.6322 265.203 16.5341 266.54 16.1666C269.133 15.4525 271.057 13.8763 271.848 11.1787C272.522 8.88845 272.986 6.58229 272.375 4.1968C273.429 4.72574 273.429 5.95816 274.051 6.79387C277.835 11.9087 273.476 21.768 265.734 22.1753C256.827 22.6407 250.449 18.2083 245.379 11.5966C240.778 5.60907 236.609 -0.706409 232.166 -6.8103C228.914 -11.2798 225.715 -15.8022 221.256 -19.2191C217.124 -22.3927 212.628 -24.9104 208.006 -27.2589C207.136 -27.6979 205.597 -27.7878 205.718 -29.0361C205.808 -30.0199 207.199 -30.0939 208.101 -30.3531C211.79 -31.4798 214.852 -33.6695 217.714 -36.1714C219.564 -37.7846 221.324 -39.509 223.196 -41.0958C227.296 -44.5815 231.934 -46.7183 237.426 -46.0413C240.371 -45.6089 243.291 -45.0228 246.175 -44.2853C256.157 -41.9685 266.108 -41.0852 275.864 -45.158C282.557 -47.9719 289.351 -49.4635 296.519 -47.0939Z" fill="#235CAB"/>
<path d="M320.094 -24.3933C320.984 -23.8643 321.675 -23.0974 322.729 -22.7007C325.064 -21.8015 325.269 -20.8071 323.456 -19.1886C322.44 -18.2083 321.211 -17.4793 319.865 -17.0597C318.519 -16.6401 317.094 -16.5413 315.703 -16.7713C302.211 -18.8236 298.063 -32.798 305.442 -43.8316C310.949 -52.0671 319.018 -53.4317 327.978 -52.1411C338.361 -50.6548 345.26 -44.2071 350.025 -35.4215C355.464 -25.4088 363.038 -17.6282 373.062 -12.561C382.022 -8.03336 388.716 -1.45342 393.96 6.95134C398.429 14.0867 403.547 20.6296 411.005 24.9721C412.997 26.1305 412.765 27.4158 410.478 28.2303C406.177 29.7589 401.829 29.1665 397.512 28.1774C393.343 27.2254 389.264 25.8343 384.863 26.2045C378.064 26.7758 372.461 30.436 366.558 33.2499C360.84 35.9792 355.064 36.8784 348.955 34.9267C346.03 33.9957 343.02 33.2922 340.169 32.1656C328.769 27.6697 317.506 28.4631 306.301 32.8109C303.422 33.8786 300.479 34.762 297.488 35.4556C291.865 36.8467 287.327 35.08 283.49 30.9755L286.795 27.8019C287.179 28.6905 288.001 29.0343 288.787 29.4257C294.727 32.3719 300.735 31.3616 306.707 29.6267C309.99 28.6746 313.195 27.4369 316.457 26.4161C319.625 25.3945 322.919 24.816 326.244 24.6971C330.872 24.5595 335.014 26.2574 339.289 27.4581C344.259 28.8545 349.113 30.7428 354.305 31.1024C361.683 31.6314 367.934 28.3203 374.043 24.7923C378.633 22.1476 383.224 20.1694 388.753 21.5235C391.873 22.2851 395.04 23.1103 398.298 23.1684C399.183 23.1684 400.537 23.7397 400.854 22.5813C401.107 21.6557 399.905 20.9945 399.162 20.418C395.508 17.5394 392.278 14.1559 389.57 10.3682C386.602 6.34306 383.877 2.12217 380.736 -1.7602C377.363 -5.94407 372.435 -8.14972 367.982 -10.9372C360.75 -15.4596 353.598 -20.0825 349.134 -27.7361C347.943 -29.7831 346.768 -31.846 345.635 -33.9299C340.274 -43.7681 330.656 -48.7877 318.813 -47.2644C308.736 -45.9685 303.908 -33.2423 307.813 -25.7421C309.442 -22.6108 313.943 -19.7757 317.053 -20.1935C318.723 -20.4157 320.478 -20.8706 319.551 -23.3195L320.094 -24.3933Z" fill="#3F83C4"/>
<path d="M268.431 5.21097C268.431 5.64998 268.505 6.08899 268.5 6.52801C268.436 10.4791 267.224 12.0712 264.183 12.1982C260.367 12.3516 257.642 10.0824 257.358 6.44337C256.831 -0.300529 262.702 -6.214 270.165 -6.44144C283.173 -6.84343 290.72 3.01589 287.774 16.3027C285.033 28.5475 273.923 33.2286 264.452 32.6362C255.814 32.1072 248.008 29.0923 241.699 22.8932C237.404 18.6617 234.115 13.6633 231.047 8.50623C228.307 3.89393 225.777 -0.882351 222.488 -5.11911C215.737 -13.7672 206.15 -17.5702 195.972 -20.1408C191.666 -21.2251 187.476 -20.6327 183.407 -18.792C180.772 -17.6125 180.414 -17.9246 180.814 -20.9078C181.937 -29.1486 187.012 -34.2369 194.265 -37.4687C195.962 -38.1897 197.703 -38.8027 199.477 -39.3041C204.87 -40.9659 209.763 -43.9573 213.707 -48.0051C215.447 -49.7452 217.276 -51.3955 219.068 -53.0881C223.706 -57.4571 229.029 -58.15 234.942 -56.2617C239.533 -54.7807 243.792 -52.374 248.546 -51.3532C254.48 -50.0785 260.251 -50.9829 265.859 -52.9664C271.467 -54.9499 276.832 -57.1979 282.377 -59.1391C288.76 -61.3659 294.963 -60.9057 300.824 -57.3407C303.67 -55.6164 303.696 -55.6534 301.404 -53.4055C301.029 -53.0405 300.618 -52.7073 300.223 -52.3476C295.369 -55.4101 290.209 -56.8118 284.411 -55.6111C280.898 -54.8443 277.458 -53.7737 274.129 -52.4111C267.656 -49.8405 261.168 -47.4602 254.001 -48.1796C249.557 -48.6899 245.172 -49.6305 240.909 -50.9882C232.086 -53.6646 224.143 -52.94 217.349 -46.048C211.705 -40.3196 205.159 -36.1093 197.321 -33.9989C193.98 -33.0997 191.682 -30.5238 189.484 -27.9796C188.615 -26.9694 188.398 -26.1231 190.217 -25.9485C197.358 -25.2768 203.704 -22.2883 209.892 -18.9243C213.97 -16.6755 217.644 -13.7558 220.759 -10.2868C225.466 -5.12441 229.192 0.741474 233.177 6.41693C237.161 12.0924 241.025 17.715 246.464 22.0522C253.721 27.8229 261.785 30.5151 271.024 27.9816C279.663 25.6225 285.207 14.901 282.092 6.51743C280.58 2.42348 277.976 -0.702522 273.343 -1.29493C270.966 -1.59642 268.7 -0.882362 267.256 1.08527C266.081 2.67736 267.377 4.005 268.431 5.21097Z" fill="#5DBCEA"/>
<path d="M319.56 -23.3466C320.488 -20.8976 318.733 -20.4427 317.062 -20.2206C313.953 -19.8027 309.451 -22.6378 307.823 -25.7691C303.917 -33.2694 308.745 -45.9955 318.822 -47.2914C330.665 -48.8147 340.284 -43.7952 345.644 -33.957C346.777 -31.873 347.953 -29.8101 349.144 -27.7632C353.608 -20.1095 360.739 -15.4866 367.991 -10.9642C372.445 -8.17676 377.373 -5.9711 380.746 -1.78724C383.908 2.09513 386.612 6.31602 389.579 10.3412C392.288 14.1288 395.517 17.5124 399.171 20.3909C399.915 20.9569 401.116 21.6287 400.863 22.5543C400.547 23.7127 399.193 23.152 398.307 23.1414C395.05 23.0991 391.882 22.2581 388.762 21.4964C383.233 20.1424 378.643 22.1153 374.052 24.7652C367.944 28.2932 361.693 31.5832 354.314 31.0754C349.123 30.7157 344.269 28.8275 339.298 27.4311C335.024 26.2304 330.866 24.5325 326.254 24.67C322.927 24.7976 319.634 25.3849 316.467 26.4155C313.204 27.4364 310 28.6741 306.716 29.6261C300.739 31.361 294.731 32.3713 288.796 29.4251C288.011 29.0337 287.189 28.6899 286.804 27.8013L288.944 24.6859C290.862 26.8016 293.54 26.5583 295.985 26.8334C301.646 27.4734 306.885 25.712 312.097 23.7603C316.667 22.0465 321.084 19.8779 326.206 19.8938C330.254 19.8938 334.002 20.8723 337.717 22.2211C343.246 24.2257 348.822 26.2251 354.694 26.7064C359.495 27.1031 364.012 25.5058 368.26 23.2155C372.724 20.8088 377.062 18.1218 382.158 17.0798C384.135 16.6778 385.979 17.0216 387.877 17.2914C388.362 17.3602 389.015 17.4818 389.263 16.8735C389.511 16.2653 388.978 15.8897 388.572 15.6041C384.556 12.8166 382.09 8.72797 379.534 4.73452C376.35 -0.25806 371.866 -4.28199 366.568 -6.90202C357.023 -11.7153 349.254 -18.4275 343.905 -27.8266C342.054 -31.0863 340.029 -34.2434 337.838 -37.284C333.248 -43.6312 322.823 -45.895 315.982 -42.2083C310.379 -39.1828 308.661 -30.9473 312.603 -25.9436C313.257 -25.1132 313.963 -24.2669 315.239 -24.6319C315.165 -24.5261 315.096 -24.415 315.028 -24.3039L315.381 -24.4679C316.472 -22.9763 317.663 -21.8232 319.56 -23.3466Z" fill="#3574BB"/>
<path d="M268.433 5.21178C267.379 4.00581 266.082 2.67819 267.268 1.06495C268.712 -0.902687 270.957 -1.61675 273.356 -1.31525C277.988 -0.722851 280.592 2.38727 282.105 6.49709C285.209 14.8807 279.664 25.6022 271.036 27.9612C261.797 30.4895 253.733 27.8025 246.476 22.0319C241.026 17.7158 237.173 12.0033 233.221 6.40718C229.268 0.811062 225.51 -5.13416 220.803 -10.2966C217.688 -13.7656 214.014 -16.6852 209.935 -18.934C203.748 -22.2981 197.402 -25.2812 190.261 -25.9583C188.442 -26.1328 188.679 -26.9791 189.528 -27.9894C191.726 -30.5335 194.024 -33.1095 197.365 -34.0086C205.218 -36.1244 211.764 -40.3294 217.393 -46.0577C224.187 -52.9339 232.151 -53.6744 240.952 -50.998C245.214 -49.6405 249.597 -48.7 254.039 -48.1894C261.207 -47.47 267.695 -49.8502 274.167 -52.4208C277.496 -53.7834 280.937 -54.8541 284.45 -55.6209C290.205 -56.8216 295.386 -55.4199 300.262 -52.3574L298.217 -49.7127C296.361 -49.6492 294.975 -50.9768 293.268 -51.3841C287.755 -52.7064 282.51 -51.6592 277.319 -49.7656C271.49 -47.6498 265.813 -45.2432 259.32 -45.4495C253.185 -45.6452 247.409 -47.3272 241.506 -48.5067C233.6 -50.0935 226.48 -49.5223 220.582 -42.9582C218.382 -40.573 215.929 -38.4358 213.266 -36.5845C209.018 -33.5643 204.148 -32.1521 199.373 -30.4278C198.683 -30.1792 197.645 -30.0152 197.608 -29.079C197.571 -28.1428 198.609 -27.9312 199.289 -27.6456C202.451 -26.3338 205.656 -25.1331 208.644 -23.4458C213.999 -20.4203 219.375 -17.3578 223.402 -12.5657C230.09 -4.55234 236.051 4.03226 242.291 12.3841C247.24 18.9905 253.391 23.5711 261.824 25.0785C270.784 26.6653 276.95 20.8841 278.357 13.5372C279.411 7.93579 276.56 3.77836 271.838 3.71489C270.278 3.28117 269.028 3.54035 268.433 5.21178Z" fill="#3F83C5"/>
<path d="M294.532 -23.9644C298.132 -15.2423 304.32 -9.56155 313.685 -7.71028C317.691 -6.92217 321.691 -7.31887 325.665 -8.12814C329.908 -6.54134 332.517 -3.28839 335.068 0.863733C333.408 0.593977 332.306 0.456459 331.226 0.223728C323.241 -1.47415 315.377 -1.77036 307.508 1.14407C302.47 3.00591 297.268 4.76198 291.697 3.61419C287.354 -7.09671 279.148 -11.2912 267.98 -10.5189C266.177 -12.2803 264.343 -14.0152 262.582 -15.8083C262.124 -16.2737 261.528 -16.9084 261.961 -17.6542C262.314 -18.2678 263.067 -18.0615 263.647 -18.0298C271.026 -17.6542 277.993 -19.5214 284.835 -22.0391C287.971 -23.2133 291.149 -24.1125 294.532 -23.9644Z" fill="#235CAB"/>
<path d="M271.815 3.67942C276.559 3.74289 279.41 7.91088 278.335 13.5017C276.928 20.8486 270.772 26.6298 261.801 25.043C253.369 23.5567 247.218 18.9762 242.269 12.3486C236.018 3.99677 230.068 -4.57723 223.379 -12.6012C219.374 -17.3933 213.998 -20.4558 208.622 -23.4813C205.633 -25.1686 202.424 -26.3693 199.267 -27.6811C198.587 -27.9667 197.549 -28.1518 197.585 -29.1145C197.622 -30.0771 198.64 -30.2147 199.351 -30.4633C204.126 -32.1876 208.996 -33.5998 213.244 -36.62C215.906 -38.4713 218.359 -40.6085 220.56 -42.9937C226.457 -49.5578 233.572 -50.129 241.484 -48.5422C247.387 -47.3627 253.163 -45.6807 259.298 -45.485C265.791 -45.2787 271.467 -47.68 277.297 -49.8011C282.488 -51.6947 287.732 -52.7419 293.245 -51.4196C294.953 -51.0123 296.339 -49.6847 298.194 -49.7482L296.497 -47.1035C289.319 -49.4731 282.536 -47.9815 275.805 -45.1676C266.049 -41.0948 256.099 -41.994 246.116 -44.2949C243.232 -45.0324 240.312 -45.6186 237.367 -46.0509C231.875 -46.728 227.237 -44.5911 223.137 -41.1054C221.266 -39.5186 219.505 -37.7943 217.656 -36.181C214.794 -33.6845 211.737 -31.4947 208.042 -30.3628C207.141 -30.093 205.749 -30.0295 205.66 -29.0457C205.539 -27.7921 207.078 -27.7075 207.947 -27.2685C212.569 -24.92 217.065 -22.4076 221.197 -19.2287C225.656 -15.7906 228.855 -11.2947 232.107 -6.81992C236.55 -0.716022 240.719 5.59944 245.32 11.587C250.407 18.2039 256.768 22.6364 265.675 22.1656C273.418 21.7584 277.797 11.899 273.992 6.78426C273.375 5.94854 273.391 4.71083 272.316 4.18719L271.815 3.67942Z" fill="#3574BB"/>
<path d="M332.6 -12.3992C333.412 -14.626 334.861 -14.7107 336.775 -13.7797C338.996 -12.7011 340.879 -11.0305 342.219 -8.95056C343.031 -7.80341 343.784 -6.61529 344.475 -5.39085C349.086 3.50052 356.07 9.01202 366.864 10.091C365.243 11.8622 363.25 13.2498 361.029 14.1533C354.995 16.6287 348.992 15.6078 343.046 13.7989C339.694 12.7833 336.395 11.5985 333.09 10.419C327.741 8.50953 322.513 8.80574 317.195 10.7522C312.451 12.4924 307.892 14.8885 302.764 15.5443C300.689 15.8716 298.574 15.8466 296.508 15.4703C292.439 14.6293 292.434 14.6663 292.687 10.493C294.474 10.9361 296.311 11.1459 298.152 11.1172C302.29 11.2071 306.105 9.85301 309.905 8.50952C317.554 5.74809 325.873 5.4632 333.691 7.69496C337.834 8.83041 342.003 9.85654 346.198 10.7734C348.467 11.2504 350.817 11.1723 353.05 10.5459C349.276 7.90125 346.441 4.56898 343.974 0.898178C340.685 -3.9733 337.776 -9.15686 332.6 -12.3992Z" fill="#5DBCEA"/>
<path d="M332.6 -12.395C337.776 -9.15266 340.685 -3.9691 343.958 0.897085C346.425 4.56788 349.26 7.88429 353.034 10.5448C350.801 11.1713 348.451 11.2493 346.182 10.7723C341.987 9.86252 337.818 8.83638 333.675 7.69389C325.861 5.46723 317.548 5.75394 309.905 8.51373C306.105 9.85722 302.289 11.2113 298.152 11.1214C296.311 11.1501 294.474 10.9403 292.686 10.4972C292.686 10.3121 292.713 10.127 292.723 9.96829C293.472 9.01093 293.008 7.08032 295.243 7.32363C298.89 7.69917 302.337 6.60429 305.731 5.36658C314.353 2.21943 323.124 1.66404 332.015 4.00722C335.741 4.99104 339.52 5.78972 343.278 6.65189C340.685 3.83267 338.946 0.600887 337.059 -2.53569C335.172 -5.67227 332.69 -8.02074 329.933 -10.2105L332.6 -12.395Z" fill="#3F83C5"/>
<path d="M329.934 -10.2119C332.685 -8.01149 335.204 -5.59955 337.044 -2.54232C338.883 0.514921 340.67 3.80489 343.263 6.64526C339.505 5.76194 335.726 4.96325 332 4.00059C323.082 1.64155 314.338 2.2128 305.716 5.35995C302.321 6.59766 298.864 7.69256 295.227 7.31702C292.993 7.08429 293.456 9.01489 292.708 9.96168C292.357 7.84595 292.005 5.73022 291.654 3.61448C297.225 4.76227 302.427 3.0062 307.465 1.14435C315.371 -1.77007 323.214 -1.47386 331.183 0.224013C332.237 0.456744 333.365 0.594263 335.025 0.864018C332.448 -3.28282 329.865 -6.54105 325.622 -8.12785L329.934 -10.2119Z" fill="#3574BB"/>
<path d="M125.259 9.8295C128.495 10.0834 131.737 10.2579 134.962 10.6123C139.964 11.1695 145.01 10.0738 149.335 7.49161C153.588 5.04794 157.826 2.55666 162.353 0.615475C175.266 -4.84841 187.356 -2.79086 198.757 4.84694C204.654 8.80337 209.356 14.0557 214.041 19.308C215.738 21.2121 217.456 23.1004 219.085 25.0628C226.833 34.4143 236.783 39.7566 248.674 41.703C250.572 42.0107 252.433 42.5214 254.223 43.2264C257.576 44.554 258.493 47.2357 256.89 50.5045C255.773 52.7789 253.97 54.4556 252.01 55.9578C241.89 63.7172 230.459 66.2773 218.031 64.1245C211.585 63.0085 205.909 63.9394 200.854 68.356C195.547 73.0891 188.635 75.6026 181.538 75.3802C180.294 75.3538 179.957 75.8669 179.561 76.893C175.229 88.0641 165.637 92.9038 153.984 90.1163C143.358 87.551 134.704 82.3622 129.37 72.4394C129.08 71.9104 128.68 71.4185 128.379 70.8843C123.109 61.6703 115.124 57.4758 104.662 57.6133C99.3125 57.6874 93.9366 57.6134 88.7715 55.9525C82.7104 53.9743 77.8773 50.2982 74.6728 44.7444C72.0376 40.1374 73.2656 37.736 78.5045 36.8897C80.9237 36.4983 83.3692 36.2445 85.7936 35.8848C90.3315 35.213 94.0156 33.1872 96.7826 29.3842C99.7236 25.3325 102.522 21.1645 106.117 17.6207C111.44 12.3525 117.649 9.41165 125.259 9.8295ZM168.947 46.9554C168.913 46.7875 168.835 46.632 168.72 46.5057C166.664 42.9196 166.406 39.3916 169.047 35.9271C170.517 35.0808 171.682 35.4669 172.604 36.821C172.458 37.8616 172.238 38.8904 171.945 39.8994C171.339 41.5655 171.418 43.073 172.783 44.2419C174.222 45.4902 175.814 46.2096 177.854 45.5008C182.808 43.7818 184.025 37.7678 180.257 33.3353C177.063 29.5693 172.91 28.6225 168.182 28.85C160.524 29.2308 152.898 35.377 151.28 42.8085C149.894 49.2245 153.356 53.9426 156.951 58.5866C157.351 59.1155 157.784 59.0097 158.326 58.74C159.908 57.973 161.489 57.2854 163.07 56.5608C169.716 55.7039 174.581 58.4543 178.054 64.024C178.476 65.1771 178.918 66.3249 179.314 67.4938C180.542 71.117 180.652 70.9795 184.405 70.6674C190.203 70.1385 194.835 67.3616 199.236 63.8601C202.962 60.8927 207.1 58.8193 212.028 59.0997C215.522 59.3006 219.006 59.6709 222.495 59.9935C233.595 61.0038 243.308 57.8778 251.483 50.1818C253.459 48.32 253.201 47.6747 250.618 46.9501C245.722 45.5801 240.657 44.8661 235.861 43.11C226.374 39.619 219.586 32.5842 213.077 25.2373C207.938 19.4455 203.01 13.4157 196.569 8.98321C187.667 2.86345 178.049 0.287539 167.423 3.69387C161.868 5.47638 156.94 8.60237 151.891 11.4375C146.842 14.2725 141.55 15.7324 135.758 15.2669C132.617 15.0131 129.472 14.7768 126.324 14.5582C118.545 14.0292 112.246 16.8326 107.429 22.9682C105.848 24.9729 104.356 27.041 102.823 29.0774C101.031 31.4682 99.3019 33.9118 97.0251 35.9112C92.366 40.0157 86.5631 40.5182 80.7972 41.1476C78.4202 41.4121 78.1619 41.9199 79.6166 43.8717C83.1584 48.5898 87.8228 51.5994 93.6994 52.2658C98.5693 52.7948 103.487 52.9958 108.383 53.2602C114.992 53.6199 120.943 55.5611 125.844 60.2104C128.681 62.9814 131.085 66.1662 132.975 69.6572C138.188 78.9664 146.352 83.748 156.477 85.8425C163.597 87.313 169.832 84.7847 173.695 78.5909C175.138 76.162 175.713 73.3116 175.322 70.5109C174.932 67.7102 173.602 65.127 171.55 63.1883C168.172 60.1417 162.1 60.4802 159.428 63.8548C157.246 66.6423 158.274 69.5937 161.7 70.3871C162.227 70.5035 162.712 70.6621 163.217 70.805C163.47 71.1858 163.745 71.5613 163.987 71.9422C163.702 74.7402 162.748 75.4279 160.092 74.8619C157.615 74.333 155.96 72.7462 154.632 70.7309C154.157 69.0383 153.578 67.2611 154.057 65.5632C154.721 63.1989 153.636 61.7126 152.297 59.9988C144.423 49.9121 144.428 41.0895 152.17 31.6903C158.558 25.7874 165.911 23.0158 174.639 24.6661C176.8 25.3854 178.918 26.2053 180.721 27.6334C184.753 30.8334 187.573 34.7634 186.977 40.1797C186.176 47.2357 178.744 53.4824 170.443 48.3993V48.5369C170.443 48.1455 170.175 48.0079 169.858 47.9445L169.922 48.0238L169.352 47.442L169.426 47.5107L168.825 46.913L168.947 46.9554Z" fill="#FFF3E0"/>
<path d="M163.237 70.8279C162.71 70.685 162.23 70.5263 161.719 70.41C158.293 69.6166 157.265 66.6651 159.447 63.8777C162.082 60.5031 168.17 60.1751 171.569 63.2112C173.621 65.1498 174.952 67.7331 175.342 70.5338C175.732 73.3345 175.158 76.1849 173.714 78.6137C169.851 84.7917 163.616 87.3359 156.496 85.8654C146.371 83.7497 138.207 78.9893 132.994 69.68C131.105 66.1853 128.701 62.9969 125.863 60.2227C120.962 55.5734 115.011 53.6322 108.402 53.2725C103.506 53.0081 98.5885 52.8282 93.7185 52.2781C87.8419 51.6117 83.1775 48.6021 79.6357 43.884C78.1705 41.9322 78.4393 41.4244 80.8163 41.1599C86.5822 40.5305 92.3851 40.028 97.0442 35.9235C99.3052 33.9241 101.034 31.4805 102.842 29.0897C104.375 27.0533 105.872 24.9852 107.448 22.9805C112.265 16.8449 118.564 14.0204 126.343 14.5705C129.505 14.7926 132.65 15.0289 135.777 15.2792C141.575 15.7447 146.872 14.2795 151.91 11.4498C156.949 8.61996 161.887 5.48866 167.442 3.70615C178.068 0.294533 187.686 2.87044 196.588 8.99549C203.029 13.428 207.957 19.4578 213.096 25.2496C219.605 32.5965 226.377 39.6313 235.88 43.1223C240.666 44.8784 245.731 45.5924 250.637 46.9624C253.22 47.687 253.478 48.3323 251.502 50.1941C243.354 57.8901 233.64 61.0161 222.514 60.0059C219.025 59.6832 215.541 59.313 212.047 59.112C207.119 58.8263 202.982 60.8997 199.255 63.8724C194.854 67.3739 190.227 70.1614 184.424 70.6797C180.671 71.013 180.561 71.1505 179.333 67.5061C178.937 66.3372 178.495 65.1894 178.073 64.0363C180.608 63.9041 183.17 63.957 185.673 63.6079C191.26 62.8356 196.13 60.0852 200.958 57.4511C207.356 53.9866 214.05 52.0031 221.355 52.2887C225.038 52.3909 228.722 52.1287 232.354 51.5059C233.139 51.3789 234.42 51.5059 234.557 50.448C234.694 49.3902 233.466 49.205 232.723 48.8612C228.132 46.6397 223.6 44.3706 219.547 41.1705C212.569 35.6432 206.634 29.0051 200.072 23.0334C195.956 19.2938 191.697 15.7447 186.474 13.6713C177.066 9.9317 167.869 11.2963 158.888 15.221C153.823 17.4373 148.943 20.1243 143.383 20.9282C138.07 21.6899 132.704 21.4942 127.36 21.5947C122.801 21.6793 118.811 23.1815 115.538 26.5402C110.426 31.7608 106.289 37.8171 101.308 43.1487C99.9377 44.6086 100.359 45.9732 102.22 46.5868C104.133 47.2178 106.09 47.7058 108.075 48.0467C118.464 49.8292 127.271 54.2669 134.18 62.5342C138.007 67.1095 141.385 72.1026 145.86 76.1172C151.236 80.9411 157.508 82.4009 164.459 80.7295C165.723 80.4601 166.841 79.7265 167.594 78.6726C168.347 77.6187 168.68 76.3206 168.528 75.0328C168.154 72.166 166.457 70.812 163.237 70.8279Z" fill="#5CBCEB"/>
<path d="M163.238 70.8239C166.458 70.8239 168.155 72.1621 168.509 75.0554C168.664 76.3411 168.336 77.6387 167.588 78.6943C166.84 79.7499 165.727 80.4874 164.466 80.7626C157.514 82.434 151.242 80.9742 145.866 76.1503C141.392 72.1357 138.013 67.1584 134.187 62.5672C127.277 54.3 118.47 49.8729 108.082 48.0798C106.104 47.7309 104.153 47.2359 102.248 46.5987C100.387 45.9852 99.9655 44.6205 101.336 43.1607C106.322 37.829 110.459 31.7727 115.566 26.5522C118.839 23.2199 122.829 21.6913 127.388 21.6066C132.732 21.5061 138.098 21.7018 143.41 20.9402C148.971 20.1362 153.851 17.4492 158.916 15.233C167.876 11.3083 177.094 9.94363 186.502 13.6832C191.725 15.7566 195.989 19.3058 200.1 23.0453C206.662 29.0117 212.596 35.6551 219.575 41.1825C223.617 44.3825 228.15 46.6516 232.751 48.8732C233.494 49.2328 234.727 49.4338 234.585 50.46C234.443 51.4861 233.167 51.3697 232.382 51.5178C228.743 52.1403 225.051 52.4007 221.361 52.2954C214.056 52.0097 207.363 53.9932 200.964 57.4578C196.115 60.1024 191.245 62.8423 185.68 63.6145C183.176 63.9636 180.615 63.9108 178.08 64.043C174.606 58.4733 169.742 55.7229 163.096 56.5797C158.879 52.9354 157.214 48.3865 157.672 42.7957C158.199 36.1311 164.703 32.4022 170.416 33.4283C171.998 33.7139 173.732 34.4861 172.63 36.8452C171.708 35.4911 170.522 35.105 169.072 35.9513C167.639 35.7662 166.611 36.512 165.52 37.3318C161.699 40.1934 162.042 47.9369 166.163 51.2375C173.458 57.0558 181.622 60.7583 191.235 57.0082C193.686 56.0418 196.053 54.8742 198.313 53.5172C203.663 50.3436 209.297 48.0903 215.532 47.4979C216.302 47.4239 217.308 47.4292 217.44 46.4877C217.551 45.726 216.628 45.3928 216.054 45.086C207.5 40.5689 200.559 33.9466 193.496 27.5201C187.772 22.2321 180.432 19.0459 172.672 18.4806C167.444 18.0522 162.632 19.7765 158.099 22.2361C150.39 26.5093 141.69 28.6556 132.885 28.4563C125.849 28.2923 120.568 31.1645 116.873 37.1255C115.819 38.8446 114.765 40.5848 112.984 41.7061C112.325 42.1187 111.466 42.526 111.682 43.4727C111.898 44.4195 112.894 44.483 113.616 44.6047C116.967 45.2751 120.209 46.4071 123.251 47.9687C132.474 52.3853 138.63 60.2452 145.144 67.7032C148.923 72.0246 152.945 76.0709 158.61 77.864C161.799 78.869 164.524 77.9328 165.657 75.4891C166.464 73.7542 166.184 72.3737 164.007 71.9823C163.749 71.5803 163.491 71.2048 163.238 70.8239Z" fill="#3F83C4"/>
<path d="M164.008 71.9602C166.196 72.3516 166.465 73.7321 165.658 75.467C164.525 77.9107 161.8 78.8469 158.611 77.8419C152.946 76.0489 148.924 72.0237 145.145 67.6811C138.631 60.2232 132.496 52.3421 123.252 47.9466C120.201 46.3901 116.949 45.2651 113.591 44.6038C112.869 44.4821 111.867 44.3975 111.656 43.4718C111.446 42.5462 112.299 42.1178 112.958 41.7052C114.74 40.5839 115.783 38.8437 116.848 37.1246C120.537 31.1636 125.808 28.2914 132.86 28.4554C141.664 28.6547 150.365 26.5084 158.074 22.2352C162.606 19.7756 167.418 18.0513 172.647 18.4797C180.406 19.045 187.747 22.2312 193.471 27.5192C200.533 33.9457 207.474 40.568 216.028 45.0851C216.603 45.3919 217.525 45.7251 217.415 46.4868C217.283 47.4283 216.276 47.423 215.507 47.497C209.272 48.0894 203.637 50.3427 198.288 53.5163C196.028 54.8733 193.661 56.0409 191.21 57.0073C181.596 60.7574 173.432 57.076 166.138 51.2366C162.016 47.936 161.674 40.1925 165.495 37.3309C166.586 36.5111 167.603 35.7441 169.047 35.9504C166.412 39.3885 166.665 42.9165 168.72 46.5291C168.509 46.8253 168.72 46.9046 168.947 46.9787L168.826 46.9364L169.427 47.5393L169.353 47.4706L169.948 48.0683L169.885 47.9837L170.47 48.5813V48.4491C170.797 49.8085 171.951 50.3268 172.995 50.9563C179.767 55.0238 186.503 54.7699 193.123 50.6389C196.638 48.4491 200.138 46.3016 204.265 45.45C204.923 45.3125 205.783 45.1856 205.914 44.3657C206.046 43.5459 205.255 43.2074 204.697 42.8054C202.062 40.9118 199.279 39.251 196.696 37.2569C192.944 34.3636 190.171 30.3067 185.95 28.0005C182.439 26.0911 178.877 24.2451 174.665 24.7106C165.937 23.0603 158.585 25.8319 152.202 31.7348C147.08 32.2637 142.025 33.549 136.828 33.2475C132.644 33.0042 129.112 34.5435 125.882 37.003C121.291 40.494 121.254 42.0173 126.467 44.4081C133.919 47.8567 139.116 53.6591 144.16 59.8212C147.359 63.7406 150.136 68.1043 154.659 70.7542C155.987 72.7854 157.642 74.3563 160.119 74.8852C162.77 75.4723 163.724 74.7583 164.008 71.9602Z" fill="#3574BB"/>
<path d="M154.652 70.7509C150.13 68.1062 147.352 63.7372 144.153 59.8178C139.125 53.6558 133.912 47.8534 126.46 44.4047C121.247 41.9928 121.284 40.4694 125.875 36.9996C129.106 34.5401 132.637 33.0009 136.822 33.2442C142.018 33.5457 147.073 32.2551 152.196 31.7314C144.448 41.1306 144.443 49.9532 152.317 60.04C153.656 61.7537 154.741 63.24 154.077 65.6044C153.598 67.2811 154.177 69.0583 154.652 70.7509Z" fill="#235DAB"/>
<path d="M172.603 36.8603C173.704 34.5277 171.986 33.729 170.389 33.4434C164.676 32.4172 158.193 36.1462 157.645 42.8108C157.186 48.4016 158.852 52.9504 163.068 56.5948C161.487 57.3194 159.906 58.0071 158.325 58.774C157.798 59.0438 157.35 59.139 156.949 58.6206C153.355 53.9766 149.892 49.2585 151.278 42.8425C152.886 35.4375 160.523 29.2648 168.181 28.884C172.924 28.6565 177.061 29.6033 180.255 33.3693C184.024 37.8071 182.806 43.8211 177.852 45.5348C175.812 46.2436 174.221 45.5348 172.782 44.2759C171.438 43.1017 171.338 41.5995 171.944 39.9334C172.236 38.9261 172.456 37.8991 172.603 36.8603Z" fill="#5DBCEA"/>
<path d="M174.658 24.6968C178.875 24.2313 182.432 26.0773 185.942 27.9868C190.159 30.2929 192.936 34.334 196.689 37.2431C199.271 39.2372 202.06 40.8981 204.69 42.7916C205.248 43.1936 206.039 43.5268 205.907 44.352C205.775 45.1771 204.916 45.2988 204.257 45.4363C200.131 46.2879 196.631 48.4354 193.116 50.6251C186.496 54.7561 179.76 55.01 172.987 50.9425C171.933 50.3131 170.79 49.7947 170.463 48.4353C178.764 53.5131 186.195 47.2664 186.996 40.2104C187.608 34.7942 184.772 30.8642 180.74 27.6641C178.938 26.2254 176.819 25.4056 174.658 24.6968Z" fill="#235CAB"/>
<path d="M168.947 46.9536C168.72 46.8795 168.51 46.8002 168.72 46.504C168.836 46.6302 168.914 46.7857 168.947 46.9536Z" fill="#235CAB"/>
<path d="M170.468 48.5572L169.883 47.9701C170.199 48.0389 170.468 48.1658 170.468 48.5572Z" fill="#235CAB"/>
</svg>
