<svg width="30" height="34" viewBox="0 0 30 34" fill="none" xmlns="http://www.w3.org/2000/svg">
<g filter="url(#filter0_d_4012_23657)">
<path d="M15.008 4C13.6935 3.9993 12.3918 4.25778 11.1773 4.76065C9.96273 5.26352 8.85918 6.00093 7.92971 6.93071C7.00024 7.8605 6.26308 8.96441 5.76038 10.1794C5.25768 11.3943 4.9993 12.6965 5 14.0114C4.99992 16.1294 5.67171 18.1928 6.91864 19.9046C8.16558 21.6164 9.92334 22.8882 11.9389 23.5369C12.5171 23.7319 13.0361 24.071 13.447 24.5222C13.8579 24.9734 14.1471 25.5218 14.2874 26.1159L14.4262 26.6498C14.4522 26.7836 14.524 26.9042 14.6291 26.9909C14.7343 27.0776 14.8664 27.125 15.0027 27.125C15.138 27.1238 15.2688 27.0758 15.3729 26.9892C15.477 26.9026 15.548 26.7827 15.5738 26.6498L15.7126 26.1159C15.8529 25.5218 16.1421 24.9734 16.553 24.5222C16.9639 24.071 17.4829 23.7319 18.0611 23.5369C20.0767 22.8882 21.8344 21.6164 23.0814 19.9046C24.3283 18.1928 25.0001 16.1294 25 14.0114C25 11.359 23.9478 8.81498 22.0744 6.93793C20.201 5.06089 17.6595 4.00425 15.008 4Z" fill="#53C684"/>
</g>
<mask id="mask0_4012_23657" style="mask-type:alpha" maskUnits="userSpaceOnUse" x="8" y="7" width="14" height="14">
<rect x="8.75" y="7.75" width="12.5" height="12.5" fill="#D9D9D9"/>
</mask>
<g mask="url(#mask0_4012_23657)">
<path d="M14.3743 15.25L11.5488 14.7812C11.3578 14.7465 11.2341 14.6359 11.1777 14.4492C11.1213 14.2626 11.1669 14.1042 11.3144 13.974L16.4446 9.11719C16.488 9.07378 16.5379 9.0434 16.5944 9.02604C16.6508 9.00868 16.7268 9 16.8222 9C16.9785 9 17.0978 9.06727 17.1803 9.20182C17.2628 9.33637 17.2693 9.47309 17.1998 9.61198L15.6243 12.75L18.4498 13.2188C18.6408 13.2535 18.7645 13.3641 18.8209 13.5508C18.8774 13.7374 18.8318 13.8958 18.6842 14.026L13.554 18.8828C13.5106 18.9262 13.4607 18.9566 13.4043 18.974C13.3478 18.9913 13.2719 19 13.1764 19C13.0202 19 12.9008 18.9327 12.8183 18.7982C12.7359 18.6636 12.7294 18.5269 12.7988 18.388L14.3743 15.25Z" fill="white"/>
</g>
<g filter="url(#filter1_f_4012_23657)">
<ellipse cx="15.2083" cy="27.7019" rx="3.33333" ry="1.20192" fill="#0C182E" fill-opacity="0.12"/>
</g>
<defs>
<filter id="filter0_d_4012_23657" x="0" y="0" width="30" height="33.125" filterUnits="userSpaceOnUse" color-interpolation-filters="sRGB">
<feFlood flood-opacity="0" result="BackgroundImageFix"/>
<feColorMatrix in="SourceAlpha" type="matrix" values="0 0 0 0 0 0 0 0 0 0 0 0 0 0 0 0 0 0 127 0" result="hardAlpha"/>
<feOffset dy="1"/>
<feGaussianBlur stdDeviation="2.5"/>
<feComposite in2="hardAlpha" operator="out"/>
<feColorMatrix type="matrix" values="0 0 0 0 0 0 0 0 0 0 0 0 0 0 0 0 0 0 0.1 0"/>
<feBlend mode="normal" in2="BackgroundImageFix" result="effect1_dropShadow_4012_23657"/>
<feBlend mode="normal" in="SourceGraphic" in2="effect1_dropShadow_4012_23657" result="shape"/>
</filter>
<filter id="filter1_f_4012_23657" x="9.875" y="24.5" width="10.667" height="6.40381" filterUnits="userSpaceOnUse" color-interpolation-filters="sRGB">
<feFlood flood-opacity="0" result="BackgroundImageFix"/>
<feBlend mode="normal" in="SourceGraphic" in2="BackgroundImageFix" result="shape"/>
<feGaussianBlur stdDeviation="1" result="effect1_foregroundBlur_4012_23657"/>
</filter>
</defs>
</svg>
