<svg width="45" height="57" viewBox="0 0 45 57" fill="none" xmlns="http://www.w3.org/2000/svg">
<path d="M44.9428 19.2397C44.9428 29.5128 29.4824 56.4418 22.7185 56.4418C15.9546 56.4418 0.494141 29.5128 0.494141 19.2397C0.494141 8.96665 10.4443 0.638672 22.7185 0.638672C34.9927 0.638672 44.9428 8.96665 44.9428 19.2397Z" fill="#A7C1D7"/>
<path d="M19.0472 26.0178H15.8734C15.4639 26.0178 15.161 25.824 14.9648 25.4363C14.7685 25.0487 14.7899 24.6746 15.0288 24.314L22.6817 12.6845C22.8523 12.432 23.0742 12.2562 23.3472 12.1571C23.6202 12.0579 23.9018 12.0624 24.1918 12.1706C24.4819 12.2788 24.6952 12.4681 24.8317 12.7386C24.9682 13.009 25.0194 13.2975 24.9853 13.604L24.1662 20.6087H28.1335C28.5771 20.6087 28.8885 20.8161 29.0677 21.2308C29.2469 21.6455 29.1914 22.0331 28.9013 22.3937L20.4805 33.0496C20.2928 33.284 20.0625 33.4372 19.7895 33.5094C19.5164 33.5815 19.252 33.5544 18.996 33.4282C18.7401 33.302 18.5396 33.1082 18.3945 32.8468C18.2495 32.5853 18.194 32.3013 18.2282 31.9948L19.0472 26.0178Z" fill="white"/>
</svg>
