<svg width="30" height="39" viewBox="0 0 30 39" fill="none" xmlns="http://www.w3.org/2000/svg">
<path d="M15.012 2.10965e-06C13.0403 -0.0010366 11.0877 0.381504 9.26591 1.12574C7.44409 1.86997 5.78877 2.96132 4.39457 4.33737C3.00037 5.71342 1.89463 7.34718 1.14057 9.14527C0.386524 10.9434 -0.00105028 12.8705 2.13754e-06 14.8166C-0.000119461 17.9512 1.00756 21.005 2.87796 23.5383C4.74837 26.0717 7.38502 27.9539 10.4083 28.914C11.2756 29.2026 12.0542 29.7044 12.6705 30.3722C13.2869 31.0399 13.7207 31.8517 13.9311 32.7308L14.1393 33.521C14.1783 33.7191 14.286 33.8975 14.4437 34.0259C14.6015 34.1542 14.7996 34.2243 15.004 34.2243C15.207 34.2225 15.4032 34.1515 15.5594 34.0233C15.7155 33.8952 15.8219 33.7177 15.8607 33.521L16.0688 32.7308C16.2793 31.8517 16.7131 31.0399 17.3295 30.3722C17.9459 29.7044 18.7244 29.2026 19.5917 28.914C22.615 27.9539 25.2516 26.0717 27.122 23.5383C28.9924 21.005 30.0001 17.9512 30 14.8166C30 10.8911 28.4217 7.12601 25.6116 4.34805C22.8015 1.57009 18.9893 0.0062829 15.012 2.10965e-06Z" fill="#E22C2C"/>
<ellipse cx="15" cy="14.7997" rx="7.5" ry="7.39984" fill="#921C1C"/>
<g filter="url(#filter0_f_2016_16640)">
<ellipse cx="14.999" cy="35.2212" rx="5" ry="1.77881" fill="#0C182E" fill-opacity="0.12"/>
</g>
<defs>
<filter id="filter0_f_2016_16640" x="7.99902" y="31.4424" width="14" height="7.55762" filterUnits="userSpaceOnUse" color-interpolation-filters="sRGB">
<feFlood flood-opacity="0" result="BackgroundImageFix"/>
<feBlend mode="normal" in="SourceGraphic" in2="BackgroundImageFix" result="shape"/>
<feGaussianBlur stdDeviation="1" result="effect1_foregroundBlur_2016_16640"/>
</filter>
</defs>
</svg>
